<svg width="240" height="81" viewBox="0 0 240 81" fill="none" xmlns="http://www.w3.org/2000/svg">
<mask id="path-1-outside-1" maskUnits="userSpaceOnUse" x="0" y="-0.694519" width="240" height="82" fill="black">
<rect fill="white" y="-0.694519" width="240" height="82"/>
<path fill-rule="evenodd" clip-rule="evenodd" d="M173.438 3.01268C175.409 1.19538 177.915 0.305481 180.893 0.305481C183.808 0.305481 186.252 1.19571 188.16 3.01301C190.131 4.76704 191.12 7.01056 191.12 9.68818C191.12 12.3135 190.124 14.5527 188.16 16.363C186.249 18.12 183.805 18.9778 180.893 18.9778C177.922 18.9778 175.42 18.1235 173.447 16.3722L173.437 16.3634L173.428 16.3543C171.529 14.5415 170.571 12.3049 170.571 9.68818C170.571 7.01478 171.526 4.77059 173.438 3.01268ZM180.893 1.75971C178.231 1.75971 176.1 2.54487 174.438 4.07768C172.841 5.54623 172.04 7.3978 172.04 9.68818C172.04 11.9068 172.833 13.7622 174.437 15.2983C176.098 16.7677 178.229 17.5236 180.893 17.5236C183.494 17.5236 185.562 16.7677 187.16 15.2987C188.83 13.7584 189.651 11.9025 189.651 9.68818C189.651 7.40655 188.827 5.55801 187.17 4.08689L187.16 4.07808L187.15 4.06892C185.551 2.54179 183.487 1.75971 180.893 1.75971Z"/>
<path d="M127.225 7.43703H128.71V44.0358L143.359 24.3759H165.121L142.71 51.1591L162.694 74.6686L164.415 71.5796L165.727 79.3312L158.292 76.5807L161.484 75.5033L140.797 51.1665L161.997 25.8301H144.096L127.242 48.4243V8.89126H127.225V7.43703Z"/>
<path d="M112.653 7.43703H111.171V77.7636H128.71V57.4959L143.447 77.7636H144.207L144.207 76.3094H144.195L127.242 53.02V76.3094H112.639V8.89126H112.653V7.43703Z"/>
<path d="M222.717 11.3416H205.295V24.3759H199.179V38.7503H205.295V58.9808C205.295 65.478 207.255 70.3451 210.734 73.3929L210.74 73.3981C214.173 76.3395 218.908 77.7636 224.85 77.7636H233.761V63.0534H226.87C225.178 63.0534 224.155 62.4785 223.607 61.9814C223.072 61.4959 222.717 60.6226 222.717 59.1669V38.7503H233.232L231.969 42.0614L238.843 38.1316L231.969 34.2017L233.205 37.2927H232.199V37.2961H221.249V59.1669C221.249 60.8135 221.646 62.1739 222.615 63.0534C223.571 63.9214 225.054 64.5077 226.87 64.5077H232.293V76.3094H224.85C219.138 76.3094 214.789 74.9423 211.705 72.3014C208.669 69.6406 206.764 65.2635 206.764 58.9808V37.2961H200.648V25.8301H206.764V12.7959H221.249V25.8301H232.199V25.8352H233.667V24.3759H222.717V11.3416Z"/>
<path d="M24.856 25.0856C20.6636 25.0856 16.8833 26.1364 13.4964 28.2325C10.1134 30.3262 7.4124 33.3224 5.39882 37.2481C3.45313 41.1634 2.46861 45.7331 2.46861 50.9767C2.46861 56.2191 3.45271 60.821 5.39981 64.8002C7.41325 68.725 10.1148 71.7533 13.5003 73.9094C16.888 76.005 20.6361 77.0539 24.7621 77.0539C27.6232 77.0539 30.1716 76.5958 32.4192 75.6927L29.6141 73.559L37.5507 73.44L33.6865 80.3055L33.0863 76.9936C30.6113 78.0078 27.8324 78.5081 24.7621 78.5081C20.3678 78.5081 16.3473 77.3863 12.718 75.1402L12.7101 75.1352C9.08117 72.8251 6.20832 69.5895 4.08726 65.4526L4.08116 65.4407C2.01994 61.231 1 56.4038 1 50.9767C1 45.5499 2.01994 40.7518 4.08321 36.6018L4.08721 36.5938C6.20901 32.4554 9.08421 29.2482 12.718 26.9993C16.3491 24.7521 20.4013 23.6313 24.856 23.6313C27.9027 23.6313 30.6624 24.1239 33.123 25.1225L33.6865 22.0131L37.5507 28.8786L29.6141 28.7596L32.6055 26.4842C30.3355 25.5563 27.7564 25.0856 24.856 25.0856Z"/>
<path d="M40.2932 69.4606V77.7636H57.8292V24.3759H40.2932V32.672C40.3282 32.7266 40.3628 32.7815 40.3971 32.8367L41.7568 35.0245V25.8301H56.3606V76.3094H41.7568V67.2022L40.4043 69.2915C40.3676 69.3481 40.3306 69.4045 40.2932 69.4606Z"/>
<path d="M99.6972 25.1361C97.5545 25.5028 95.5278 26.2831 93.6121 27.479L93.6084 27.4813C90.8937 29.1539 88.4944 31.458 86.6691 34.41L85.3085 36.6105V25.6012H70.8331V76.3094H85.3085V52.5514C85.3085 48.1948 86.4515 44.9477 88.7002 43.0652C90.8926 41.1685 94.1039 40.2836 98.202 40.2836L103.354 40.284V41.7378H98.202C94.2826 41.7378 91.4802 42.5889 89.6624 44.1639L89.6525 44.1725C87.8946 45.6412 86.7772 48.3489 86.7772 52.5514V77.7636H69.3645V24.147H86.7772V31.6652C88.4527 29.458 90.556 27.6495 92.8313 26.2474C94.9183 24.9449 97.1361 24.0943 99.4794 23.6976L97.7498 20.7883L105.154 23.62L98.9754 28.5538L99.6972 25.1361Z"/>
<path d="M173.653 24.3759H172.203V77.7636H189.616V28.557L192.923 29.7939L188.954 22.9872L188.145 24.3759H188.137V24.3884L184.986 29.7939L188.148 28.5541V76.3094H173.671V26.6137H173.653V24.3759Z"/>
<path fill-rule="evenodd" clip-rule="evenodd" d="M20.8521 41.1625C23.2442 38.728 26.1589 37.4989 29.5556 37.4989C32.9511 37.4989 35.8373 38.7275 38.1687 41.1662C40.5857 43.6282 41.7568 46.9593 41.7568 51.0697C41.7568 55.1802 40.5857 58.5113 38.1687 60.9732C35.8373 63.4119 32.9511 64.6406 29.5556 64.6406C26.1589 64.6406 23.2442 63.4114 20.8521 60.9769L20.8381 60.9627C18.492 58.4405 17.3544 55.0846 17.3544 50.9767C17.3544 46.8707 18.4918 43.5665 20.8521 41.1625ZM21.9049 42.1765C19.8789 44.2399 18.823 47.1406 18.823 50.9767C18.823 54.8066 19.876 57.7773 21.9118 59.97C24.0298 62.1222 26.5642 63.1864 29.5556 63.1864C32.5498 63.1864 35.0511 62.1205 37.1054 59.9702L37.1125 59.9628C39.2046 57.8336 40.2882 54.8992 40.2882 51.0697C40.2882 47.2402 39.2046 44.3058 37.1125 42.1767L37.1053 42.1693C35.0511 40.019 32.5498 38.9531 29.5556 38.9531C26.5609 38.9531 24.0243 40.0196 21.9049 42.1765Z"/>
</mask>
<path fill-rule="evenodd" clip-rule="evenodd" d="M173.438 3.01268C175.409 1.19538 177.915 0.305481 180.893 0.305481C183.808 0.305481 186.252 1.19571 188.16 3.01301C190.131 4.76704 191.12 7.01056 191.12 9.68818C191.12 12.3135 190.124 14.5527 188.16 16.363C186.249 18.12 183.805 18.9778 180.893 18.9778C177.922 18.9778 175.42 18.1235 173.447 16.3722L173.437 16.3634L173.428 16.3543C171.529 14.5415 170.571 12.3049 170.571 9.68818C170.571 7.01478 171.526 4.77059 173.438 3.01268ZM180.893 1.75971C178.231 1.75971 176.1 2.54487 174.438 4.07768C172.841 5.54623 172.04 7.3978 172.04 9.68818C172.04 11.9068 172.833 13.7622 174.437 15.2983C176.098 16.7677 178.229 17.5236 180.893 17.5236C183.494 17.5236 185.562 16.7677 187.16 15.2987C188.83 13.7584 189.651 11.9025 189.651 9.68818C189.651 7.40655 188.827 5.55801 187.17 4.08689L187.16 4.07808L187.15 4.06892C185.551 2.54179 183.487 1.75971 180.893 1.75971Z" fill="black"/>
<path d="M127.225 7.43703H128.71V44.0358L143.359 24.3759H165.121L142.71 51.1591L162.694 74.6686L164.415 71.5796L165.727 79.3312L158.292 76.5807L161.484 75.5033L140.797 51.1665L161.997 25.8301H144.096L127.242 48.4243V8.89126H127.225V7.43703Z" fill="black"/>
<path d="M112.653 7.43703H111.171V77.7636H128.71V57.4959L143.447 77.7636H144.207L144.207 76.3094H144.195L127.242 53.02V76.3094H112.639V8.89126H112.653V7.43703Z" fill="black"/>
<path d="M222.717 11.3416H205.295V24.3759H199.179V38.7503H205.295V58.9808C205.295 65.478 207.255 70.3451 210.734 73.3929L210.74 73.3981C214.173 76.3395 218.908 77.7636 224.85 77.7636H233.761V63.0534H226.87C225.178 63.0534 224.155 62.4785 223.607 61.9814C223.072 61.4959 222.717 60.6226 222.717 59.1669V38.7503H233.232L231.969 42.0614L238.843 38.1316L231.969 34.2017L233.205 37.2927H232.199V37.2961H221.249V59.1669C221.249 60.8135 221.646 62.1739 222.615 63.0534C223.571 63.9214 225.054 64.5077 226.87 64.5077H232.293V76.3094H224.85C219.138 76.3094 214.789 74.9423 211.705 72.3014C208.669 69.6406 206.764 65.2635 206.764 58.9808V37.2961H200.648V25.8301H206.764V12.7959H221.249V25.8301H232.199V25.8352H233.667V24.3759H222.717V11.3416Z" fill="black"/>
<path d="M24.856 25.0856C20.6636 25.0856 16.8833 26.1364 13.4964 28.2325C10.1134 30.3262 7.4124 33.3224 5.39882 37.2481C3.45313 41.1634 2.46861 45.7331 2.46861 50.9767C2.46861 56.2191 3.45271 60.821 5.39981 64.8002C7.41325 68.725 10.1148 71.7533 13.5003 73.9094C16.888 76.005 20.6361 77.0539 24.7621 77.0539C27.6232 77.0539 30.1716 76.5958 32.4192 75.6927L29.6141 73.559L37.5507 73.44L33.6865 80.3055L33.0863 76.9936C30.6113 78.0078 27.8324 78.5081 24.7621 78.5081C20.3678 78.5081 16.3473 77.3863 12.718 75.1402L12.7101 75.1352C9.08117 72.8251 6.20832 69.5895 4.08726 65.4526L4.08116 65.4407C2.01994 61.231 1 56.4038 1 50.9767C1 45.5499 2.01994 40.7518 4.08321 36.6018L4.08721 36.5938C6.20901 32.4554 9.08421 29.2482 12.718 26.9993C16.3491 24.7521 20.4013 23.6313 24.856 23.6313C27.9027 23.6313 30.6624 24.1239 33.123 25.1225L33.6865 22.0131L37.5507 28.8786L29.6141 28.7596L32.6055 26.4842C30.3355 25.5563 27.7564 25.0856 24.856 25.0856Z" fill="black"/>
<path d="M40.2932 69.4606V77.7636H57.8292V24.3759H40.2932V32.672C40.3282 32.7266 40.3628 32.7815 40.3971 32.8367L41.7568 35.0245V25.8301H56.3606V76.3094H41.7568V67.2022L40.4043 69.2915C40.3676 69.3481 40.3306 69.4045 40.2932 69.4606Z" fill="black"/>
<path d="M99.6972 25.1361C97.5545 25.5028 95.5278 26.2831 93.6121 27.479L93.6084 27.4813C90.8937 29.1539 88.4944 31.458 86.6691 34.41L85.3085 36.6105V25.6012H70.8331V76.3094H85.3085V52.5514C85.3085 48.1948 86.4515 44.9477 88.7002 43.0652C90.8926 41.1685 94.1039 40.2836 98.202 40.2836L103.354 40.284V41.7378H98.202C94.2826 41.7378 91.4802 42.5889 89.6624 44.1639L89.6525 44.1725C87.8946 45.6412 86.7772 48.3489 86.7772 52.5514V77.7636H69.3645V24.147H86.7772V31.6652C88.4527 29.458 90.556 27.6495 92.8313 26.2474C94.9183 24.9449 97.1361 24.0943 99.4794 23.6976L97.7498 20.7883L105.154 23.62L98.9754 28.5538L99.6972 25.1361Z" fill="black"/>
<path d="M173.653 24.3759H172.203V77.7636H189.616V28.557L192.923 29.7939L188.954 22.9872L188.145 24.3759H188.137V24.3884L184.986 29.7939L188.148 28.5541V76.3094H173.671V26.6137H173.653V24.3759Z" fill="black"/>
<path fill-rule="evenodd" clip-rule="evenodd" d="M20.8521 41.1625C23.2442 38.728 26.1589 37.4989 29.5556 37.4989C32.9511 37.4989 35.8373 38.7275 38.1687 41.1662C40.5857 43.6282 41.7568 46.9593 41.7568 51.0697C41.7568 55.1802 40.5857 58.5113 38.1687 60.9732C35.8373 63.4119 32.9511 64.6406 29.5556 64.6406C26.1589 64.6406 23.2442 63.4114 20.8521 60.9769L20.8381 60.9627C18.492 58.4405 17.3544 55.0846 17.3544 50.9767C17.3544 46.8707 18.4918 43.5665 20.8521 41.1625ZM21.9049 42.1765C19.8789 44.2399 18.823 47.1406 18.823 50.9767C18.823 54.8066 19.876 57.7773 21.9118 59.97C24.0298 62.1222 26.5642 63.1864 29.5556 63.1864C32.5498 63.1864 35.0511 62.1205 37.1054 59.9702L37.1125 59.9628C39.2046 57.8336 40.2882 54.8992 40.2882 51.0697C40.2882 47.2402 39.2046 44.3058 37.1125 42.1767L37.1053 42.1693C35.0511 40.019 32.5498 38.9531 29.5556 38.9531C26.5609 38.9531 24.0243 40.0196 21.9049 42.1765Z" fill="black"/>
<path d="M173.438 3.01268L173.573 3.15991L173.573 3.15974L173.438 3.01268ZM188.16 3.01301L188.022 3.15793L188.027 3.1624L188.16 3.01301ZM188.16 16.363L188.296 16.5102L188.296 16.5101L188.16 16.363ZM173.447 16.3722L173.58 16.2227L173.58 16.2226L173.447 16.3722ZM173.437 16.3634L173.299 16.5082L173.304 16.513L173.437 16.3634ZM173.428 16.3543L173.566 16.2096L173.566 16.2096L173.428 16.3543ZM174.438 4.07768L174.573 4.2249L174.573 4.22472L174.438 4.07768ZM174.437 15.2983L174.299 15.4428L174.305 15.448L174.437 15.2983ZM187.16 15.2987L187.295 15.4459L187.295 15.4457L187.16 15.2987ZM187.17 4.08689L187.037 4.2364L187.037 4.23646L187.17 4.08689ZM187.16 4.07808L187.022 4.22282L187.027 4.22759L187.16 4.07808ZM187.15 4.06892L187.012 4.21357L187.012 4.21357L187.15 4.06892ZM128.71 7.43703H128.91C128.91 7.32657 128.821 7.23703 128.71 7.23703V7.43703ZM127.225 7.43703V7.23703C127.115 7.23703 127.025 7.32657 127.025 7.43703H127.225ZM128.71 44.0358H128.51C128.51 44.122 128.565 44.1985 128.647 44.2256C128.729 44.2528 128.819 44.2244 128.871 44.1553L128.71 44.0358ZM143.359 24.3759V24.1759C143.295 24.1759 143.236 24.2057 143.198 24.2564L143.359 24.3759ZM165.121 24.3759L165.275 24.5042C165.325 24.4447 165.336 24.3616 165.303 24.2912C165.27 24.2209 165.199 24.1759 165.121 24.1759V24.3759ZM142.71 51.1591L142.557 51.0308C142.494 51.1055 142.495 51.2144 142.558 51.2887L142.71 51.1591ZM162.694 74.6686L162.542 74.7982C162.585 74.8481 162.649 74.8741 162.714 74.8677C162.779 74.8613 162.837 74.8233 162.869 74.766L162.694 74.6686ZM164.415 71.5796L164.612 71.5462C164.598 71.4625 164.533 71.3969 164.449 71.3825C164.365 71.3681 164.282 71.4081 164.24 71.4823L164.415 71.5796ZM165.727 79.3312L165.658 79.5188C165.725 79.5436 165.8 79.5308 165.855 79.4852C165.91 79.4396 165.937 79.3682 165.925 79.2978L165.727 79.3312ZM158.292 76.5807L158.228 76.3912C158.148 76.4183 158.093 76.4931 158.092 76.5779C158.091 76.6626 158.143 76.7389 158.223 76.7683L158.292 76.5807ZM161.484 75.5033L161.548 75.6928C161.611 75.6715 161.659 75.6206 161.677 75.5567C161.695 75.4928 161.68 75.4242 161.637 75.3737L161.484 75.5033ZM140.797 51.1665L140.643 51.0381C140.581 51.1129 140.581 51.2218 140.644 51.296L140.797 51.1665ZM161.997 25.8301L162.151 25.9585C162.201 25.8989 162.211 25.8159 162.179 25.7455C162.146 25.6751 162.075 25.6301 161.997 25.6301V25.8301ZM144.096 25.8301V25.6301C144.033 25.6301 143.974 25.6599 143.936 25.7105L144.096 25.8301ZM127.242 48.4243H127.042C127.042 48.5105 127.097 48.587 127.179 48.6141C127.26 48.6413 127.35 48.613 127.402 48.5439L127.242 48.4243ZM127.242 8.89126H127.442C127.442 8.7808 127.352 8.69126 127.242 8.69126V8.89126ZM127.225 8.89126H127.025C127.025 9.00172 127.115 9.09126 127.225 9.09126V8.89126ZM112.653 7.43703H112.853C112.853 7.32657 112.763 7.23703 112.653 7.23703V7.43703ZM111.171 7.43703V7.23703C111.06 7.23703 110.971 7.32657 110.971 7.43703H111.171ZM111.171 77.7636H110.971C110.971 77.874 111.06 77.9636 111.171 77.9636V77.7636ZM128.71 77.7636V77.9636C128.821 77.9636 128.91 77.874 128.91 77.7636H128.71ZM128.71 57.4959L128.872 57.3782C128.821 57.3082 128.731 57.2789 128.648 57.3057C128.566 57.3325 128.51 57.4092 128.51 57.4959H128.71ZM143.447 77.7636L143.285 77.8812C143.323 77.933 143.383 77.9636 143.447 77.9636V77.7636ZM144.207 77.7636V77.9636C144.317 77.9636 144.407 77.8741 144.407 77.7637L144.207 77.7636ZM144.207 76.3094L144.407 76.3094C144.407 76.2564 144.386 76.2055 144.349 76.168C144.311 76.1304 144.26 76.1094 144.207 76.1094V76.3094ZM144.195 76.3094L144.034 76.4271C144.071 76.4788 144.132 76.5094 144.195 76.5094V76.3094ZM127.242 53.02L127.403 52.9023C127.352 52.8322 127.262 52.803 127.18 52.8298C127.097 52.8566 127.042 52.9334 127.042 53.02H127.242ZM127.242 76.3094V76.5094C127.352 76.5094 127.442 76.4198 127.442 76.3094H127.242ZM112.639 76.3094H112.439C112.439 76.4198 112.529 76.5094 112.639 76.5094V76.3094ZM112.639 8.89126V8.69126C112.529 8.69126 112.439 8.7808 112.439 8.89126H112.639ZM112.653 8.89126V9.09126C112.763 9.09126 112.853 9.00172 112.853 8.89126H112.653ZM205.295 11.3416V11.1416C205.185 11.1416 205.095 11.2312 205.095 11.3416H205.295ZM222.717 11.3416H222.917C222.917 11.2312 222.828 11.1416 222.717 11.1416V11.3416ZM205.295 24.3759V24.5759C205.406 24.5759 205.495 24.4864 205.495 24.3759H205.295ZM199.179 24.3759V24.1759C199.069 24.1759 198.979 24.2654 198.979 24.3759H199.179ZM199.179 38.7503H198.979C198.979 38.8607 199.069 38.9503 199.179 38.9503V38.7503ZM205.295 38.7503H205.495C205.495 38.6398 205.406 38.5503 205.295 38.5503V38.7503ZM210.734 73.3929L210.603 73.5433L210.603 73.544L210.734 73.3929ZM210.74 73.3981L210.609 73.5492L210.61 73.55L210.74 73.3981ZM233.761 77.7636V77.9636C233.872 77.9636 233.961 77.874 233.961 77.7636H233.761ZM233.761 63.0534H233.961C233.961 62.943 233.872 62.8534 233.761 62.8534V63.0534ZM223.607 61.9814L223.473 62.1295L223.473 62.1295L223.607 61.9814ZM222.717 38.7503V38.5503C222.607 38.5503 222.517 38.6398 222.517 38.7503H222.717ZM233.232 38.7503L233.419 38.8216C233.442 38.7601 233.434 38.691 233.397 38.6368C233.359 38.5826 233.298 38.5503 233.232 38.5503V38.7503ZM231.969 42.0614L231.782 41.9902C231.752 42.0691 231.775 42.1584 231.839 42.2134C231.903 42.2683 231.995 42.277 232.068 42.2351L231.969 42.0614ZM238.843 38.1316L238.942 38.3052C239.004 38.2696 239.043 38.2033 239.043 38.1316C239.043 38.0598 239.004 37.9936 238.942 37.9579L238.843 38.1316ZM231.969 34.2017L232.068 34.0281C231.994 33.9859 231.902 33.995 231.838 34.0508C231.773 34.1066 231.751 34.197 231.783 34.276L231.969 34.2017ZM233.205 37.2927V37.4927C233.271 37.4927 233.333 37.4598 233.37 37.4048C233.408 37.3499 233.415 37.28 233.391 37.2184L233.205 37.2927ZM232.199 37.2927V37.0927C232.088 37.0927 231.999 37.1822 231.999 37.2927H232.199ZM232.199 37.2961V37.4961C232.309 37.4961 232.399 37.4065 232.399 37.2961H232.199ZM221.249 37.2961V37.0961C221.138 37.0961 221.049 37.1856 221.049 37.2961H221.249ZM222.615 63.0534L222.749 62.9053L222.749 62.9053L222.615 63.0534ZM232.293 64.5077H232.493C232.493 64.3972 232.403 64.3077 232.293 64.3077V64.5077ZM232.293 76.3094V76.5094C232.403 76.5094 232.493 76.4198 232.493 76.3094H232.293ZM211.705 72.3014L211.573 72.4518L211.575 72.4533L211.705 72.3014ZM206.764 37.2961H206.964C206.964 37.1856 206.874 37.0961 206.764 37.0961V37.2961ZM200.648 37.2961H200.448C200.448 37.4065 200.537 37.4961 200.648 37.4961V37.2961ZM200.648 25.8301V25.6301C200.537 25.6301 200.448 25.7197 200.448 25.8301H200.648ZM206.764 25.8301V26.0301C206.874 26.0301 206.964 25.9406 206.964 25.8301H206.764ZM206.764 12.7959V12.5959C206.653 12.5959 206.564 12.6854 206.564 12.7959H206.764ZM221.249 12.7959H221.449C221.449 12.6854 221.359 12.5959 221.249 12.5959V12.7959ZM221.249 25.8301H221.049C221.049 25.9406 221.138 26.0301 221.249 26.0301V25.8301ZM232.199 25.8301H232.399C232.399 25.7197 232.309 25.6301 232.199 25.6301V25.8301ZM232.199 25.8352H231.999C231.999 25.9456 232.088 26.0352 232.199 26.0352V25.8352ZM233.667 25.8352V26.0352C233.778 26.0352 233.867 25.9456 233.867 25.8352H233.667ZM233.667 24.3759H233.867C233.867 24.2654 233.778 24.1759 233.667 24.1759V24.3759ZM222.717 24.3759H222.517C222.517 24.4864 222.607 24.5759 222.717 24.5759V24.3759ZM13.4964 28.2325L13.6016 28.4026L13.6016 28.4026L13.4964 28.2325ZM5.39882 37.2481L5.22085 37.1569L5.21971 37.1591L5.39882 37.2481ZM5.39981 64.8002L5.22014 64.8881L5.22186 64.8915L5.39981 64.8002ZM13.5003 73.9094L13.3929 74.0781L13.3951 74.0795L13.5003 73.9094ZM32.4192 75.6927L32.4938 75.8783C32.5606 75.8514 32.6078 75.7908 32.6174 75.7194C32.627 75.6481 32.5976 75.5771 32.5403 75.5335L32.4192 75.6927ZM29.6141 73.559L29.6111 73.359C29.5259 73.3603 29.4508 73.4155 29.4241 73.4966C29.3975 73.5776 29.4252 73.6666 29.4931 73.7182L29.6141 73.559ZM37.5507 73.44L37.725 73.5381C37.7601 73.4757 37.7592 73.3993 37.7226 73.3378C37.686 73.2762 37.6193 73.239 37.5477 73.24L37.5507 73.44ZM33.6865 80.3055L33.4897 80.3411C33.5047 80.4241 33.5702 80.4887 33.6533 80.5027C33.7364 80.5167 33.8194 80.477 33.8608 80.4036L33.6865 80.3055ZM33.0863 76.9936L33.2831 76.9579C33.2723 76.8986 33.2353 76.8472 33.1824 76.8182C33.1295 76.7892 33.0663 76.7857 33.0105 76.8085L33.0863 76.9936ZM12.718 75.1402L12.6117 75.3096L12.6128 75.3102L12.718 75.1402ZM12.7101 75.1352L12.6027 75.3039L12.6038 75.3046L12.7101 75.1352ZM4.08726 65.4526L3.90926 65.5438L3.90928 65.5438L4.08726 65.4526ZM4.08116 65.4407L3.90151 65.5287L3.90316 65.5319L4.08116 65.4407ZM4.08321 36.6018L4.2623 36.6909L4.26231 36.6909L4.08321 36.6018ZM4.08721 36.5938L3.90922 36.5026L3.90812 36.5048L4.08721 36.5938ZM12.718 26.9993L12.8233 27.1694L12.718 26.9993ZM33.123 25.1225L33.0478 25.3078C33.1036 25.3305 33.1666 25.3268 33.2194 25.2977C33.2722 25.2687 33.309 25.2174 33.3198 25.1582L33.123 25.1225ZM33.6865 22.0131L33.8608 21.915C33.8194 21.8416 33.7364 21.8019 33.6533 21.8159C33.5702 21.8299 33.5047 21.8945 33.4897 21.9775L33.6865 22.0131ZM37.5507 28.8786L37.5477 29.0786C37.6193 29.0796 37.686 29.0424 37.7226 28.9808C37.7592 28.9193 37.7601 28.8429 37.725 28.7805L37.5507 28.8786ZM29.6141 28.7596L29.4931 28.6004C29.4252 28.652 29.3975 28.741 29.4241 28.822C29.4508 28.9031 29.5259 28.9583 29.6111 28.9596L29.6141 28.7596ZM32.6055 26.4842L32.7266 26.6434C32.7837 26.5999 32.8132 26.5292 32.8038 26.4581C32.7944 26.3869 32.7476 26.3262 32.6812 26.2991L32.6055 26.4842ZM40.2932 77.7636H40.0932C40.0932 77.874 40.1827 77.9636 40.2932 77.9636V77.7636ZM40.2932 69.4606L40.1268 69.3497C40.1049 69.3825 40.0932 69.4211 40.0932 69.4606H40.2932ZM57.8292 77.7636V77.9636C57.9397 77.9636 58.0292 77.874 58.0292 77.7636H57.8292ZM57.8292 24.3759H58.0292C58.0292 24.2654 57.9397 24.1759 57.8292 24.1759V24.3759ZM40.2932 24.3759V24.1759C40.1827 24.1759 40.0932 24.2654 40.0932 24.3759H40.2932ZM40.2932 32.672H40.0932C40.0932 32.7102 40.1042 32.7477 40.1248 32.7798L40.2932 32.672ZM40.3971 32.8367L40.2272 32.9422L40.2272 32.9422L40.3971 32.8367ZM41.7568 35.0245L41.5869 35.1301C41.634 35.206 41.7258 35.2414 41.8117 35.2168C41.8975 35.1923 41.9568 35.1138 41.9568 35.0245H41.7568ZM41.7568 25.8301V25.6301C41.6463 25.6301 41.5568 25.7197 41.5568 25.8301H41.7568ZM56.3606 25.8301H56.5606C56.5606 25.7197 56.4711 25.6301 56.3606 25.6301V25.8301ZM56.3606 76.3094V76.5094C56.4711 76.5094 56.5606 76.4198 56.5606 76.3094H56.3606ZM41.7568 76.3094H41.5568C41.5568 76.4198 41.6463 76.5094 41.7568 76.5094V76.3094ZM41.7568 67.2022H41.9568C41.9568 67.1136 41.8984 67.0355 41.8134 67.0104C41.7284 66.9853 41.637 67.0192 41.5889 67.0936L41.7568 67.2022ZM40.4043 69.2915L40.2364 69.1828L40.2364 69.1828L40.4043 69.2915ZM93.6121 27.479L93.7177 27.6489L93.718 27.6487L93.6121 27.479ZM99.6972 25.1361L99.8929 25.1774C99.9066 25.1126 99.8872 25.0452 99.8413 24.9974C99.7954 24.9497 99.7288 24.9278 99.6634 24.939L99.6972 25.1361ZM93.6084 27.4813L93.7133 27.6516L93.714 27.6511L93.6084 27.4813ZM86.6691 34.41L86.499 34.3049L86.499 34.3049L86.6691 34.41ZM85.3085 36.6105H85.1085C85.1085 36.6999 85.1679 36.7785 85.2539 36.8029C85.3399 36.8273 85.4316 36.7917 85.4787 36.7157L85.3085 36.6105ZM85.3085 25.6012H85.5085C85.5085 25.4907 85.419 25.4012 85.3085 25.4012V25.6012ZM70.8331 25.6012V25.4012C70.7226 25.4012 70.6331 25.4907 70.6331 25.6012H70.8331ZM70.8331 76.3094H70.6331C70.6331 76.4198 70.7226 76.5094 70.8331 76.5094V76.3094ZM85.3085 76.3094V76.5094C85.419 76.5094 85.5085 76.4198 85.5085 76.3094H85.3085ZM88.7002 43.0652L88.8286 43.2186L88.8311 43.2165L88.7002 43.0652ZM98.202 40.2836L98.202 40.0836H98.202V40.2836ZM103.354 40.284H103.554C103.554 40.1736 103.464 40.084 103.354 40.084L103.354 40.284ZM103.354 41.7378V41.9378C103.464 41.9378 103.554 41.8482 103.554 41.7378H103.354ZM89.6624 44.1639L89.7934 44.315L89.7934 44.315L89.6624 44.1639ZM89.6525 44.1725L89.7808 44.326L89.7835 44.3236L89.6525 44.1725ZM86.7772 77.7636V77.9636C86.8876 77.9636 86.9772 77.874 86.9772 77.7636H86.7772ZM69.3645 77.7636H69.1645C69.1645 77.874 69.254 77.9636 69.3645 77.9636V77.7636ZM69.3645 24.147V23.947C69.254 23.947 69.1645 24.0365 69.1645 24.147H69.3645ZM86.7772 24.147H86.9772C86.9772 24.0365 86.8876 23.947 86.7772 23.947V24.147ZM86.7772 31.6652H86.5772C86.5772 31.7511 86.632 31.8273 86.7134 31.8547C86.7947 31.8821 86.8845 31.8545 86.9365 31.7861L86.7772 31.6652ZM92.8313 26.2474L92.9362 26.4176L92.9372 26.417L92.8313 26.2474ZM99.4794 23.6976L99.5128 23.8948C99.5778 23.8838 99.6332 23.8414 99.6609 23.7816C99.6886 23.7217 99.685 23.6521 99.6513 23.5954L99.4794 23.6976ZM97.7498 20.7883L97.8213 20.6015C97.7417 20.5711 97.6517 20.5943 97.5968 20.6595C97.542 20.7246 97.5344 20.8173 97.5779 20.8905L97.7498 20.7883ZM105.154 23.62L105.279 23.7763C105.335 23.7316 105.363 23.6602 105.352 23.5893C105.341 23.5184 105.293 23.4589 105.226 23.4332L105.154 23.62ZM98.9754 28.5538L98.7797 28.5124C98.7623 28.595 98.7986 28.6797 98.8704 28.724C98.9423 28.7683 99.0342 28.7627 99.1002 28.7101L98.9754 28.5538ZM172.203 24.3759V24.1759C172.092 24.1759 172.003 24.2654 172.003 24.3759H172.203ZM173.653 24.3759H173.853C173.853 24.2654 173.763 24.1759 173.653 24.1759V24.3759ZM172.203 77.7636H172.003C172.003 77.874 172.092 77.9636 172.203 77.9636V77.7636ZM189.616 77.7636V77.9636C189.727 77.9636 189.816 77.874 189.816 77.7636H189.616ZM189.616 28.557L189.686 28.3697C189.625 28.3467 189.556 28.3553 189.502 28.3927C189.448 28.4301 189.416 28.4915 189.416 28.557H189.616ZM192.923 29.7939L192.853 29.9813C192.932 30.0109 193.021 29.9875 193.076 29.9229C193.13 29.8582 193.138 29.7663 193.096 29.6932L192.923 29.7939ZM188.954 22.9872L189.127 22.8865C189.091 22.825 189.025 22.7872 188.954 22.7872C188.883 22.7872 188.817 22.825 188.781 22.8865L188.954 22.9872ZM188.145 24.3759V24.5759C188.216 24.5759 188.282 24.5381 188.317 24.4766L188.145 24.3759ZM188.137 24.3759V24.1759C188.027 24.1759 187.937 24.2654 187.937 24.3759H188.137ZM188.137 24.3884L188.31 24.4891C188.328 24.4585 188.337 24.4238 188.337 24.3884H188.137ZM184.986 29.7939L184.813 29.6932C184.77 29.7668 184.778 29.8594 184.834 29.9241C184.889 29.9887 184.979 30.0112 185.059 29.9801L184.986 29.7939ZM188.148 28.5541H188.348C188.348 28.488 188.315 28.4261 188.26 28.3889C188.206 28.3516 188.136 28.3438 188.075 28.3679L188.148 28.5541ZM188.148 76.3094V76.5094C188.258 76.5094 188.348 76.4198 188.348 76.3094H188.148ZM173.671 76.3094H173.471C173.471 76.4198 173.561 76.5094 173.671 76.5094V76.3094ZM173.671 26.6137H173.871C173.871 26.5033 173.782 26.4137 173.671 26.4137V26.6137ZM173.653 26.6137H173.453C173.453 26.7242 173.542 26.8137 173.653 26.8137V26.6137ZM20.8521 41.1625L20.7094 41.0224L20.7094 41.0224L20.8521 41.1625ZM38.1687 41.1662L38.0241 41.3045L38.026 41.3063L38.1687 41.1662ZM38.1687 60.9732L38.026 60.8331L38.0242 60.835L38.1687 60.9732ZM20.8521 60.9769L20.7094 61.1171L20.7094 61.1171L20.8521 60.9769ZM20.8381 60.9627L20.6916 61.0989L20.6954 61.1028L20.8381 60.9627ZM21.9049 42.1765L21.7622 42.0363L21.7622 42.0363L21.9049 42.1765ZM21.9118 59.97L21.7651 60.1062L21.7692 60.1103L21.9118 59.97ZM37.1054 59.9702L37.25 60.1084L37.25 60.1083L37.1054 59.9702ZM37.1125 59.9628L36.9698 59.8226L36.9678 59.8247L37.1125 59.9628ZM37.1125 42.1767L36.9698 42.3168L36.9698 42.3168L37.1125 42.1767ZM37.1053 42.1693L36.9607 42.3075L36.9626 42.3095L37.1053 42.1693ZM180.893 0.105481C177.872 0.105481 175.316 1.00944 173.302 2.86562L173.573 3.15974C175.503 1.38132 177.957 0.505481 180.893 0.505481V0.105481ZM188.298 2.86818C186.347 1.01053 183.852 0.105481 180.893 0.105481V0.505481C183.764 0.505481 186.156 1.38088 188.022 3.15784L188.298 2.86818ZM191.32 9.68818C191.32 6.95492 190.307 4.65655 188.293 2.86362L188.027 3.1624C189.954 4.87753 190.92 7.0662 190.92 9.68818H191.32ZM188.296 16.5101C190.3 14.6628 191.32 12.3707 191.32 9.68818H190.92C190.92 12.2563 189.948 14.4426 188.025 16.216L188.296 16.5101ZM180.893 19.1778C183.847 19.1778 186.342 18.3065 188.296 16.5102L188.025 16.2158C186.157 17.9336 183.763 18.7778 180.893 18.7778V19.1778ZM173.314 16.5218C175.329 18.3107 177.881 19.1778 180.893 19.1778V18.7778C177.963 18.7778 175.51 17.9362 173.58 16.2227L173.314 16.5218ZM173.304 16.513L173.314 16.5218L173.58 16.2226L173.57 16.2138L173.304 16.513ZM173.289 16.4989L173.299 16.5081L173.575 16.2188L173.566 16.2096L173.289 16.4989ZM170.371 9.68818C170.371 12.3597 171.352 14.6485 173.289 16.4989L173.566 16.2096C171.707 14.4345 170.771 12.2501 170.771 9.68818H170.371ZM173.302 2.86546C171.347 4.66298 170.371 6.96145 170.371 9.68818H170.771C170.771 7.0681 171.704 4.87819 173.573 3.15991L173.302 2.86546ZM174.573 4.22472C176.194 2.73077 178.274 1.95971 180.893 1.95971V1.55971C178.189 1.55971 176.007 2.35897 174.302 3.93063L174.573 4.22472ZM172.24 9.68818C172.24 7.45119 173.019 5.65387 174.573 4.2249L174.302 3.93045C172.662 5.43858 171.84 7.34441 171.84 9.68818H172.24ZM174.576 15.1538C173.011 13.6554 172.24 11.8521 172.24 9.68818H171.84C171.84 11.9614 172.656 13.869 174.299 15.4427L174.576 15.1538ZM180.893 17.3236C178.27 17.3236 176.188 16.5805 174.57 15.1485L174.305 15.448C176.008 16.9549 178.189 17.7236 180.893 17.7236V17.3236ZM187.024 15.1514C185.469 16.5812 183.452 17.3236 180.893 17.3236V17.7236C183.536 17.7236 185.654 16.9541 187.295 15.4459L187.024 15.1514ZM189.451 9.68818C189.451 11.8453 188.655 13.6484 187.024 15.1516L187.295 15.4457C189.006 13.8685 189.851 11.9597 189.851 9.68818H189.451ZM187.037 4.23646C188.65 5.66871 189.451 7.46233 189.451 9.68818H189.851C189.851 7.35076 189.003 5.44731 187.303 3.93733L187.037 4.23646ZM187.027 4.22759L187.037 4.2364L187.303 3.93738L187.293 3.92857L187.027 4.22759ZM187.012 4.21357L187.022 4.22273L187.298 3.93343L187.288 3.92427L187.012 4.21357ZM180.893 1.95971C183.443 1.95971 185.455 2.72686 187.012 4.21357L187.288 3.92427C185.647 2.35672 183.53 1.55971 180.893 1.55971V1.95971ZM128.71 7.23703H127.225V7.63703H128.71V7.23703ZM128.91 44.0358V7.43703H128.51V44.0358H128.91ZM143.198 24.2564L128.55 43.9163L128.871 44.1553L143.519 24.4954L143.198 24.2564ZM165.121 24.1759H143.359V24.5759H165.121V24.1759ZM142.864 51.2875L165.275 24.5042L164.968 24.2475L142.557 51.0308L142.864 51.2875ZM162.847 74.5391L142.863 51.0296L142.558 51.2887L162.542 74.7982L162.847 74.5391ZM164.24 71.4823L162.52 74.5713L162.869 74.766L164.59 71.677L164.24 71.4823ZM165.925 79.2978L164.612 71.5462L164.218 71.613L165.53 79.3646L165.925 79.2978ZM158.223 76.7683L165.658 79.5188L165.797 79.1436L158.361 76.3932L158.223 76.7683ZM161.42 75.3138L158.228 76.3912L158.356 76.7702L161.548 75.6928L161.42 75.3138ZM140.644 51.296L161.332 75.6328L161.637 75.3737L140.949 51.0369L140.644 51.296ZM161.844 25.7018L140.643 51.0381L140.95 51.2948L162.151 25.9585L161.844 25.7018ZM144.096 26.0301H161.997V25.6301H144.096V26.0301ZM127.402 48.5439L144.256 25.9497L143.936 25.7105L127.081 48.3047L127.402 48.5439ZM127.042 8.89126V48.4243H127.442V8.89126H127.042ZM127.225 9.09126H127.242V8.69126H127.225V9.09126ZM127.025 7.43703V8.89126H127.425V7.43703H127.025ZM112.653 7.23703H111.171V7.63703H112.653V7.23703ZM110.971 7.43703V77.7636H111.371V7.43703H110.971ZM111.171 77.9636H128.71V77.5636H111.171V77.9636ZM128.91 77.7636V57.4959H128.51V77.7636H128.91ZM128.548 57.6135L143.285 77.8812L143.609 77.646L128.872 57.3782L128.548 57.6135ZM143.447 77.9636H144.207V77.5636H143.447V77.9636ZM144.407 77.7637L144.407 76.3094L144.007 76.3093L144.007 77.7635L144.407 77.7637ZM144.207 76.1094H144.195V76.5094H144.207V76.1094ZM144.357 76.1916L127.403 52.9023L127.08 53.1377L144.034 76.4271L144.357 76.1916ZM127.042 53.02V76.3094H127.442V53.02H127.042ZM127.242 76.1094H112.639V76.5094H127.242V76.1094ZM112.839 76.3094V8.89126H112.439V76.3094H112.839ZM112.639 9.09126H112.653V8.69126H112.639V9.09126ZM112.853 8.89126V7.43703H112.453V8.89126H112.853ZM205.295 11.5416H222.717V11.1416H205.295V11.5416ZM205.495 24.3759V11.3416H205.095V24.3759H205.495ZM199.179 24.5759H205.295V24.1759H199.179V24.5759ZM199.379 38.7503V24.3759H198.979V38.7503H199.379ZM205.295 38.5503H199.179V38.9503H205.295V38.5503ZM205.495 58.9808V38.7503H205.095V58.9808H205.495ZM210.866 73.2425C207.442 70.2433 205.495 65.4388 205.495 58.9808H205.095C205.095 65.5171 207.068 70.4469 210.603 73.5433L210.866 73.2425ZM210.871 73.247L210.865 73.2418L210.603 73.544L210.61 73.5492L210.871 73.247ZM224.85 77.5636C218.939 77.5636 214.256 76.147 210.871 73.2462L210.61 73.55C214.09 76.532 218.878 77.9636 224.85 77.9636V77.5636ZM233.761 77.5636H224.85V77.9636H233.761V77.5636ZM233.561 63.0534V77.7636H233.961V63.0534H233.561ZM226.87 63.2534H233.761V62.8534H226.87V63.2534ZM223.473 62.1295C224.057 62.6604 225.129 63.2534 226.87 63.2534V62.8534C225.227 62.8534 224.252 62.2967 223.741 61.8333L223.473 62.1295ZM222.517 59.1669C222.517 60.6496 222.878 61.59 223.473 62.1295L223.741 61.8333C223.266 61.4018 222.917 60.5956 222.917 59.1669H222.517ZM222.517 38.7503V59.1669H222.917V38.7503H222.517ZM233.232 38.5503H222.717V38.9503H233.232V38.5503ZM232.156 42.1327L233.419 38.8216L233.045 38.679L231.782 41.9902L232.156 42.1327ZM238.744 37.9579L231.87 41.8878L232.068 42.2351L238.942 38.3052L238.744 37.9579ZM231.87 34.3753L238.744 38.3052L238.942 37.9579L232.068 34.0281L231.87 34.3753ZM233.391 37.2184L232.154 34.1274L231.783 34.276L233.019 37.3669L233.391 37.2184ZM232.199 37.4927H233.205V37.0927H232.199V37.4927ZM232.399 37.2961V37.2927H231.999V37.2961H232.399ZM221.249 37.4961H232.199V37.0961H221.249V37.4961ZM221.449 59.1669V37.2961H221.049V59.1669H221.449ZM222.749 62.9053C221.84 62.08 221.449 60.787 221.449 59.1669H221.049C221.049 60.8401 221.452 62.2679 222.48 63.2015L222.749 62.9053ZM226.87 64.3077C225.096 64.3077 223.663 63.7349 222.749 62.9053L222.48 63.2015C223.479 64.1079 225.012 64.7077 226.87 64.7077V64.3077ZM232.293 64.3077H226.87V64.7077H232.293V64.3077ZM232.493 76.3094V64.5077H232.093V76.3094H232.493ZM224.85 76.5094H232.293V76.1094H224.85V76.5094ZM211.575 72.4533C214.706 75.1349 219.108 76.5094 224.85 76.5094V76.1094C219.169 76.1094 214.872 74.7498 211.835 72.1495L211.575 72.4533ZM206.564 58.9808C206.564 65.3035 208.482 69.7428 211.573 72.4518L211.837 72.151C208.856 69.5384 206.964 65.2234 206.964 58.9808H206.564ZM206.564 37.2961V58.9808H206.964V37.2961H206.564ZM200.648 37.4961H206.764V37.0961H200.648V37.4961ZM200.448 25.8301V37.2961H200.848V25.8301H200.448ZM206.764 25.6301H200.648V26.0301H206.764V25.6301ZM206.564 12.7959V25.8301H206.964V12.7959H206.564ZM221.249 12.5959H206.764V12.9959H221.249V12.5959ZM221.449 25.8301V12.7959H221.049V25.8301H221.449ZM232.199 25.6301H221.249V26.0301H232.199V25.6301ZM232.399 25.8352V25.8301H231.999V25.8352H232.399ZM233.667 25.6352H232.199V26.0352H233.667V25.6352ZM233.467 24.3759V25.8352H233.867V24.3759H233.467ZM222.717 24.5759H233.667V24.1759H222.717V24.5759ZM222.517 11.3416V24.3759H222.917V11.3416H222.517ZM13.6016 28.4026C16.9554 26.327 20.6989 25.2856 24.856 25.2856V24.8856C20.6283 24.8856 16.8112 25.9458 13.3911 28.0624L13.6016 28.4026ZM5.57677 37.3394C7.57542 33.4428 10.2525 30.4753 13.6016 28.4026L13.3911 28.0624C9.97416 30.1771 7.24937 33.202 5.22086 37.1569L5.57677 37.3394ZM2.66861 50.9767C2.66861 45.7583 3.6483 41.2201 5.57792 37.3372L5.21971 37.1591C3.25797 41.1067 2.26861 45.7079 2.26861 50.9767H2.66861ZM5.57946 64.7123C3.64784 60.7648 2.66861 56.1938 2.66861 50.9767H2.26861C2.26861 56.2444 3.25757 60.8773 5.22017 64.8881L5.57946 64.7123ZM13.6078 73.7407C10.2549 71.6054 7.57648 68.605 5.57776 64.7089L5.22186 64.8915C7.25002 68.845 9.9748 71.9012 13.3929 74.0781L13.6078 73.7407ZM24.7621 76.8539C20.672 76.8539 16.9605 75.8147 13.6055 73.7393L13.3951 74.0795C16.8154 76.1953 20.6002 77.2539 24.7621 77.2539V76.8539ZM32.3446 75.5071C30.1243 76.3993 27.6018 76.8539 24.7621 76.8539V77.2539C27.6446 77.2539 30.2189 76.7924 32.4938 75.8783L32.3446 75.5071ZM29.4931 73.7182L32.2981 75.8519L32.5403 75.5335L29.7352 73.3998L29.4931 73.7182ZM37.5477 73.24L29.6111 73.359L29.6171 73.759L37.5537 73.64L37.5477 73.24ZM33.8608 80.4036L37.725 73.5381L37.3764 73.3419L33.5122 80.2074L33.8608 80.4036ZM32.8895 77.0293L33.4897 80.3411L33.8833 80.2698L33.2831 76.9579L32.8895 77.0293ZM24.7621 78.7081C27.8542 78.7081 30.6594 78.2043 33.1621 77.1787L33.0105 76.8085C30.5631 77.8114 27.8106 78.3081 24.7621 78.3081V78.7081ZM12.6128 75.3102C16.2747 77.5766 20.3319 78.7081 24.7621 78.7081V78.3081C20.4037 78.3081 16.4199 77.196 12.8233 74.9701L12.6128 75.3102ZM12.6038 75.3046L12.6117 75.3096L12.8243 74.9708L12.8164 74.9658L12.6038 75.3046ZM3.90928 65.5438C6.04506 69.7095 8.94112 72.9731 12.6027 75.3039L12.8175 74.9665C9.22122 72.6772 6.37157 69.4696 4.26523 65.3613L3.90928 65.5438ZM3.90316 65.5319L3.90926 65.5438L4.26526 65.3614L4.25916 65.3495L3.90316 65.5319ZM0.8 50.9767C0.8 56.4291 1.8248 61.2873 3.90154 65.5286L4.26079 65.3527C2.21507 61.1748 1.2 56.3784 1.2 50.9767H0.8ZM3.90413 36.5128C1.82478 40.6951 0.8 45.5247 0.8 50.9767H1.2C1.2 45.5751 2.2151 40.8085 4.2623 36.6909L3.90413 36.5128ZM3.90812 36.5048L3.90412 36.5128L4.26231 36.6909L4.2663 36.6828L3.90812 36.5048ZM12.6128 26.8293C8.94499 29.0992 6.04596 32.3351 3.90924 36.5026L4.26518 36.6851C6.37205 32.5758 9.22342 29.3973 12.8233 27.1694L12.6128 26.8293ZM24.856 23.4313C20.366 23.4313 16.277 24.5615 12.6128 26.8293L12.8233 27.1694C16.4212 24.9427 20.4366 23.8313 24.856 23.8313V23.4313ZM33.1982 24.9372C30.7101 23.9275 27.9243 23.4313 24.856 23.4313V23.8313C27.8811 23.8313 30.6147 24.3204 33.0478 25.3078L33.1982 24.9372ZM33.4897 21.9775L32.9262 25.0868L33.3198 25.1582L33.8833 22.0488L33.4897 21.9775ZM37.725 28.7805L33.8608 21.915L33.5122 22.1112L37.3764 28.9767L37.725 28.7805ZM29.6111 28.9596L37.5477 29.0786L37.5537 28.6786L29.6171 28.5596L29.6111 28.9596ZM32.4844 26.325L29.4931 28.6004L29.7352 28.9188L32.7266 26.6434L32.4844 26.325ZM24.856 25.2856C27.7347 25.2856 30.2874 25.7527 32.5298 26.6693L32.6812 26.2991C30.3835 25.3599 27.7782 24.8856 24.856 24.8856V25.2856ZM40.4932 77.7636V69.4606H40.0932V77.7636H40.4932ZM57.8292 77.5636H40.2932V77.9636H57.8292V77.5636ZM57.6292 24.3759V77.7636H58.0292V24.3759H57.6292ZM40.2932 24.5759H57.8292V24.1759H40.2932V24.5759ZM40.4932 32.672V24.3759H40.0932V32.672H40.4932ZM40.567 32.7311C40.5322 32.6752 40.4971 32.6195 40.4616 32.5641L40.1248 32.7798C40.1593 32.8337 40.1934 32.8879 40.2272 32.9422L40.567 32.7311ZM41.9266 34.919L40.567 32.7311L40.2272 32.9422L41.5869 35.1301L41.9266 34.919ZM41.5568 25.8301V35.0245H41.9568V25.8301H41.5568ZM56.3606 25.6301H41.7568V26.0301H56.3606V25.6301ZM56.5606 76.3094V25.8301H56.1606V76.3094H56.5606ZM41.7568 76.5094H56.3606V76.1094H41.7568V76.5094ZM41.5568 67.2022V76.3094H41.9568V67.2022H41.5568ZM40.5722 69.4002L41.9247 67.3109L41.5889 67.0936L40.2364 69.1828L40.5722 69.4002ZM40.4596 69.5715C40.4975 69.5147 40.535 69.4576 40.5722 69.4002L40.2364 69.1828C40.2002 69.2387 40.1637 69.2943 40.1268 69.3497L40.4596 69.5715ZM93.718 27.6487C95.6125 26.466 97.6148 25.6954 99.7309 25.3332L99.6634 24.939C97.4941 25.3102 95.443 26.1002 93.5062 27.3093L93.718 27.6487ZM93.714 27.6511L93.7177 27.6489L93.5065 27.3091L93.5028 27.3114L93.714 27.6511ZM86.8392 34.5152C88.6474 31.5908 91.024 29.3086 93.7133 27.6516L93.5035 27.311C90.7635 28.9992 88.3413 31.3252 86.499 34.3049L86.8392 34.5152ZM85.4787 36.7157L86.8392 34.5152L86.499 34.3049L85.1384 36.5053L85.4787 36.7157ZM85.1085 25.6012V36.6105H85.5085V25.6012H85.1085ZM70.8331 25.8012H85.3085V25.4012H70.8331V25.8012ZM71.0331 76.3094V25.6012H70.6331V76.3094H71.0331ZM85.3085 76.1094H70.8331V76.5094H85.3085V76.1094ZM85.1085 52.5514V76.3094H85.5085V52.5514H85.1085ZM88.5718 42.9119C86.2585 44.8484 85.1085 48.1663 85.1085 52.5514H85.5085C85.5085 48.2233 86.6444 45.047 88.8286 43.2186L88.5718 42.9119ZM98.202 40.0836C94.0796 40.0836 90.8127 40.9731 88.5693 42.914L88.8311 43.2165C90.9724 41.3639 94.1282 40.4836 98.202 40.4836V40.0836ZM103.354 40.084L98.202 40.0836L98.202 40.4836L103.354 40.484L103.354 40.084ZM103.554 41.7378V40.284H103.154V41.7378H103.554ZM98.202 41.9378H103.354V41.5378H98.202V41.9378ZM89.7934 44.315C91.5602 42.7842 94.307 41.9378 98.202 41.9378V41.5378C94.2582 41.5378 91.4002 42.3935 89.5315 44.0127L89.7934 44.315ZM89.7835 44.3236L89.7934 44.315L89.5315 44.0127L89.5215 44.0213L89.7835 44.3236ZM86.9772 52.5514C86.9772 48.3786 88.087 45.7411 89.7807 44.3259L89.5243 44.019C87.7022 45.5413 86.5772 48.3193 86.5772 52.5514H86.9772ZM86.9772 77.7636V52.5514H86.5772V77.7636H86.9772ZM69.3645 77.9636H86.7772V77.5636H69.3645V77.9636ZM69.1645 24.147V77.7636H69.5645V24.147H69.1645ZM86.7772 23.947H69.3645V24.347H86.7772V23.947ZM86.9772 31.6652V24.147H86.5772V31.6652H86.9772ZM92.7263 26.0771C90.4329 27.4904 88.3102 29.3149 86.6179 31.5443L86.9365 31.7861C88.5952 29.6011 90.6791 27.8085 92.9362 26.4176L92.7263 26.0771ZM99.446 23.5004C97.0761 23.9016 94.8338 24.7619 92.7254 26.0777L92.9372 26.417C95.0029 25.1279 97.1961 24.287 99.5128 23.8948L99.446 23.5004ZM97.5779 20.8905L99.3075 23.7998L99.6513 23.5954L97.9217 20.6861L97.5779 20.8905ZM105.226 23.4332L97.8213 20.6015L97.6784 20.9751L105.083 23.8068L105.226 23.4332ZM99.1002 28.7101L105.279 23.7763L105.029 23.4637L98.8506 28.3975L99.1002 28.7101ZM99.5015 25.0948L98.7797 28.5124L99.1711 28.5951L99.8929 25.1774L99.5015 25.0948ZM172.203 24.5759H173.653V24.1759H172.203V24.5759ZM172.403 77.7636V24.3759H172.003V77.7636H172.403ZM189.616 77.5636H172.203V77.9636H189.616V77.5636ZM189.416 28.557V77.7636H189.816V28.557H189.416ZM192.993 29.6066L189.686 28.3697L189.546 28.7444L192.853 29.9813L192.993 29.6066ZM188.781 23.088L192.75 29.8947L193.096 29.6932L189.127 22.8865L188.781 23.088ZM188.317 24.4766L189.127 23.088L188.781 22.8865L187.972 24.2752L188.317 24.4766ZM188.137 24.5759H188.145V24.1759H188.137V24.5759ZM188.337 24.3884V24.3759H187.937V24.3884H188.337ZM185.158 29.8947L188.31 24.4891L187.965 24.2876L184.813 29.6932L185.158 29.8947ZM188.075 28.3679L184.913 29.6078L185.059 29.9801L188.221 28.7403L188.075 28.3679ZM188.348 76.3094V28.5541H187.948V76.3094H188.348ZM173.671 76.5094H188.148V76.1094H173.671V76.5094ZM173.471 26.6137V76.3094H173.871V26.6137H173.471ZM173.653 26.8137H173.671V26.4137H173.653V26.8137ZM173.453 24.3759V26.6137H173.853V24.3759H173.453ZM29.5556 37.2989C26.1049 37.2989 23.1388 38.5499 20.7094 41.0224L20.9948 41.3027C23.3496 38.9062 26.213 37.6989 29.5556 37.6989V37.2989ZM38.3133 41.028C35.9439 38.5496 33.0053 37.2989 29.5556 37.2989V37.6989C32.8969 37.6989 35.7308 38.9055 38.0242 41.3044L38.3133 41.028ZM41.9568 51.0697C41.9568 46.9199 40.7734 43.5338 38.3114 41.0261L38.026 41.3063C40.3981 43.7226 41.5568 46.9987 41.5568 51.0697H41.9568ZM38.3114 61.1134C40.7734 58.6056 41.9568 55.2196 41.9568 51.0697H41.5568C41.5568 55.1408 40.3981 58.4169 38.026 60.8331L38.3114 61.1134ZM29.5556 64.8406C33.0053 64.8406 35.9439 63.5899 38.3133 61.1114L38.0242 60.835C35.7308 63.234 32.8969 64.4406 29.5556 64.4406V64.8406ZM20.7094 61.1171C23.1388 63.5896 26.1049 64.8406 29.5556 64.8406V64.4406C26.213 64.4406 23.3496 63.2333 20.9948 60.8368L20.7094 61.1171ZM20.6954 61.1028L20.7094 61.1171L20.9948 60.8368L20.9807 60.8225L20.6954 61.1028ZM17.1544 50.9767C17.1544 55.1227 18.3036 58.5315 20.6916 61.0989L20.9845 60.8265C18.6805 58.3495 17.5544 55.0465 17.5544 50.9767H17.1544ZM20.7094 41.0224C18.3032 43.4731 17.1544 46.8331 17.1544 50.9767H17.5544C17.5544 46.9083 18.6805 43.6598 20.9948 41.3027L20.7094 41.0224ZM19.023 50.9767C19.023 47.1783 20.0675 44.3333 22.0476 42.3166L21.7622 42.0363C19.6903 44.1465 18.623 47.1029 18.623 50.9767H19.023ZM22.0583 59.8339C20.0644 57.6864 19.023 54.7684 19.023 50.9767H18.623C18.623 54.8447 19.6875 57.8683 21.7652 60.1061L22.0583 59.8339ZM29.5556 62.9864C26.6182 62.9864 24.135 61.944 22.0543 59.8297L21.7692 60.1103C23.9245 62.3004 26.5102 63.3864 29.5556 63.3864V62.9864ZM36.9607 59.8321C34.9445 61.9426 32.4955 62.9864 29.5556 62.9864V63.3864C32.604 63.3864 35.1577 62.2985 37.25 60.1084L36.9607 59.8321ZM36.9678 59.8247L36.9607 59.8321L37.25 60.1083L37.2571 60.1009L36.9678 59.8247ZM40.0882 51.0697C40.0882 54.8597 39.017 57.7391 36.9698 59.8226L37.2551 60.103C39.3921 57.9281 40.4882 54.9388 40.4882 51.0697H40.0882ZM36.9698 42.3168C39.017 44.4003 40.0882 47.2797 40.0882 51.0697H40.4882C40.4882 47.2007 39.3922 44.2114 37.2552 42.0365L36.9698 42.3168ZM36.9626 42.3095L36.9698 42.3168L37.2552 42.0365L37.248 42.0292L36.9626 42.3095ZM29.5556 39.1531C32.4955 39.1531 34.9445 40.1969 36.9607 42.3075L37.2499 42.0312C35.1577 39.841 32.604 38.7531 29.5556 38.7531V39.1531ZM22.0475 42.3166C24.1296 40.1977 26.615 39.1531 29.5556 39.1531V38.7531C26.5069 38.7531 23.9189 39.8415 21.7622 42.0363L22.0475 42.3166Z" fill="black" mask="url(#path-1-outside-1)"/>
</svg>
