<?xml version="1.0" encoding="UTF-8" standalone="no"?><svg xmlns="http://www.w3.org/2000/svg" xmlns:xlink="http://www.w3.org/1999/xlink" contentScriptType="application/ecmascript" contentStyleType="text/css" height="377px" preserveAspectRatio="none" style="width:767px;height:377px;" version="1.1" viewBox="0 0 767 377" width="767px" zoomAndPan="magnify"><defs/><g><!--cluster Dependencies--><path d="M24,282 L120,282 A3,3 0 0 1 122,284 L129,302.4844 L642,302.4844 A2,2 0 0 1 644,304.4844 L644,363 A2,2 0 0 1 642,365 L24,365 A2,2 0 0 1 22,363 L22,284 A2,2 0 0 1 24,282 " fill="#FFFFFF" style="stroke: #000000; stroke-width: 1.5;"/><line style="stroke: #000000; stroke-width: 1.5;" x1="22" x2="129" y1="302.4844" y2="302.4844"/><text fill="#000000" font-family="Tahoma, sans-serif" font-size="12" font-weight="bold" lengthAdjust="spacingAndGlyphs" textLength="94" x="26" y="296.0059">Dependencies</text><!--entity nanomatch--><rect fill="#F8F8F8" height="34.4844" rx="2" ry="2" style="stroke: #383838; stroke-width: 1.0;" width="85" x="481.5" y="315"/><rect fill="#F8F8F8" height="5" style="stroke: #383838; stroke-width: 1.0;" width="10" x="476.5" y="320"/><rect fill="#F8F8F8" height="5" style="stroke: #383838; stroke-width: 1.0;" width="10" x="476.5" y="339.4844"/><text fill="#000000" font-family="Tahoma, sans-serif" font-size="12" lengthAdjust="spacingAndGlyphs" textLength="65" x="491.5" y="337.0059">nanomatch</text><!--entity pino--><rect fill="#F8F8F8" height="34.4844" rx="2" ry="2" style="stroke: #383838; stroke-width: 1.0;" width="45" x="582.5" y="315"/><rect fill="#F8F8F8" height="5" style="stroke: #383838; stroke-width: 1.0;" width="10" x="577.5" y="320"/><rect fill="#F8F8F8" height="5" style="stroke: #383838; stroke-width: 1.0;" width="10" x="577.5" y="339.4844"/><text fill="#000000" font-family="Tahoma, sans-serif" font-size="12" lengthAdjust="spacingAndGlyphs" textLength="25" x="592.5" y="337.0059">pino</text><!--entity progress--><rect fill="#F8F8F8" height="34.4844" rx="2" ry="2" style="stroke: #383838; stroke-width: 1.0;" width="71" x="184.5" y="315"/><rect fill="#F8F8F8" height="5" style="stroke: #383838; stroke-width: 1.0;" width="10" x="179.5" y="320"/><rect fill="#F8F8F8" height="5" style="stroke: #383838; stroke-width: 1.0;" width="10" x="179.5" y="339.4844"/><text fill="#000000" font-family="Tahoma, sans-serif" font-size="12" lengthAdjust="spacingAndGlyphs" textLength="51" x="194.5" y="337.0059">progress</text><!--entity resolve--><rect fill="#F8F8F8" height="34.4844" rx="2" ry="2" style="stroke: #383838; stroke-width: 1.0;" width="62" x="106" y="315"/><rect fill="#F8F8F8" height="5" style="stroke: #383838; stroke-width: 1.0;" width="10" x="101" y="320"/><rect fill="#F8F8F8" height="5" style="stroke: #383838; stroke-width: 1.0;" width="10" x="101" y="339.4844"/><text fill="#000000" font-family="Tahoma, sans-serif" font-size="12" lengthAdjust="spacingAndGlyphs" textLength="42" x="116" y="337.0059">resolve</text><!--entity ts-morph--><rect fill="#F8F8F8" height="34.4844" rx="2" ry="2" style="stroke: #383838; stroke-width: 1.0;" width="73" x="271.5" y="315"/><rect fill="#F8F8F8" height="5" style="stroke: #383838; stroke-width: 1.0;" width="10" x="266.5" y="320"/><rect fill="#F8F8F8" height="5" style="stroke: #383838; stroke-width: 1.0;" width="10" x="266.5" y="339.4844"/><text fill="#000000" font-family="Tahoma, sans-serif" font-size="12" lengthAdjust="spacingAndGlyphs" textLength="53" x="281.5" y="337.0059">ts-morph</text><!--entity tsconfig-paths--><rect fill="#F8F8F8" height="34.4844" rx="2" ry="2" style="stroke: #383838; stroke-width: 1.0;" width="104" x="361" y="315"/><rect fill="#F8F8F8" height="5" style="stroke: #383838; stroke-width: 1.0;" width="10" x="356" y="320"/><rect fill="#F8F8F8" height="5" style="stroke: #383838; stroke-width: 1.0;" width="10" x="356" y="339.4844"/><text fill="#000000" font-family="Tahoma, sans-serif" font-size="12" lengthAdjust="spacingAndGlyphs" textLength="84" x="371" y="337.0059">tsconfig-paths</text><!--entity yargs--><rect fill="#F8F8F8" height="34.4844" rx="2" ry="2" style="stroke: #383838; stroke-width: 1.0;" width="51" x="38.5" y="315"/><rect fill="#F8F8F8" height="5" style="stroke: #383838; stroke-width: 1.0;" width="10" x="33.5" y="320"/><rect fill="#F8F8F8" height="5" style="stroke: #383838; stroke-width: 1.0;" width="10" x="33.5" y="339.4844"/><text fill="#000000" font-family="Tahoma, sans-serif" font-size="12" lengthAdjust="spacingAndGlyphs" textLength="31" x="48.5" y="337.0059">yargs</text><ellipse cx="271.0061" cy="56.242" fill="#F8F8F8" rx="23.5061" ry="13.242" style="stroke: #383838; stroke-width: 0.5;"/><text fill="#000000" font-family="Tahoma, sans-serif" font-size="12" font-weight="bold" lengthAdjust="spacingAndGlyphs" textLength="29" x="256.5061" y="59.9842">arkit</text><ellipse cx="186.1446" cy="181.9157" fill="#F8F8F8" rx="14.1446" ry="11.9157" style="stroke: #383838; stroke-width: 0.5;"/><text fill="#000000" font-family="Tahoma, sans-serif" font-size="12" lengthAdjust="spacingAndGlyphs" textLength="13" x="179.6446" y="185.6579">cli</text><!--entity _config--><rect fill="#F8F8F8" height="34.4844" rx="2" ry="2" style="stroke: #000000; stroke-width: 0.5;" width="56" x="383" y="39"/><text fill="#000000" font-family="Tahoma, sans-serif" font-size="12" lengthAdjust="spacingAndGlyphs" textLength="36" x="393" y="61.0059">config</text><!--entity _converter--><rect fill="#F8F8F8" height="34.4844" rx="2" ry="2" style="stroke: #000000; stroke-width: 0.5;" width="74" x="611" y="39"/><text fill="#000000" font-family="Tahoma, sans-serif" font-size="12" lengthAdjust="spacingAndGlyphs" textLength="54" x="621" y="61.0059">converter</text><!--entity _generator--><rect fill="#F8F8F8" height="34.4844" rx="2" ry="2" style="stroke: #000000; stroke-width: 0.5;" width="75" x="455.5" y="39"/><text fill="#000000" font-family="Tahoma, sans-serif" font-size="12" lengthAdjust="spacingAndGlyphs" textLength="55" x="465.5" y="61.0059">generator</text><ellipse cx="729.2487" cy="56.242" fill="#F8F8F8" rx="27.7487" ry="13.242" style="stroke: #383838; stroke-width: 0.5;"/><text fill="#000000" font-family="Tahoma, sans-serif" font-size="12" font-weight="bold" lengthAdjust="spacingAndGlyphs" textLength="35" x="711.7487" y="59.9842">index</text><ellipse cx="669.9558" cy="182.242" fill="#F8F8F8" rx="28.4558" ry="13.242" style="stroke: #383838; stroke-width: 0.5;"/><text fill="#000000" font-family="Tahoma, sans-serif" font-size="12" lengthAdjust="spacingAndGlyphs" textLength="36" x="651.9558" y="185.9842">logger</text><!--entity _parser--><rect fill="#F8F8F8" height="34.4844" rx="2" ry="2" style="stroke: #000000; stroke-width: 0.5;" width="56" x="311" y="39"/><text fill="#000000" font-family="Tahoma, sans-serif" font-size="12" lengthAdjust="spacingAndGlyphs" textLength="36" x="321" y="61.0059">parser</text><!--entity _puml--><rect fill="#F8F8F8" height="34.4844" rx="2" ry="2" style="stroke: #000000; stroke-width: 0.5;" width="48" x="547" y="39"/><text fill="#000000" font-family="Tahoma, sans-serif" font-size="12" lengthAdjust="spacingAndGlyphs" textLength="28" x="557" y="61.0059">puml</text><!--entity _schema--><rect fill="#F8F8F8" height="34.4844" rx="2" ry="2" style="stroke: #000000; stroke-width: 0.5;" width="66" x="531" y="232"/><text fill="#000000" font-family="Tahoma, sans-serif" font-size="12" lengthAdjust="spacingAndGlyphs" textLength="46" x="541" y="254.0059">schema</text><!--entity _types--><rect fill="#F8F8F8" height="34.4844" rx="2" ry="2" style="stroke: #000000; stroke-width: 0.5;" width="51" x="496.5" y="165"/><text fill="#000000" font-family="Tahoma, sans-serif" font-size="12" lengthAdjust="spacingAndGlyphs" textLength="31" x="506.5" y="187.0059">types</text><ellipse cx="473.9706" cy="119.242" fill="#F8F8F8" rx="19.9706" ry="13.242" style="stroke: #383838; stroke-width: 0.5;"/><text fill="#000000" font-family="Tahoma, sans-serif" font-size="12" lengthAdjust="spacingAndGlyphs" textLength="24" x="461.9706" y="122.9842">utils</text><!--link <b>arkit</b> to cli--><path d="M255.925,66.11 C242.654,74.835 223.675,89.143 212,106 C199.452,124.118 192.435,148.868 188.935,164.893 " fill="none" id="&lt;b&gt;arkit&lt;/b&gt;-cli" style="stroke: #000000; stroke-width: 1.0;"/><polygon fill="#000000" points="187.881,169.971,193.6281,161.9728,188.8981,165.0755,185.7954,160.3455,187.881,169.971" style="stroke: #000000; stroke-width: 1.0;"/><!--link <b>arkit</b> to _config--><path d="M281.173,43.93 C288.546,36.171 299.252,26.77 311,22.5 C334.392,13.998 343.417,14.544 367,22.5 C375.136,25.245 382.958,30.161 389.692,35.395 " fill="none" id="&lt;b&gt;arkit&lt;/b&gt;-_config" style="stroke: #000000; stroke-width: 1.0;"/><polygon fill="#000000" points="393.737,38.68,389.2697,29.9026,389.8548,35.5291,384.2283,36.1141,393.737,38.68" style="stroke: #000000; stroke-width: 1.0;"/><!--link <b>arkit</b> to _converter--><path d="M281.173,43.93 C288.546,36.171 299.252,26.77 311,22.5 C370.315,0.943 534.379,4.948 595,22.5 C604.704,25.31 614.339,30.486 622.678,35.942 " fill="none" id="&lt;b&gt;arkit&lt;/b&gt;-_converter" style="stroke: #000000; stroke-width: 1.0;"/><polygon fill="#000000" points="627.17,38.99,621.9651,30.6288,623.0314,36.1843,617.476,37.2506,627.17,38.99" style="stroke: #000000; stroke-width: 1.0;"/><!--link <b>arkit</b> to _generator--><path d="M281.173,43.93 C288.546,36.171 299.252,26.77 311,22.5 C364.467,3.068 384.29,6.908 439,22.5 C448.847,25.306 458.652,30.481 467.151,35.938 " fill="none" id="&lt;b&gt;arkit&lt;/b&gt;-_generator" style="stroke: #000000; stroke-width: 1.0;"/><polygon fill="#000000" points="471.73,38.986,466.4564,30.668,467.5684,36.2145,462.022,37.3265,471.73,38.986" style="stroke: #000000; stroke-width: 1.0;"/><!--link <b>arkit</b> to _parser--><path d="M294.641,56 C298.373,56 302.106,56 305.839,56 " fill="none" id="&lt;b&gt;arkit&lt;/b&gt;-_parser" style="stroke: #000000; stroke-width: 1.0;"/><polygon fill="#000000" points="310.929,56,301.929,52,305.929,56,301.929,60,310.929,56" style="stroke: #000000; stroke-width: 1.0;"/><!--link <b>arkit</b> to progress--><path d="M253.763,65.099 C237.318,73.498 212.652,87.928 196,106 C175.786,127.938 171.336,136.085 164,165 C150.454,218.388 184.096,279.311 204.943,310.3929 " fill="none" id="&lt;b&gt;arkit&lt;/b&gt;-progress" style="stroke: #000000; stroke-width: 1.0;"/><polygon fill="#000000" points="207.919,314.7578,206.1544,305.0683,205.1025,310.6265,199.5443,309.5747,207.919,314.7578" style="stroke: #000000; stroke-width: 1.0;"/><!--link <b>arkit</b> to _puml--><path d="M281.173,43.93 C288.546,36.171 299.252,26.77 311,22.5 C356.948,5.801 485.052,5.801 531,22.5 C538.47,25.215 545.519,30.005 551.558,35.128 " fill="none" id="&lt;b&gt;arkit&lt;/b&gt;-_puml" style="stroke: #000000; stroke-width: 1.0;"/><polygon fill="#000000" points="555.57,38.707,551.5146,29.7318,551.8381,35.3794,546.1905,35.7029,555.57,38.707" style="stroke: #000000; stroke-width: 1.0;"/><!--link <b>arkit</b> to _types--><path d="M284.252,66.759 C305.524,82.111 348.97,112.188 389,132 C422.842,148.749 463.899,163.025 491.363,171.774 " fill="none" id="&lt;b&gt;arkit&lt;/b&gt;-_types" style="stroke: #000000; stroke-width: 1.0;"/><polygon fill="#000000" points="496.328,173.343,488.9519,166.8167,491.5605,171.8362,486.541,174.4448,496.328,173.343" style="stroke: #000000; stroke-width: 1.0;"/><!--link <b>arkit</b> to utils--><path d="M286.989,65.804 C292.016,68.351 297.653,70.984 303,73 C353.988,92.22 416.48,106.422 450.009,113.323 " fill="none" id="&lt;b&gt;arkit&lt;/b&gt;-utils" style="stroke: #000000; stroke-width: 1.0;"/><polygon fill="#000000" points="455.136,114.368,447.1163,108.6509,450.2368,113.3693,445.5184,116.4897,455.136,114.368" style="stroke: #000000; stroke-width: 1.0;"/><!--link cli to yargs--><path d="M176.795,191.174 C159.941,206.417 123.512,240.665 98,274 C89.2988,285.3693 81.0346,299.1296 74.833,310.2818 " fill="none" id="cli-yargs" style="stroke: #000000; stroke-width: 0.55;"/><polygon fill="#000000" points="72.3061,314.8871,80.1423,308.921,74.7113,310.5036,73.1287,305.0727,72.3061,314.8871" style="stroke: #000000; stroke-width: 0.55;"/><!--link _config to _types--><path d="M415.599,73.118 C420.869,89.398 430.792,114.568 446,132 C458.627,146.473 476.543,158.304 491.808,166.712 " fill="none" id="_config-_types" style="stroke: #000000; stroke-width: 0.55;"/><polygon fill="#000000" points="496.452,169.211,490.4211,161.4246,492.0487,166.8422,486.6311,168.4698,496.452,169.211" style="stroke: #000000; stroke-width: 0.55;"/><!--link _config to utils--><path d="M427.553,73.027 C437.594,82.75 450.274,95.027 459.847,104.296 " fill="none" id="_config-utils" style="stroke: #000000; stroke-width: 0.55;"/><polygon fill="#000000" points="463.482,107.816,459.7984,98.6819,459.8898,104.3381,454.2337,104.4295,463.482,107.816" style="stroke: #000000; stroke-width: 0.55;"/><!--link _converter to logger--><path d="M650.876,73.211 C655.034,96.647 662.691,139.806 666.946,163.789 " fill="none" id="_converter-logger" style="stroke: #000000; stroke-width: 0.55;"/><polygon fill="#000000" points="667.85,168.885,670.2173,159.3249,666.9771,163.9618,662.3402,160.7216,667.85,168.885" style="stroke: #000000; stroke-width: 0.55;"/><!--link _converter to _types--><path d="M631.528,73.211 C608.606,95.769 567.119,136.598 542.309,161.013 " fill="none" id="_converter-_types" style="stroke: #000000; stroke-width: 0.55;"/><polygon fill="#000000" points="538.476,164.785,547.696,161.322,542.0393,161.2774,542.0839,155.6208,538.476,164.785" style="stroke: #000000; stroke-width: 0.55;"/><!--link _converter to utils--><path d="M610.682,70.288 C608.083,71.208 605.503,72.119 603,73 C565.456,86.223 521.702,101.447 496.012,110.366 " fill="none" id="_converter-utils" style="stroke: #000000; stroke-width: 0.55;"/><polygon fill="#000000" points="491.122,112.064,500.9361,112.8904,495.8453,110.4238,498.3119,105.333,491.122,112.064" style="stroke: #000000; stroke-width: 0.55;"/><!--link _generator to _types--><path d="M496.791,73.211 C501.98,95.397 511.302,135.258 517.041,159.794 " fill="none" id="_generator-_types" style="stroke: #000000; stroke-width: 0.55;"/><polygon fill="#000000" points="518.208,164.785,520.0535,155.1106,517.0694,159.9164,512.2636,156.9323,518.208,164.785" style="stroke: #000000; stroke-width: 0.55;"/><!--link _generator to utils--><path d="M488.008,73.027 C485.349,81.563 482.077,92.067 479.364,100.777 " fill="none" id="_generator-utils" style="stroke: #000000; stroke-width: 0.55;"/><polygon fill="#000000" points="477.758,105.935,484.2536,98.5318,479.245,101.1612,476.6156,96.1526,477.758,105.935" style="stroke: #000000; stroke-width: 0.55;"/><!--link logger to pino--><path d="M664.791,194.861 C653.81,219.864 628.161,278.265 614.294,309.8392 " fill="none" id="logger-pino" style="stroke: #000000; stroke-width: 0.55;"/><polygon fill="#000000" points="612.173,314.6671,619.4548,308.0357,614.1839,310.0893,612.1303,304.8183,612.173,314.6671" style="stroke: #000000; stroke-width: 0.55;"/><!--link _parser to progress--><path d="M344.601,73.111 C349.104,88.513 353.805,112.246 348,132 C336.552,170.961 266.44,268.437 235.106,310.8066 " fill="none" id="_parser-progress" style="stroke: #000000; stroke-width: 0.55;"/><polygon fill="#000000" points="232.019,314.9723,240.5914,310.1232,234.9961,310.9552,234.1641,305.3599,232.019,314.9723" style="stroke: #000000; stroke-width: 0.55;"/><!--link _parser to resolve--><path d="M326.483,73.151 C298.829,108.944 230.644,197.804 176,274 C167.364,286.0428 157.976,299.7431 150.576,310.6936 " fill="none" id="_parser-resolve" style="stroke: #000000; stroke-width: 0.55;"/><polygon fill="#000000" points="147.74,314.8987,156.0882,309.6731,150.5355,310.7532,149.4554,305.2004,147.74,314.8987" style="stroke: #000000; stroke-width: 0.55;"/><!--link _parser to ts-morph--><path d="M328.503,73.053 C323.071,82.286 316.968,94.339 314,106 C295.46,178.846 301.395,269.258 305.491,309.7063 " fill="none" id="_parser-ts-morph" style="stroke: #000000; stroke-width: 0.55;"/><polygon fill="#000000" points="306.029,314.8462,309.0697,305.4785,305.5081,309.8734,301.1132,306.3118,306.029,314.8462" style="stroke: #000000; stroke-width: 0.55;"/><!--link _parser to tsconfig-paths--><path d="M340.025,73.247 C341.208,88.543 343.584,112.024 348,132 C362.656,198.296 390.535,273.805 404.535,309.7778 " fill="none" id="_parser-tsconfig-paths" style="stroke: #000000; stroke-width: 0.55;"/><polygon fill="#000000" points="406.496,314.7925,406.9421,304.9537,404.6743,310.1362,399.4919,307.8684,406.496,314.7925" style="stroke: #000000; stroke-width: 0.55;"/><!--link _parser to _types--><path d="M355.118,73.263 C371.685,89.428 398.705,114.3 425,132 C446.066,146.18 471.793,158.994 491.458,167.959 " fill="none" id="_parser-_types" style="stroke: #000000; stroke-width: 0.55;"/><polygon fill="#000000" points="496.32,170.154,489.7628,162.8053,491.7628,168.0968,486.4713,170.0969,496.32,170.154" style="stroke: #000000; stroke-width: 0.55;"/><!--link _parser to utils--><path d="M367.3,69.788 C392.997,81.399 430.294,98.251 453.302,108.648 " fill="none" id="_parser-utils" style="stroke: #000000; stroke-width: 0.55;"/><polygon fill="#000000" points="457.986,110.764,451.4307,103.4136,453.4293,108.7056,448.1373,110.7043,457.986,110.764" style="stroke: #000000; stroke-width: 0.55;"/><!--link _puml to _schema--><path d="M570.403,73.285 C569.143,107.678 566.209,187.726 564.793,226.366 " fill="none" id="_puml-_schema" style="stroke: #000000; stroke-width: 0.55;"/><polygon fill="#000000" points="564.595,231.757,568.9215,222.9093,564.7779,226.7603,560.9269,222.6167,564.595,231.757" style="stroke: #000000; stroke-width: 0.55;"/><!--link _puml to _types--><path d="M564.594,73.211 C555.79,95.49 539.943,135.592 530.258,160.101 " fill="none" id="_puml-_types" style="stroke: #000000; stroke-width: 0.55;"/><polygon fill="#000000" points="528.407,164.785,535.4342,157.8844,530.2442,160.1348,527.9938,154.9448,528.407,164.785" style="stroke: #000000; stroke-width: 0.55;"/><!--link _puml to utils--><path d="M546.523,72.393 C529.637,83.012 507.552,96.9 492.211,106.548 " fill="none" id="_puml-utils" style="stroke: #000000; stroke-width: 0.55;"/><polygon fill="#000000" points="487.679,109.398,497.4272,107.9937,491.9118,106.7366,493.169,101.2212,487.679,109.398" style="stroke: #000000; stroke-width: 0.55;"/><!--link _types to _schema--><path d="M532.382,199.067 C537.893,207.597 544.728,218.175 550.632,227.312 " fill="none" id="_types-_schema" style="stroke: #000000; stroke-width: 0.55;"/><polygon fill="#000000" points="553.446,231.666,551.9228,221.9356,550.7331,227.466,545.2028,226.2762,553.446,231.666" style="stroke: #000000; stroke-width: 0.55;"/><!--link utils to logger--><path d="M491.739,125.521 C526.059,136.202 601.749,159.759 642.59,172.469 " fill="none" id="utils-logger" style="stroke: #000000; stroke-width: 0.55;"/><polygon fill="#000000" points="647.393,173.964,639.988,167.4704,642.6188,172.4783,637.6109,175.1091,647.393,173.964" style="stroke: #000000; stroke-width: 0.55;"/><!--link utils to nanomatch--><path d="M476.02,132.101 C478.68,147.651 483.649,175.449 489,199 C497.963,238.447 510.526,283.9491 517.909,309.9111 " fill="none" id="utils-nanomatch" style="stroke: #000000; stroke-width: 0.55;"/><polygon fill="#000000" points="519.314,314.8354,520.6914,305.0833,517.9423,310.0272,512.9983,307.2781,519.314,314.8354" style="stroke: #000000; stroke-width: 0.55;"/><!--link utils to _types--><path d="M482.581,130.906 C489.094,139.182 498.232,150.795 506.071,160.757 " fill="none" id="utils-_types" style="stroke: #000000; stroke-width: 0.55;"/><polygon fill="#000000" points="509.34,164.911,506.9195,155.3642,506.2487,160.9811,500.6317,160.3103,509.34,164.911" style="stroke: #000000; stroke-width: 0.55;"/><script type="text/plantuml"><![CDATA[
@startuml

scale max 1920 width
top to bottom direction

skinparam nodesep 16
skinparam ranksep 33
skinparam monochrome true
skinparam shadowing false
skinparam defaultFontName Tahoma
skinparam defaultFontSize 12
skinparam roundCorner 4
skinparam dpi 150
skinparam arrowColor black
skinparam arrowThickness 0.55
skinparam packageTitleAlignment left

skinparam usecase {
  borderThickness 0.5
}

skinparam rectangle {
  borderThickness 0.5
}

skinparam component {
  borderThickness 1
}


(<b>arkit</b>)
(cli)
rectangle "config" as _config
rectangle "converter" as _converter
rectangle "generator" as _generator
(<b>index</b>)
(logger)
rectangle "parser" as _parser
rectangle "puml" as _puml
rectangle "schema" as _schema
rectangle "types" as _types
(utils)

package "Dependencies" {
  [nanomatch]
  [pino]
  [progress]
  [resolve]
  [ts-morph]
  [tsconfig-paths]
  [yargs]
}

(<b>arkit</b>) -[thickness=1]> (cli)
(<b>arkit</b>) -[thickness=1]> _config
(<b>arkit</b>) -[thickness=1]> _converter
(<b>arkit</b>) -[thickness=1]> _generator
(<b>arkit</b>) -[thickness=1]> _parser
(<b>arkit</b>) ---[thickness=1]> [progress]
(<b>arkit</b>) -[thickness=1]> _puml
(<b>arkit</b>) -[thickness=1]> _types
(<b>arkit</b>) -[thickness=1]> (utils)
(cli) ---> [yargs]
_config --> _types
_config --> (utils)
_converter --> (logger)
_converter --> _types
_converter --> (utils)
_generator --> _types
_generator --> (utils)
(logger) ---> [pino]
_parser ---> [progress]
_parser ---> [resolve]
_parser ---> [ts-morph]
_parser ---> [tsconfig-paths]
_parser --> _types
_parser --> (utils)
_puml --> _schema
_puml --> _types
_puml --> (utils)
_types --> _schema
(utils) --> (logger)
(utils) ---> [nanomatch]
(utils) --> _types

@enduml


' View and edit on https://arkit.herokuapp.com
]]></script></g></svg>