<?xml version="1.0" encoding="UTF-8" standalone="no"?><svg xmlns="http://www.w3.org/2000/svg" xmlns:xlink="http://www.w3.org/1999/xlink" contentScriptType="application/ecmascript" contentStyleType="text/css" height="358px" preserveAspectRatio="none" style="width:732px;height:358px;" version="1.1" viewBox="0 0 732 358" width="732px" zoomAndPan="magnify"><defs/><g><!--cluster Dependencies--><path d="M16,279 L102,279 A3,3 0 0 1 104,281 L111,299.4844 L612,299.4844 A2,2 0 0 1 614,301.4844 L614,344 A2,2 0 0 1 612,346 L16,346 A2,2 0 0 1 14,344 L14,281 A2,2 0 0 1 16,279 " fill="#FFFFFF" style="stroke: #000000; stroke-width: 1.5;"/><line style="stroke: #000000; stroke-width: 1.5;" x1="14" x2="111" y1="299.4844" y2="299.4844"/><text fill="#000000" font-family="Tahoma, sans-serif" font-size="12" font-weight="bold" lengthAdjust="spacingAndGlyphs" textLength="84" x="18" y="293.0059">Dependencies</text><!--entity nanomatch--><rect fill="#F8F8F8" height="34.4844" rx="2" ry="2" style="stroke: #383838; stroke-width: 1.0;" width="81" x="374.5" y="304"/><rect fill="#F8F8F8" height="5" style="stroke: #383838; stroke-width: 1.0;" width="10" x="369.5" y="309"/><rect fill="#F8F8F8" height="5" style="stroke: #383838; stroke-width: 1.0;" width="10" x="369.5" y="328.4844"/><text fill="#000000" font-family="Tahoma, sans-serif" font-size="12" lengthAdjust="spacingAndGlyphs" textLength="61" x="384.5" y="326.0059">nanomatch</text><!--entity pino--><rect fill="#F8F8F8" height="34.4844" rx="2" ry="2" style="stroke: #383838; stroke-width: 1.0;" width="43" x="562.5" y="304"/><rect fill="#F8F8F8" height="5" style="stroke: #383838; stroke-width: 1.0;" width="10" x="557.5" y="309"/><rect fill="#F8F8F8" height="5" style="stroke: #383838; stroke-width: 1.0;" width="10" x="557.5" y="328.4844"/><text fill="#000000" font-family="Tahoma, sans-serif" font-size="12" lengthAdjust="spacingAndGlyphs" textLength="23" x="572.5" y="326.0059">pino</text><!--entity progress--><rect fill="#F8F8F8" height="34.4844" rx="2" ry="2" style="stroke: #383838; stroke-width: 1.0;" width="66" x="476" y="304"/><rect fill="#F8F8F8" height="5" style="stroke: #383838; stroke-width: 1.0;" width="10" x="471" y="309"/><rect fill="#F8F8F8" height="5" style="stroke: #383838; stroke-width: 1.0;" width="10" x="471" y="328.4844"/><text fill="#000000" font-family="Tahoma, sans-serif" font-size="12" lengthAdjust="spacingAndGlyphs" textLength="46" x="486" y="326.0059">progress</text><!--entity resolve--><rect fill="#F8F8F8" height="34.4844" rx="2" ry="2" style="stroke: #383838; stroke-width: 1.0;" width="58" x="90" y="304"/><rect fill="#F8F8F8" height="5" style="stroke: #383838; stroke-width: 1.0;" width="10" x="85" y="309"/><rect fill="#F8F8F8" height="5" style="stroke: #383838; stroke-width: 1.0;" width="10" x="85" y="328.4844"/><text fill="#000000" font-family="Tahoma, sans-serif" font-size="12" lengthAdjust="spacingAndGlyphs" textLength="38" x="100" y="326.0059">resolve</text><!--entity ts-morph--><rect fill="#F8F8F8" height="34.4844" rx="2" ry="2" style="stroke: #383838; stroke-width: 1.0;" width="69" x="168.5" y="304"/><rect fill="#F8F8F8" height="5" style="stroke: #383838; stroke-width: 1.0;" width="10" x="163.5" y="309"/><rect fill="#F8F8F8" height="5" style="stroke: #383838; stroke-width: 1.0;" width="10" x="163.5" y="328.4844"/><text fill="#000000" font-family="Tahoma, sans-serif" font-size="12" lengthAdjust="spacingAndGlyphs" textLength="49" x="178.5" y="326.0059">ts-morph</text><!--entity tsconfig-paths--><rect fill="#F8F8F8" height="34.4844" rx="2" ry="2" style="stroke: #383838; stroke-width: 1.0;" width="97" x="257.5" y="304"/><rect fill="#F8F8F8" height="5" style="stroke: #383838; stroke-width: 1.0;" width="10" x="252.5" y="309"/><rect fill="#F8F8F8" height="5" style="stroke: #383838; stroke-width: 1.0;" width="10" x="252.5" y="328.4844"/><text fill="#000000" font-family="Tahoma, sans-serif" font-size="12" lengthAdjust="spacingAndGlyphs" textLength="77" x="267.5" y="326.0059">tsconfig-paths</text><!--entity yargs--><rect fill="#F8F8F8" height="34.4844" rx="2" ry="2" style="stroke: #383838; stroke-width: 1.0;" width="48" x="22" y="304"/><rect fill="#F8F8F8" height="5" style="stroke: #383838; stroke-width: 1.0;" width="10" x="17" y="309"/><rect fill="#F8F8F8" height="5" style="stroke: #383838; stroke-width: 1.0;" width="10" x="17" y="328.4844"/><text fill="#000000" font-family="Tahoma, sans-serif" font-size="12" lengthAdjust="spacingAndGlyphs" textLength="28" x="32" y="326.0059">yargs</text><ellipse cx="403.799" cy="25.242" fill="#F8F8F8" rx="22.799" ry="13.242" style="stroke: #383838; stroke-width: 0.6;"/><text fill="#000000" font-family="Tahoma, sans-serif" font-size="12" font-weight="bold" lengthAdjust="spacingAndGlyphs" textLength="28" x="389.799" y="28.9842">arkit</text><!--entity _config--><rect fill="#F8F8F8" height="34.4844" rx="2" ry="2" style="stroke: #000000; stroke-width: 0.6;" width="53" x="427.5" y="62"/><text fill="#000000" font-family="Tahoma, sans-serif" font-size="12" lengthAdjust="spacingAndGlyphs" textLength="33" x="437.5" y="84.0059">config</text><!--entity _generator--><rect fill="#F8F8F8" height="34.4844" rx="2" ry="2" style="stroke: #000000; stroke-width: 0.6;" width="74" x="558" y="8"/><text fill="#000000" font-family="Tahoma, sans-serif" font-size="12" lengthAdjust="spacingAndGlyphs" textLength="54" x="568" y="30.0059">generator</text><!--entity _generator_base--><rect fill="#F8F8F8" height="34.4844" rx="2" ry="2" style="stroke: #000000; stroke-width: 0.6;" width="103" x="543.5" y="62"/><text fill="#000000" font-family="Tahoma, sans-serif" font-size="12" lengthAdjust="spacingAndGlyphs" textLength="83" x="553.5" y="84.0059">generator.base</text><ellipse cx="678.8345" cy="25.242" fill="#F8F8F8" rx="26.3345" ry="13.242" style="stroke: #383838; stroke-width: 0.6;"/><text fill="#000000" font-family="Tahoma, sans-serif" font-size="12" font-weight="bold" lengthAdjust="spacingAndGlyphs" textLength="33" x="662.3345" y="28.9842">index</text><ellipse cx="459.0416" cy="179.242" fill="#F8F8F8" rx="27.0416" ry="13.242" style="stroke: #383838; stroke-width: 0.6;"/><text fill="#000000" font-family="Tahoma, sans-serif" font-size="12" lengthAdjust="spacingAndGlyphs" textLength="34" x="442.0416" y="182.9842">logger</text><!--entity _parser--><rect fill="#F8F8F8" height="34.4844" rx="2" ry="2" style="stroke: #000000; stroke-width: 0.6;" width="53" x="269.5" y="62"/><text fill="#000000" font-family="Tahoma, sans-serif" font-size="12" lengthAdjust="spacingAndGlyphs" textLength="33" x="279.5" y="84.0059">parser</text><!--entity _schema--><rect fill="#F8F8F8" height="34.4844" rx="2" ry="2" style="stroke: #000000; stroke-width: 0.6;" width="61" x="500.5" y="216"/><text fill="#000000" font-family="Tahoma, sans-serif" font-size="12" lengthAdjust="spacingAndGlyphs" textLength="41" x="510.5" y="238.0059">schema</text><!--entity _types--><rect fill="#F8F8F8" height="34.4844" rx="2" ry="2" style="stroke: #000000; stroke-width: 0.6;" width="50" x="506" y="162"/><text fill="#000000" font-family="Tahoma, sans-serif" font-size="12" lengthAdjust="spacingAndGlyphs" textLength="30" x="516" y="184.0059">types</text><ellipse cx="420.8492" cy="129.242" fill="#F8F8F8" rx="17.8492" ry="13.242" style="stroke: #383838; stroke-width: 0.6;"/><text fill="#000000" font-family="Tahoma, sans-serif" font-size="12" lengthAdjust="spacingAndGlyphs" textLength="21" x="410.3492" y="132.9842">utils</text><!--link <b>arkit</b> to _config--><path d="M414.8493,36.7172 C420.5684,42.8939 427.7608,50.6617 434.4154,57.8487 " fill="none" id="&lt;b&gt;arkit&lt;/b&gt;-_config" style="stroke: #383838; stroke-width: 1.0;"/><polygon fill="#383838" points="438.0444,61.7679,434.8647,52.4464,434.6473,58.0991,428.9947,57.8818,438.0444,61.7679" style="stroke: #383838; stroke-width: 1.0;"/><!--link <b>arkit</b> to _generator--><path d="M427.1289,25 C469.0326,25 510.9364,25 552.8401,25 " fill="none" id="&lt;b&gt;arkit&lt;/b&gt;-_generator" style="stroke: #383838; stroke-width: 1.0;"/><polygon fill="#383838" points="557.9503,25,548.9503,21,552.9503,25,548.9503,29,557.9503,25" style="stroke: #383838; stroke-width: 1.0;"/><!--link <b>arkit</b> to _parser--><path d="M386.6479,33.676 C370.707,41.6465 346.6985,53.6507 327.3937,63.3031 " fill="none" id="&lt;b&gt;arkit&lt;/b&gt;-_parser" style="stroke: #383838; stroke-width: 1.0;"/><polygon fill="#383838" points="322.5949,65.7026,332.4336,65.2553,327.067,63.4665,328.8558,58.0999,322.5949,65.7026" style="stroke: #383838; stroke-width: 1.0;"/><!--link <b>arkit</b> to _types--><path d="M426.2311,29.1248 C445.8009,33.8597 473.788,43.4891 491,62 C515.5646,88.4184 525.1153,130.5688 528.7784,156.4134 " fill="none" id="&lt;b&gt;arkit&lt;/b&gt;-_types" style="stroke: #383838; stroke-width: 1.0;"/><polygon fill="#383838" points="529.474,161.6693,532.2586,152.2223,528.818,156.7125,524.3278,153.2719,529.474,161.6693" style="stroke: #383838; stroke-width: 1.0;"/><!--link <b>arkit</b> to utils--><path d="M393.8366,36.777 C388.5943,43.6415 382.7375,52.7492 380,62 C375.7121,76.49 373.4743,82.3706 380,96 C384.528,105.4569 393.2345,113.0663 401.4637,118.5842 " fill="none" id="&lt;b&gt;arkit&lt;/b&gt;-utils" style="stroke: #383838; stroke-width: 1.0;"/><polygon fill="#383838" points="405.9569,121.4331,400.498,113.2355,401.7342,118.7557,396.2141,119.9919,405.9569,121.4331" style="stroke: #383838; stroke-width: 1.0;"/><!--link <b>arkit</b> to yargs--><path d="M381.1718,27.3888 C307.8365,35.6869 83,66.245 83,129 C83,129 83,129 83,233 C83,256.9354 71.2243,281.8717 60.9593,299.0619 " fill="none" id="&lt;b&gt;arkit&lt;/b&gt;-yargs" style="stroke: #383838; stroke-width: 1.0;"/><polygon fill="#383838" points="58.1152,303.6977,66.2311,298.1181,60.7299,299.4359,59.4122,293.9346,58.1152,303.6977" style="stroke: #383838; stroke-width: 1.0;"/><!--link _config to _types--><path d="M464.3093,96.1238 C472.389,109.113 484.2035,127.1961 496,142 C500.3033,147.4004 505.2381,152.9491 510.0187,158.0531 " fill="none" id="_config-_types" style="stroke: #383838; stroke-width: 0.6;"/><polygon fill="#383838" points="513.6314,161.8596,510.3372,152.578,510.1894,158.2329,504.5345,158.0851,513.6314,161.8596" style="stroke: #383838; stroke-width: 0.6;"/><!--link _config to utils--><path d="M442.6433,96.2072 C439.0893,101.592 435.1815,107.5128 431.6761,112.8241 " fill="none" id="_config-utils" style="stroke: #383838; stroke-width: 0.6;"/><polygon fill="#383838" points="428.8428,117.117,437.1387,111.8087,431.5969,112.9439,430.4617,107.4021,428.8428,117.117" style="stroke: #383838; stroke-width: 0.6;"/><!--link _generator to _generator_base--><path d="M595,42.0859 C595,46.715 595,51.7956 595,56.6671 " fill="none" id="_generator-_generator_base" style="stroke: #383838; stroke-width: 0.6;"/><polygon fill="#383838" points="595,61.8399,599,52.8399,595,56.8399,591,52.8399,595,61.8399" style="stroke: #383838; stroke-width: 0.6;"/><!--link _generator to progress--><path d="M632.1657,37.8435 C669.0123,53.2228 720,82.8434 720,129 C720,129 720,129 720,233 C720,309.9865 619.9831,241.0503 553,279 C543.3668,284.4578 534.244,292.4897 526.8294,300.0719 " fill="none" id="_generator-progress" style="stroke: #383838; stroke-width: 0.6;"/><polygon fill="#383838" points="523.3319,303.7447,532.4352,299.9857,526.78,300.1239,526.6419,294.4687,523.3319,303.7447" style="stroke: #383838; stroke-width: 0.6;"/><!--link _generator to _types--><path d="M632.0482,38.9358 C641.9059,44.5379 651.3681,52.0805 657,62 C664.4608,75.1408 664.167,82.6966 657,96 C636.7752,133.5411 591.3216,156.9001 560.9036,168.9333 " fill="none" id="_generator-_types" style="stroke: #383838; stroke-width: 0.6;"/><polygon fill="#383838" points="556.1569,170.7678,565.9937,171.2545,560.8207,168.9654,563.1099,163.7924,556.1569,170.7678" style="stroke: #383838; stroke-width: 0.6;"/><!--link _generator to utils--><path d="M557.8562,27.3989 C511.2385,31.2735 435.2734,40.7425 418,62 C406.851,75.7205 409.9825,96.7347 414.3767,111.564 " fill="none" id="_generator-utils" style="stroke: #383838; stroke-width: 0.6;"/><polygon fill="#383838" points="415.8965,116.3365,416.9768,106.5471,414.3792,111.5723,409.354,108.9747,415.8965,116.3365" style="stroke: #383838; stroke-width: 0.6;"/><!--link _generator_base to _types--><path d="M583.8521,96.4187 C573.023,113.3391 556.551,139.0766 544.8781,157.3154 " fill="none" id="_generator_base-_types" style="stroke: #383838; stroke-width: 0.6;"/><polygon fill="#383838" points="542.0202,161.7809,550.2407,156.3566,544.7154,157.5695,543.5026,152.0442,542.0202,161.7809" style="stroke: #383838; stroke-width: 0.6;"/><!--link _generator_base to utils--><path d="M543.2654,93.8663 C509.7837,103.4875 467.9138,115.519 442.8747,122.7142 " fill="none" id="_generator_base-utils" style="stroke: #383838; stroke-width: 0.6;"/><polygon fill="#383838" points="437.7962,124.1735,447.5509,125.5321,442.6017,122.7925,445.3413,117.8433,437.7962,124.1735" style="stroke: #383838; stroke-width: 0.6;"/><!--link logger to pino--><path d="M461.9613,192.0962 C466.0805,207.6602 474.9134,233.5828 491,250 C512.0096,271.4414 528.6912,260.0835 552,279 C559.0734,284.7405 565.4772,292.3531 570.6654,299.5193 " fill="none" id="logger-pino" style="stroke: #383838; stroke-width: 0.6;"/><polygon fill="#383838" points="573.7338,303.9029,571.8497,294.2359,570.8666,299.8067,565.2958,298.8235,573.7338,303.9029" style="stroke: #383838; stroke-width: 0.6;"/><!--link _parser to progress--><path d="M305.6521,96.1018 C315.704,115.55 330,148.5603 330,179 C330,179 330,179 330,233 C330,296.8084 411.5983,245.6539 466,279 C475.328,284.7177 484.2278,292.7967 491.4856,300.3437 " fill="none" id="_parser-progress" style="stroke: #383838; stroke-width: 0.6;"/><polygon fill="#383838" points="494.9113,303.9933,491.6684,294.6937,491.4894,300.3477,485.8354,300.1687,494.9113,303.9933" style="stroke: #383838; stroke-width: 0.6;"/><!--link _parser to resolve--><path d="M269.1826,83.5429 C224.5799,92.8036 140,118.3594 140,179 C140,179 140,179 140,233 C140,255.9711 133.1462,281.4166 127.2696,299.0122 " fill="none" id="_parser-resolve" style="stroke: #383838; stroke-width: 0.6;"/><polygon fill="#383838" points="125.6445,303.7583,132.3443,296.5394,127.2642,299.0279,124.7757,293.9478,125.6445,303.7583" style="stroke: #383838; stroke-width: 0.6;"/><!--link _parser to ts-morph--><path d="M269.805,96.3001 C246.4736,114.0129 216,143.8717 216,179 C216,179 216,179 216,233 C216,255.5332 211.7771,280.9667 208.1449,298.6749 " fill="none" id="_parser-ts-morph" style="stroke: #383838; stroke-width: 0.6;"/><polygon fill="#383838" points="207.042,303.9108,212.8114,295.9287,208.0727,299.0182,204.9832,294.2795,207.042,303.9108" style="stroke: #383838; stroke-width: 0.6;"/><!--link _parser to tsconfig-paths--><path d="M293.7716,96.3093 C291.4044,116.2211 288,149.9143 288,179 C288,179 288,179 288,233 C288,255.6115 293.7747,280.8402 298.7824,298.4672 " fill="none" id="_parser-tsconfig-paths" style="stroke: #383838; stroke-width: 0.6;"/><polygon fill="#383838" points="300.3047,303.6823,301.6227,293.922,298.9037,298.8826,293.9431,296.1636,300.3047,303.6823" style="stroke: #383838; stroke-width: 0.6;"/><!--link _parser to _types--><path d="M319.9676,96.087 C343.5103,112.5886 378.0119,135.9457 393,142 C436.2384,159.4658 451.7635,147.2437 496,162 C497.602,162.5344 499.2249,163.1266 500.8494,163.7601 " fill="none" id="_parser-_types" style="stroke: #383838; stroke-width: 0.6;"/><polygon fill="#383838" points="505.708,165.7684,498.9187,158.6336,501.0872,163.8583,495.8625,166.0268,505.708,165.7684" style="stroke: #383838; stroke-width: 0.6;"/><!--link _parser to utils--><path d="M322.652,89.8165 C327.745,91.8753 333.0355,94.0084 338,96 C359.1292,104.4764 383.3214,114.0839 400.1143,120.7373 " fill="none" id="_parser-utils" style="stroke: #383838; stroke-width: 0.6;"/><polygon fill="#383838" points="405.0767,122.7028,398.1822,115.6696,400.4281,120.8615,395.2362,123.1075,405.0767,122.7028" style="stroke: #383838; stroke-width: 0.6;"/><!--link _types to _schema--><path d="M531,196.0859 C531,200.715 531,205.7956 531,210.6671 " fill="none" id="_types-_schema" style="stroke: #383838; stroke-width: 0.6;"/><polygon fill="#383838" points="531,215.8399,535,206.8399,531,210.8399,527,206.8399,531,215.8399" style="stroke: #383838; stroke-width: 0.6;"/><!--link utils to logger--><path d="M429.8135,140.5967 C434.7521,147.0948 440.9943,155.3083 446.4372,162.4701 " fill="none" id="utils-logger" style="stroke: #383838; stroke-width: 0.6;"/><polygon fill="#383838" points="449.7042,166.7686,447.4431,157.1828,446.6788,162.7878,441.0738,162.0234,449.7042,166.7686" style="stroke: #383838; stroke-width: 0.6;"/><!--link utils to nanomatch--><path d="M420.5876,142.1969 C419.5741,174.63 416.9525,258.5196 415.6941,298.7886 " fill="none" id="utils-nanomatch" style="stroke: #383838; stroke-width: 0.6;"/><polygon fill="#383838" points="415.5331,303.9402,419.8125,295.0696,415.6894,298.9426,411.8164,294.8196,415.5331,303.9402" style="stroke: #383838; stroke-width: 0.6;"/><!--link utils to _types--><path d="M436.5897,135.6563 C451.8131,142.2039 475.6011,152.5623 496,162 C497.6937,162.7836 499.4293,163.596 501.1783,164.4219 " fill="none" id="utils-_types" style="stroke: #383838; stroke-width: 0.6;"/><polygon fill="#383838" points="505.8189,166.6292,499.4094,159.1513,501.3036,164.4816,495.9733,166.3758,505.8189,166.6292" style="stroke: #383838; stroke-width: 0.6;"/><script type="text/plantuml"><![CDATA[
@startuml

scale max 1920 width
top to bottom direction

skinparam monochrome true
skinparam shadowing false
skinparam nodesep 20
skinparam ranksep 20
skinparam defaultFontName Tahoma
skinparam defaultFontSize 12
skinparam roundCorner 4
skinparam dpi 150
skinparam arrowThickness 0.6
skinparam packageTitleAlignment left

skinparam usecase {
  borderThickness 0.6
}

skinparam rectangle {
  borderThickness 0.6
}

skinparam component {
  borderThickness 1
}


(<b>arkit</b>)
rectangle "config" as _config
rectangle "generator" as _generator
rectangle "generator.base" as _generator_base
(<b>index</b>)
(logger)
rectangle "parser" as _parser
rectangle "schema" as _schema
rectangle "types" as _types
(utils)

package "Dependencies" {
  [nanomatch]
  [pino]
  [progress]
  [resolve]
  [ts-morph]
  [tsconfig-paths]
  [yargs]
}

(<b>arkit</b>) -[thickness=1]> _config
(<b>arkit</b>) -[thickness=1]> _generator
(<b>arkit</b>) -[thickness=1]> _parser
(<b>arkit</b>) -[thickness=1]> _types
(<b>arkit</b>) -[thickness=1]> (utils)
(<b>arkit</b>) ----[thickness=1]> [yargs]
_config --> _types
_config --> (utils)
_generator --> _generator_base
_generator ----> [progress]
_generator --> _types
_generator --> (utils)
_generator_base --> _types
_generator_base --> (utils)
(logger) ----> [pino]
_parser ----> [progress]
_parser ----> [resolve]
_parser ----> [ts-morph]
_parser ----> [tsconfig-paths]
_parser --> _types
_parser --> (utils)
_types --> _schema
(utils) --> (logger)
(utils) ----> [nanomatch]
(utils) --> _types

@enduml


' View and edit on https://arkit.herokuapp.com
]]></script></g></svg>