<?xml version="1.0" encoding="UTF-8" standalone="no"?><svg xmlns="http://www.w3.org/2000/svg" xmlns:xlink="http://www.w3.org/1999/xlink" contentScriptType="application/ecmascript" contentStyleType="text/css" height="787px" preserveAspectRatio="none" style="width:775px;height:787px;" version="1.1" viewBox="0 0 775 787" width="775px" zoomAndPan="magnify"><defs/><g><!--cluster Dependencies--><path d="M587,189.99 L688,189.99 A4.5,4.5 0 0 1 691,192.99 L698,209.9588 L760,209.9588 A3,3 0 0 1 763,212.9588 L763,668.99 A3,3 0 0 1 760,671.99 L587,671.99 A3,3 0 0 1 584,668.99 L584,192.99 A3,3 0 0 1 587,189.99 " fill="#FFFFFF" style="stroke: #000000; stroke-width: 1.5;"/><line style="stroke: #000000; stroke-width: 1.5;" x1="584" x2="698" y1="209.9588" y2="209.9588"/><text fill="#000000" font-family="Tahoma" font-size="12" font-weight="bold" lengthAdjust="spacingAndGlyphs" textLength="101" x="588" y="203.1287">Dependencies</text><!--entity eslint-config-prettier--><rect fill="#F8F8F8" height="33.9688" rx="3" ry="3" style="stroke: #383838; stroke-width: 1.0;" width="147" x="600" y="371.99"/><rect fill="#F8F8F8" height="5" style="stroke: #383838; stroke-width: 1.0;" width="10" x="595" y="376.99"/><rect fill="#F8F8F8" height="5" style="stroke: #383838; stroke-width: 1.0;" width="10" x="595" y="395.9588"/><text fill="#000000" font-family="Tahoma" font-size="12" lengthAdjust="spacingAndGlyphs" textLength="127" x="610" y="393.1287">eslint-config-prettier</text><!--entity nanomatch--><rect fill="#F8F8F8" height="33.9688" rx="3" ry="3" style="stroke: #383838; stroke-width: 1.0;" width="91" x="628" y="271.99"/><rect fill="#F8F8F8" height="5" style="stroke: #383838; stroke-width: 1.0;" width="10" x="623" y="276.99"/><rect fill="#F8F8F8" height="5" style="stroke: #383838; stroke-width: 1.0;" width="10" x="623" y="295.9588"/><text fill="#000000" font-family="Tahoma" font-size="12" lengthAdjust="spacingAndGlyphs" textLength="71" x="638" y="293.1287">nanomatch</text><!--entity node-plantuml--><rect fill="#F8F8F8" height="33.9688" rx="3" ry="3" style="stroke: #383838; stroke-width: 1.0;" width="110" x="618.5" y="421.99"/><rect fill="#F8F8F8" height="5" style="stroke: #383838; stroke-width: 1.0;" width="10" x="613.5" y="426.99"/><rect fill="#F8F8F8" height="5" style="stroke: #383838; stroke-width: 1.0;" width="10" x="613.5" y="445.9588"/><text fill="#000000" font-family="Tahoma" font-size="12" lengthAdjust="spacingAndGlyphs" textLength="90" x="628.5" y="443.1287">node-plantuml</text><!--entity pino--><rect fill="#F8F8F8" height="33.9688" rx="3" ry="3" style="stroke: #383838; stroke-width: 1.0;" width="47" x="650" y="471.99"/><rect fill="#F8F8F8" height="5" style="stroke: #383838; stroke-width: 1.0;" width="10" x="645" y="476.99"/><rect fill="#F8F8F8" height="5" style="stroke: #383838; stroke-width: 1.0;" width="10" x="645" y="495.9588"/><text fill="#000000" font-family="Tahoma" font-size="12" lengthAdjust="spacingAndGlyphs" textLength="27" x="660" y="493.1287">pino</text><!--entity progress--><rect fill="#F8F8F8" height="33.9688" rx="3" ry="3" style="stroke: #383838; stroke-width: 1.0;" width="76" x="635.5" y="321.99"/><rect fill="#F8F8F8" height="5" style="stroke: #383838; stroke-width: 1.0;" width="10" x="630.5" y="326.99"/><rect fill="#F8F8F8" height="5" style="stroke: #383838; stroke-width: 1.0;" width="10" x="630.5" y="345.9588"/><text fill="#000000" font-family="Tahoma" font-size="12" lengthAdjust="spacingAndGlyphs" textLength="56" x="645.5" y="343.1287">progress</text><!--entity resolve--><rect fill="#F8F8F8" height="33.9688" rx="3" ry="3" style="stroke: #383838; stroke-width: 1.0;" width="65" x="641" y="621.99"/><rect fill="#F8F8F8" height="5" style="stroke: #383838; stroke-width: 1.0;" width="10" x="636" y="626.99"/><rect fill="#F8F8F8" height="5" style="stroke: #383838; stroke-width: 1.0;" width="10" x="636" y="645.9588"/><text fill="#000000" font-family="Tahoma" font-size="12" lengthAdjust="spacingAndGlyphs" textLength="45" x="651" y="643.1287">resolve</text><!--entity ts-morph--><rect fill="#F8F8F8" height="33.9688" rx="3" ry="3" style="stroke: #383838; stroke-width: 1.0;" width="76" x="635.5" y="521.99"/><rect fill="#F8F8F8" height="5" style="stroke: #383838; stroke-width: 1.0;" width="10" x="630.5" y="526.99"/><rect fill="#F8F8F8" height="5" style="stroke: #383838; stroke-width: 1.0;" width="10" x="630.5" y="545.9588"/><text fill="#000000" font-family="Tahoma" font-size="12" lengthAdjust="spacingAndGlyphs" textLength="56" x="645.5" y="543.1287">ts-morph</text><!--entity tsconfig-paths--><rect fill="#F8F8F8" height="33.9688" rx="3" ry="3" style="stroke: #383838; stroke-width: 1.0;" width="110" x="618.5" y="571.99"/><rect fill="#F8F8F8" height="5" style="stroke: #383838; stroke-width: 1.0;" width="10" x="613.5" y="576.99"/><rect fill="#F8F8F8" height="5" style="stroke: #383838; stroke-width: 1.0;" width="10" x="613.5" y="595.9588"/><text fill="#000000" font-family="Tahoma" font-size="12" lengthAdjust="spacingAndGlyphs" textLength="90" x="628.5" y="593.1287">tsconfig-paths</text><!--entity yargs--><rect fill="#F8F8F8" height="33.9688" rx="3" ry="3" style="stroke: #383838; stroke-width: 1.0;" width="54" x="646.5" y="221.99"/><rect fill="#F8F8F8" height="5" style="stroke: #383838; stroke-width: 1.0;" width="10" x="641.5" y="226.99"/><rect fill="#F8F8F8" height="5" style="stroke: #383838; stroke-width: 1.0;" width="10" x="641.5" y="245.9588"/><text fill="#000000" font-family="Tahoma" font-size="12" lengthAdjust="spacingAndGlyphs" textLength="34" x="656.5" y="243.1287">yargs</text><ellipse cx="66.8345" cy="250.8674" fill="#F8F8F8" rx="26.3345" ry="12.8774" style="stroke: #383838; stroke-width: 0.5;"/><text fill="#000000" font-family="Tahoma" font-size="12" font-weight="bold" lengthAdjust="spacingAndGlyphs" textLength="33" x="50.3345" y="254.3518">arkit</text><ellipse cx="375.8844" cy="104.1976" fill="#F8F8F8" rx="13.8844" ry="11.7076" style="stroke: #383838; stroke-width: 0.5;"/><text fill="#000000" font-family="Tahoma" font-size="12" lengthAdjust="spacingAndGlyphs" textLength="13" x="369.3844" y="107.6819">cli</text><!--entity _config--><rect fill="#F8F8F8" height="33.9688" rx="3" ry="3" style="stroke: #000000; stroke-width: 0.5;" width="58" x="203" y="317.99"/><text fill="#000000" font-family="Tahoma" font-size="12" lengthAdjust="spacingAndGlyphs" textLength="38" x="213" y="339.1287">config</text><!--entity _converter--><rect fill="#F8F8F8" height="33.9688" rx="3" ry="3" style="stroke: #000000; stroke-width: 0.5;" width="80" x="336" y="445.99"/><text fill="#000000" font-family="Tahoma" font-size="12" lengthAdjust="spacingAndGlyphs" textLength="60" x="346" y="467.1287">converter</text><ellipse cx="508.1742" cy="389.2248" fill="#F8F8F8" rx="59.1742" ry="14.2348" style="stroke: #383838; stroke-width: 0.5;"/><text fill="#000000" font-family="Tahoma" font-size="12" font-weight="bold" lengthAdjust="spacingAndGlyphs" textLength="88" x="464.1742" y="392.7092">eslint.config</text><!--entity _filesystem--><rect fill="#F8F8F8" height="33.9688" rx="3" ry="3" style="stroke: #000000; stroke-width: 0.5;" width="82" x="191" y="485.99"/><text fill="#000000" font-family="Tahoma" font-size="12" lengthAdjust="spacingAndGlyphs" textLength="62" x="201" y="507.1287">filesystem</text><!--entity _generator--><rect fill="#F8F8F8" height="33.9688" rx="3" ry="3" style="stroke: #000000; stroke-width: 0.5;" width="83" x="190.5" y="233.99"/><text fill="#000000" font-family="Tahoma" font-size="12" lengthAdjust="spacingAndGlyphs" textLength="63" x="200.5" y="255.1287">generator</text><ellipse cx="66.7541" cy="25.0408" fill="#F8F8F8" rx="60.7541" ry="14.5508" style="stroke: #383838; stroke-width: 0.5;"/><text fill="#000000" font-family="Tahoma" font-size="12" font-weight="bold" lengthAdjust="spacingAndGlyphs" textLength="92" x="20.7541" y="28.5252">hpcc-wasm.d</text><ellipse cx="66.8701" cy="68.8674" fill="#F8F8F8" rx="29.8701" ry="12.8774" style="stroke: #383838; stroke-width: 0.5;"/><text fill="#000000" font-family="Tahoma" font-size="12" font-weight="bold" lengthAdjust="spacingAndGlyphs" textLength="38" x="47.8701" y="72.3518">index</text><ellipse cx="507.7843" cy="499.8674" fill="#F8F8F8" rx="31.2843" ry="12.8774" style="stroke: #383838; stroke-width: 0.5;"/><text fill="#000000" font-family="Tahoma" font-size="12" lengthAdjust="spacingAndGlyphs" textLength="40" x="487.7843" y="503.3518">logger</text><ellipse cx="232.1307" cy="25.1161" fill="#F8F8F8" rx="71.1307" ry="16.6261" style="stroke: #383838; stroke-width: 0.5;"/><text fill="#000000" font-family="Tahoma" font-size="12" font-weight="bold" lengthAdjust="spacingAndGlyphs" textLength="117" x="173.6307" y="28.6005">node-plantuml.d</text><!--entity _parser--><rect fill="#F8F8F8" height="33.9688" rx="3" ry="3" style="stroke: #000000; stroke-width: 0.5;" width="61" x="36.5" y="463.99"/><text fill="#000000" font-family="Tahoma" font-size="12" lengthAdjust="spacingAndGlyphs" textLength="41" x="46.5" y="485.1287">parser</text><!--entity _puml--><rect fill="#F8F8F8" height="33.9688" rx="3" ry="3" style="stroke: #000000; stroke-width: 0.5;" width="50" x="207" y="149.99"/><text fill="#000000" font-family="Tahoma" font-size="12" lengthAdjust="spacingAndGlyphs" textLength="30" x="217" y="171.1287">puml</text><!--entity _schema--><rect fill="#F8F8F8" height="33.9688" rx="3" ry="3" style="stroke: #000000; stroke-width: 0.5;" width="69" x="639" y="139.99"/><text fill="#000000" font-family="Tahoma" font-size="12" lengthAdjust="spacingAndGlyphs" textLength="49" x="649" y="161.1287">schema</text><!--entity _types--><rect fill="#F8F8F8" height="33.9688" rx="3" ry="3" style="stroke: #000000; stroke-width: 0.5;" width="54" x="481" y="256.99"/><text fill="#000000" font-family="Tahoma" font-size="12" lengthAdjust="spacingAndGlyphs" textLength="34" x="491" y="278.1287">types</text><ellipse cx="375.8848" cy="348.8674" fill="#F8F8F8" rx="21.3848" ry="12.8774" style="stroke: #383838; stroke-width: 0.5;"/><text fill="#000000" font-family="Tahoma" font-size="12" lengthAdjust="spacingAndGlyphs" textLength="26" x="362.8848" y="352.3518">utils</text><!--link <b>arkit</b> to cli--><path d="M74.76,238.41 C87.96,215.17 119.55,165.72 161,141.99 C225.6,104.99 317.74,102.45 356.59,103.23 " fill="none" id="&lt;b&gt;arkit&lt;/b&gt;-cli" style="stroke: #000000; stroke-width: 1.0;"/><polygon fill="#000000" points="361.93,103.36,353.0358,99.13,356.9317,103.2315,352.8302,107.1273,361.93,103.36" style="stroke: #000000; stroke-width: 1.0;"/><!--link <b>arkit</b> to _config--><path d="M86.07,260.3 C113.01,274.18 164.15,300.53 197.91,317.93 " fill="none" id="&lt;b&gt;arkit&lt;/b&gt;-_config" style="stroke: #000000; stroke-width: 1.0;"/><polygon fill="#000000" points="202.76,320.43,196.5869,312.7558,198.3139,318.1426,192.9271,319.8696,202.76,320.43" style="stroke: #000000; stroke-width: 1.0;"/><!--link <b>arkit</b> to _converter--><path d="M74.07,263.86 C86.74,289.45 118.41,347.06 161,379.99 C212.26,419.61 284.72,442.38 330.78,453.72 " fill="none" id="&lt;b&gt;arkit&lt;/b&gt;-_converter" style="stroke: #000000; stroke-width: 1.0;"/><polygon fill="#000000" points="335.71,454.92,327.8987,448.9214,330.8494,453.7477,326.023,456.6984,335.71,454.92" style="stroke: #000000; stroke-width: 1.0;"/><!--link <b>arkit</b> to _generator--><path d="M93.83,250.99 C118.35,250.99 155.76,250.99 185.32,250.99 " fill="none" id="&lt;b&gt;arkit&lt;/b&gt;-_generator" style="stroke: #000000; stroke-width: 1.0;"/><polygon fill="#000000" points="190.37,250.99,181.37,246.99,185.37,250.99,181.37,254.99,190.37,250.99" style="stroke: #000000; stroke-width: 1.0;"/><!--link <b>arkit</b> to _parser--><path d="M67,264.29 C67,329.15 67,394 67,458.85 " fill="none" id="&lt;b&gt;arkit&lt;/b&gt;-_parser" style="stroke: #000000; stroke-width: 1.0;"/><polygon fill="#000000" points="67,463.92,71,454.92,67,458.92,63,454.92,67,463.92" style="stroke: #000000; stroke-width: 1.0;"/><!--link <b>arkit</b> to progress--><path d="M72.5,237.91 C83.02,209.51 112.07,142.26 161,110.99 C257.02,49.6 311.7,38.05 416,83.99 C506.98,124.05 524.72,159.02 567,248.99 C579.41,275.38 556.61,292.2 576,313.99 C589.46,329.11 610.78,335.63 629.95,338.25 " fill="none" id="&lt;b&gt;arkit&lt;/b&gt;-progress" style="stroke: #000000; stroke-width: 1.0;"/><polygon fill="#000000" points="635.3,338.9,626.8298,333.8744,630.3343,338.315,625.8938,341.8195,635.3,338.9" style="stroke: #000000; stroke-width: 1.0;"/><!--link <b>arkit</b> to _puml--><path d="M83.75,240.74 C101.94,229.13 132.98,209.99 161,195.99 C174.19,189.39 189.26,183.01 202.02,177.92 " fill="none" id="&lt;b&gt;arkit&lt;/b&gt;-_puml" style="stroke: #000000; stroke-width: 1.0;"/><polygon fill="#000000" points="206.97,175.97,197.1292,175.5725,202.3227,177.8146,200.0806,183.0082,206.97,175.97" style="stroke: #000000; stroke-width: 1.0;"/><!--link <b>arkit</b> to _types--><path d="M89.1,243.61 C107.74,237.5 135.81,229.31 161,225.99 C273.78,211.09 305.38,221.47 416,247.99 C436.15,252.82 458.54,259.2 476.07,264.43 " fill="none" id="&lt;b&gt;arkit&lt;/b&gt;-_types" style="stroke: #000000; stroke-width: 1.0;"/><polygon fill="#000000" points="480.88,265.88,473.4177,259.4523,476.0928,264.4367,471.1085,267.1118,480.88,265.88" style="stroke: #000000; stroke-width: 1.0;"/><!--link <b>arkit</b> to utils--><path d="M74.2,263.89 C86.68,288.14 117.41,339.88 161,359.99 C224.85,389.44 311.07,369.4 351.83,356.9 " fill="none" id="&lt;b&gt;arkit&lt;/b&gt;-utils" style="stroke: #000000; stroke-width: 1.0;"/><polygon fill="#000000" points="357.03,355.27,347.2447,354.1532,352.2601,356.7695,349.6439,361.785,357.03,355.27" style="stroke: #000000; stroke-width: 1.0;"/><!--link cli to yargs--><path d="M388.58,109.28 C430.7,128.52 576.62,195.18 641.26,224.72 " fill="none" id="cli-yargs" style="stroke: #000000; stroke-width: 0.5;"/><polygon fill="#000000" points="646.15,226.95,639.6206,219.5766,641.6006,224.8756,636.3016,226.8556,646.15,226.95" style="stroke: #000000; stroke-width: 0.5;"/><!--link _config to _types--><path d="M261.04,328.74 C312.57,317.27 421.98,292.91 475.79,280.93 " fill="none" id="_config-_types" style="stroke: #000000; stroke-width: 0.5;"/><polygon fill="#000000" points="480.82,279.81,471.1666,277.8576,475.9391,280.8947,472.902,285.6671,480.82,279.81" style="stroke: #000000; stroke-width: 0.5;"/><!--link _config to utils--><path d="M261.05,337.75 C286.71,340.28 324.35,343.99 349.25,346.45 " fill="none" id="_config-utils" style="stroke: #000000; stroke-width: 0.5;"/><polygon fill="#000000" points="354.37,346.95,345.8016,342.0938,349.3937,346.4638,345.0237,350.0559,354.37,346.95" style="stroke: #000000; stroke-width: 0.5;"/><!--link _converter to logger--><path d="M416,474.09 C435.42,479.61 458.54,486.19 476.62,491.34 " fill="none" id="_converter-logger" style="stroke: #000000; stroke-width: 0.5;"/><polygon fill="#000000" points="481.57,492.75,474.0152,486.4314,476.7624,491.3764,471.8174,494.1236,481.57,492.75" style="stroke: #000000; stroke-width: 0.5;"/><!--link _converter to node-plantuml--><path d="M416.24,459.8 C466.61,455.71 554.47,448.57 613.06,443.81 " fill="none" id="_converter-node-plantuml" style="stroke: #000000; stroke-width: 0.5;"/><polygon fill="#000000" points="618.28,443.39,608.9889,440.1226,613.296,443.7899,609.6287,448.0969,618.28,443.39" style="stroke: #000000; stroke-width: 0.5;"/><!--link _converter to _types--><path d="M388.77,445.88 C412.49,411.39 466.02,333.57 492.12,295.61 " fill="none" id="_converter-_types" style="stroke: #000000; stroke-width: 0.5;"/><polygon fill="#000000" points="495.17,291.19,486.7834,296.3538,492.344,295.3148,493.3831,300.8754,495.17,291.19" style="stroke: #000000; stroke-width: 0.5;"/><!--link <b>eslint.config</b> to eslint-config-prettier--><path d="M567.1,388.99 C576.09,388.99 585.49,388.99 594.82,388.99 " fill="none" id="&lt;b&gt;eslint.config&lt;/b&gt;-eslint-config-prettier" style="stroke: #000000; stroke-width: 1.0;"/><polygon fill="#000000" points="599.99,388.99,590.99,384.99,594.99,388.99,590.99,392.99,599.99,388.99" style="stroke: #000000; stroke-width: 1.0;"/><!--link _filesystem to logger--><path d="M273.14,502.55 C326.6,501.96 420.34,500.93 471.4,500.38 " fill="none" id="_filesystem-logger" style="stroke: #000000; stroke-width: 0.5;"/><polygon fill="#000000" points="476.51,500.32,467.4649,496.4231,471.5103,500.3771,467.5563,504.4226,476.51,500.32" style="stroke: #000000; stroke-width: 0.5;"/><!--link _filesystem to resolve--><path d="M273.37,519.02 C292.27,526.34 315.17,534.93 336,541.99 C441.47,577.73 468.75,584.02 576,613.99 C595.65,619.48 617.68,625.21 635.71,629.81 " fill="none" id="_filesystem-resolve" style="stroke: #000000; stroke-width: 0.5;"/><polygon fill="#000000" points="640.69,631.07,632.9668,624.9583,635.8469,629.8271,630.9782,632.7072,640.69,631.07" style="stroke: #000000; stroke-width: 0.5;"/><!--link _filesystem to _schema--><path d="M257.15,485.76 C277.52,471.72 307.78,452 336,437.99 C370.01,421.1 385.23,430.23 416,407.99 C434.96,394.28 431.23,382.2 449,366.99 C494.98,327.63 534.11,349.8 567,298.99 C588.6,265.61 554.06,243.14 576,209.99 C589.38,189.77 613.19,176.58 633.81,168.41 " fill="none" id="_filesystem-_schema" style="stroke: #000000; stroke-width: 0.5;"/><polygon fill="#000000" points="638.7,166.54,628.865,166.0173,634.0296,168.3253,631.7215,173.4899,638.7,166.54" style="stroke: #000000; stroke-width: 0.5;"/><!--link _filesystem to ts-morph--><path d="M273.21,506.37 C316.58,510.01 387.68,515.96 449,520.99 C512.13,526.16 585.31,532.03 630.26,535.62 " fill="none" id="_filesystem-ts-morph" style="stroke: #000000; stroke-width: 0.5;"/><polygon fill="#000000" points="635.32,536.02,626.6687,531.3131,630.336,535.6201,626.0289,539.2874,635.32,536.02" style="stroke: #000000; stroke-width: 0.5;"/><!--link _filesystem to tsconfig-paths--><path d="M273.17,510.85 C350.95,526.07 522.45,559.62 613.31,577.4 " fill="none" id="_filesystem-tsconfig-paths" style="stroke: #000000; stroke-width: 0.5;"/><polygon fill="#000000" points="618.38,578.4,610.3138,572.7488,613.4727,577.4414,608.7801,580.6004,618.38,578.4" style="stroke: #000000; stroke-width: 0.5;"/><!--link _filesystem to _types--><path d="M255.49,485.78 C269.59,474.64 287.89,459.56 303,444.99 C318.86,429.69 318.37,421.2 336,407.99 C367.5,384.39 387.97,397.62 416,369.99 C439.64,346.68 425.6,326.53 449,302.99 C456.57,295.37 466.55,289.4 476.1,284.91 " fill="none" id="_filesystem-_types" style="stroke: #000000; stroke-width: 0.5;"/><polygon fill="#000000" points="480.74,282.83,470.8912,282.8615,476.1775,284.8753,474.1636,290.1615,480.74,282.83" style="stroke: #000000; stroke-width: 0.5;"/><!--link _filesystem to utils--><path d="M273.32,491.16 C284.13,486.36 295.03,479.81 303,470.99 C333.54,437.2 307.92,409.84 336,373.99 C340.75,367.92 347.42,362.89 353.89,358.97 " fill="none" id="_filesystem-utils" style="stroke: #000000; stroke-width: 0.5;"/><polygon fill="#000000" points="358.32,356.43,348.522,357.4292,353.9805,358.9138,352.496,364.3723,358.32,356.43" style="stroke: #000000; stroke-width: 0.5;"/><!--link _generator to _types--><path d="M273.74,253.43 C310.85,255.76 367.15,259.57 416,263.99 C435.8,265.78 457.97,268.2 475.47,270.22 " fill="none" id="_generator-_types" style="stroke: #000000; stroke-width: 0.5;"/><polygon fill="#000000" points="480.74,270.83,472.2573,265.8257,475.7729,270.2574,471.3411,273.773,480.74,270.83" style="stroke: #000000; stroke-width: 0.5;"/><!--link _generator to utils--><path d="M257.73,268.06 C285.98,287.55 331.52,318.98 356.73,336.38 " fill="none" id="_generator-utils" style="stroke: #000000; stroke-width: 0.5;"/><polygon fill="#000000" points="360.9,339.25,355.7695,330.843,356.7865,336.4077,351.2218,337.4246,360.9,339.25" style="stroke: #000000; stroke-width: 0.5;"/><!--link logger to pino--><path d="M539.37,497.94 C569.45,495.92 615.14,492.85 644.4,490.88 " fill="none" id="logger-pino" style="stroke: #000000; stroke-width: 0.5;"/><polygon fill="#000000" points="649.67,490.52,640.4168,487.1469,644.6818,490.863,640.9656,495.128,649.67,490.52" style="stroke: #000000; stroke-width: 0.5;"/><!--link _parser to _filesystem--><path d="M97.52,484.97 C122.13,488.29 157.6,493.08 185.8,496.88 " fill="none" id="_parser-_filesystem" style="stroke: #000000; stroke-width: 0.5;"/><polygon fill="#000000" points="190.97,497.58,182.5883,492.4082,186.0152,496.9089,181.5146,500.3358,190.97,497.58" style="stroke: #000000; stroke-width: 0.5;"/><!--link _parser to progress--><path d="M93.58,498.05 C111.59,508.99 136.72,522.2 161,527.99 C232.94,545.13 545.47,541.87 567,520.99 C592.09,496.66 553.83,391 576,363.99 C588.95,348.21 610.44,341.67 629.86,339.19 " fill="none" id="_parser-progress" style="stroke: #000000; stroke-width: 0.5;"/><polygon fill="#000000" points="635.27,338.6,625.889,335.6006,630.2995,339.1428,626.7574,343.5533,635.27,338.6" style="stroke: #000000; stroke-width: 0.5;"/><!--link _parser to ts-morph--><path d="M71.17,497.99 C78.99,534.37 102.9,619.26 161,653.99 C315.88,746.57 433.21,775.07 567,653.99 C581.9,640.5 562.92,579.25 576,563.99 C589.18,548.61 610.46,542.07 629.7,539.49 " fill="none" id="_parser-ts-morph" style="stroke: #000000; stroke-width: 0.5;"/><polygon fill="#000000" points="635.06,538.87,625.6538,535.9505,630.0943,539.455,626.5898,543.8956,635.06,538.87" style="stroke: #000000; stroke-width: 0.5;"/><!--link _parser to _types--><path d="M71.73,463.83 C80.44,428.33 105.7,347.05 161,309.99 C212.01,275.8 400.33,273.21 475.61,273.59 " fill="none" id="_parser-_types" style="stroke: #000000; stroke-width: 0.5;"/><polygon fill="#000000" points="480.83,273.62,471.853,269.5686,475.8301,273.5914,471.8073,277.5685,480.83,273.62" style="stroke: #000000; stroke-width: 0.5;"/><!--link _parser to utils--><path d="M97.68,468.24 C142.26,449.09 229.16,411.75 303,379.99 C319.96,372.69 339.16,364.42 353.47,358.26 " fill="none" id="_parser-utils" style="stroke: #000000; stroke-width: 0.5;"/><polygon fill="#000000" points="358.13,356.26,348.2816,356.1657,353.5417,358.2468,351.4605,363.5069,358.13,356.26" style="stroke: #000000; stroke-width: 0.5;"/><!--link _puml to _schema--><path d="M257.26,166.43 C329.68,164.79 544.84,159.89 633.57,157.87 " fill="none" id="_puml-_schema" style="stroke: #000000; stroke-width: 0.5;"/><polygon fill="#000000" points="638.72,157.75,629.6309,153.9567,633.7213,157.8643,629.8138,161.9546,638.72,157.75" style="stroke: #000000; stroke-width: 0.5;"/><!--link _puml to _types--><path d="M257.15,165.82 C293.8,165.11 364.62,167.93 416,195.99 C435.34,206.55 432.56,218.31 449,232.99 C457.53,240.61 467.5,248.09 476.74,254.53 " fill="none" id="_puml-_types" style="stroke: #000000; stroke-width: 0.5;"/><polygon fill="#000000" points="480.93,257.42,475.7797,249.0251,476.8098,254.5874,471.2475,255.6174,480.93,257.42" style="stroke: #000000; stroke-width: 0.5;"/><!--link _puml to utils--><path d="M257.18,184.06 C271.57,194.99 289.59,210.06 303,225.99 C331.69,260.05 355.63,307.02 367.32,331.91 " fill="none" id="_puml-utils" style="stroke: #000000; stroke-width: 0.5;"/><polygon fill="#000000" points="369.49,336.58,369.3444,326.7322,367.392,332.0415,362.0828,330.089,369.49,336.58" style="stroke: #000000; stroke-width: 0.5;"/><!--link _types to _schema--><path d="M524.46,256.94 C537.4,243.25 556.8,224.06 576,209.99 C594.05,196.76 615.77,184.55 634.04,175.18 " fill="none" id="_types-_schema" style="stroke: #000000; stroke-width: 0.5;"/><polygon fill="#000000" points="638.6,172.87,628.7637,173.3675,634.1394,175.1289,632.378,180.5046,638.6,172.87" style="stroke: #000000; stroke-width: 0.5;"/><!--link utils to logger--><path d="M385.68,360.94 C398.82,378.83 424.78,413.4 449,440.99 C462.45,456.31 478.82,472.78 490.73,484.41 " fill="none" id="utils-logger" style="stroke: #000000; stroke-width: 0.5;"/><polygon fill="#000000" points="494.59,488.17,490.9431,479.0212,491.0118,484.6777,485.3554,484.7464,494.59,488.17" style="stroke: #000000; stroke-width: 0.5;"/><!--link utils to nanomatch--><path d="M396.85,344.96 C442.63,335.66 556.75,312.49 622.92,299.05 " fill="none" id="utils-nanomatch" style="stroke: #000000; stroke-width: 0.5;"/><polygon fill="#000000" points="627.99,298.02,618.3719,295.9004,623.091,299.0198,619.9716,303.7389,627.99,298.02" style="stroke: #000000; stroke-width: 0.5;"/><!--link utils to ts-morph--><path d="M388.17,359.78 C401.88,372.75 426.13,394.76 449,410.99 C498.37,446 530.38,430.79 567,478.99 C576.72,491.77 564.65,502.62 576,513.99 C590.08,528.09 611.02,534.57 629.8,537.42 " fill="none" id="utils-ts-morph" style="stroke: #000000; stroke-width: 0.5;"/><polygon fill="#000000" points="635.04,538.13,626.6583,532.9582,630.0852,537.4589,625.5846,540.8858,635.04,538.13" style="stroke: #000000; stroke-width: 0.5;"/><!--link utils to _types--><path d="M391.54,339.67 C412.15,326.47 447.54,303.81 449,302.99 C457.67,298.06 467.29,293.08 476.16,288.66 " fill="none" id="utils-_types" style="stroke: #000000; stroke-width: 0.5;"/><polygon fill="#000000" points="481,286.26,471.1591,286.6569,476.5165,288.4732,474.7003,293.8305,481,286.26" style="stroke: #000000; stroke-width: 0.5;"/><!--link <b>hpcc-wasm.d</b> to <b>index</b>--><!--link <b>hpcc-wasm.d</b> to <b>node-plantuml.d</b>--><!--
@startuml

scale max 1920 width
left to right direction

skinparam nodesep 16
skinparam ranksep 33
skinparam monochrome true
skinparam shadowing false
skinparam defaultFontName Tahoma
skinparam defaultFontSize 12
skinparam roundCorner 6
skinparam dpi 150
skinparam arrowColor black
skinparam arrowThickness 0.5
skinparam packageTitleAlignment left

skinparam usecase {
  borderThickness 0.5
}

skinparam rectangle {
  borderThickness 0.5
}

skinparam component {
  borderThickness 1
}


(<b>arkit</b>)
(cli)
rectangle "config" as _config
rectangle "converter" as _converter
(<b>eslint.config</b>)
rectangle "filesystem" as _filesystem
rectangle "generator" as _generator
(<b>hpcc-wasm.d</b>)
(<b>index</b>)
(logger)
(<b>node-plantuml.d</b>)
rectangle "parser" as _parser
rectangle "puml" as _puml
rectangle "schema" as _schema
rectangle "types" as _types
(utils)

package "Dependencies" {
  [eslint-config-prettier]
  [nanomatch]
  [node-plantuml]
  [pino]
  [progress]
  [resolve]
  [ts-morph]
  [tsconfig-paths]
  [yargs]
}

(<b>arkit</b>) -[thickness=1]> (cli)
(<b>arkit</b>) -[thickness=1]> _config
(<b>arkit</b>) -[thickness=1]> _converter
(<b>arkit</b>) -[thickness=1]> _generator
(<b>arkit</b>) -[thickness=1]> _parser
(<b>arkit</b>) - - -[thickness=1]> [progress]
(<b>arkit</b>) -[thickness=1]> _puml
(<b>arkit</b>) -[thickness=1]> _types
(<b>arkit</b>) -[thickness=1]> (utils)
(cli) - - -> [yargs]
_config - -> _types
_config - -> (utils)
_converter - -> (logger)
_converter - - -> [node-plantuml]
_converter - -> _types
(<b>eslint.config</b>) - -[thickness=1]> [eslint-config-prettier]
_filesystem - -> (logger)
_filesystem - - -> [resolve]
_filesystem - -> _schema
_filesystem - - -> [ts-morph]
_filesystem - - -> [tsconfig-paths]
_filesystem - -> _types
_filesystem - -> (utils)
_generator - -> _types
_generator - -> (utils)
(logger) - - -> [pino]
_parser - -> _filesystem
_parser - - -> [progress]
_parser - - -> [ts-morph]
_parser - -> _types
_parser - -> (utils)
_puml - -> _schema
_puml - -> _types
_puml - -> (utils)
_types - -> _schema
(utils) - -> (logger)
(utils) - - -> [nanomatch]
(utils) - - -> [ts-morph]
(utils) - -> _types

@enduml

PlantUML version 1.2019.06(Fri May 24 17:10:25 GMT 2019)
(GPL source distribution)
Java Runtime: OpenJDK Runtime Environment
JVM: OpenJDK 64-Bit Server VM
Java Version: 21.0.8+9-Ubuntu-0ubuntu124.04.1
Operating System: Linux
OS Version: 6.1.147
Default Encoding: UTF-8
Language: en
Country: US
--></g></svg>