<?xml version="1.0" encoding="UTF-8" standalone="no"?><svg xmlns="http://www.w3.org/2000/svg" xmlns:xlink="http://www.w3.org/1999/xlink" contentScriptType="application/ecmascript" contentStyleType="text/css" height="766px" preserveAspectRatio="none" style="width:744px;height:766px;" version="1.1" viewBox="0 0 744 766" width="744px" zoomAndPan="magnify"><defs/><g><!--cluster Dependencies--><path d="M575.84,212 L660.84,212 A4.5,4.5 0 0 1 663.84,215 L670.84,232.4844 L729.84,232.4844 A3,3 0 0 1 732.84,235.4844 L732.84,751 A3,3 0 0 1 729.84,754 L575.84,754 A3,3 0 0 1 572.84,751 L572.84,215 A3,3 0 0 1 575.84,212 " fill="#FFFFFF" style="stroke: #000000; stroke-width: 1.5;"/><line style="stroke: #000000; stroke-width: 1.5;" x1="572.84" x2="670.84" y1="232.4844" y2="232.4844"/><text fill="#000000" font-family="Tahoma" font-size="12" font-weight="bold" lengthAdjust="spacingAndGlyphs" textLength="85" x="576.84" y="226.0059">Dependencies</text><!--entity @hpcc-js--><rect fill="#F8F8F8" height="34.4844" rx="3" ry="3" style="stroke: #383838; stroke-width: 1.0;" width="69" x="618.34" y="703.76"/><rect fill="#F8F8F8" height="5" style="stroke: #383838; stroke-width: 1.0;" width="10" x="613.34" y="708.76"/><rect fill="#F8F8F8" height="5" style="stroke: #383838; stroke-width: 1.0;" width="10" x="613.34" y="728.2444"/><text fill="#000000" font-family="Tahoma" font-size="12" lengthAdjust="spacingAndGlyphs" textLength="49" x="628.34" y="725.7659">@hpcc-js</text><!--entity eslint-config-prettier--><rect fill="#F8F8F8" height="34.4844" rx="3" ry="3" style="stroke: #383838; stroke-width: 1.0;" width="128" x="588.84" y="652.76"/><rect fill="#F8F8F8" height="5" style="stroke: #383838; stroke-width: 1.0;" width="10" x="583.84" y="657.76"/><rect fill="#F8F8F8" height="5" style="stroke: #383838; stroke-width: 1.0;" width="10" x="583.84" y="677.2444"/><text fill="#000000" font-family="Tahoma" font-size="12" lengthAdjust="spacingAndGlyphs" textLength="108" x="598.84" y="674.7659">eslint-config-prettier</text><!--entity nanomatch--><rect fill="#F8F8F8" height="34.4844" rx="3" ry="3" style="stroke: #383838; stroke-width: 1.0;" width="80" x="612.84" y="346.76"/><rect fill="#F8F8F8" height="5" style="stroke: #383838; stroke-width: 1.0;" width="10" x="607.84" y="351.76"/><rect fill="#F8F8F8" height="5" style="stroke: #383838; stroke-width: 1.0;" width="10" x="607.84" y="371.2444"/><text fill="#000000" font-family="Tahoma" font-size="12" lengthAdjust="spacingAndGlyphs" textLength="60" x="622.84" y="368.7659">nanomatch</text><!--entity node-plantuml--><rect fill="#F8F8F8" height="34.4844" rx="3" ry="3" style="stroke: #383838; stroke-width: 1.0;" width="98" x="603.84" y="295.76"/><rect fill="#F8F8F8" height="5" style="stroke: #383838; stroke-width: 1.0;" width="10" x="598.84" y="300.76"/><rect fill="#F8F8F8" height="5" style="stroke: #383838; stroke-width: 1.0;" width="10" x="598.84" y="320.2444"/><text fill="#000000" font-family="Tahoma" font-size="12" lengthAdjust="spacingAndGlyphs" textLength="78" x="613.84" y="317.7659">node-plantuml</text><!--entity pino--><rect fill="#F8F8F8" height="34.4844" rx="3" ry="3" style="stroke: #383838; stroke-width: 1.0;" width="44" x="630.84" y="448.76"/><rect fill="#F8F8F8" height="5" style="stroke: #383838; stroke-width: 1.0;" width="10" x="625.84" y="453.76"/><rect fill="#F8F8F8" height="5" style="stroke: #383838; stroke-width: 1.0;" width="10" x="625.84" y="473.2444"/><text fill="#000000" font-family="Tahoma" font-size="12" lengthAdjust="spacingAndGlyphs" textLength="24" x="640.84" y="470.7659">pino</text><!--entity progress--><rect fill="#F8F8F8" height="34.4844" rx="3" ry="3" style="stroke: #383838; stroke-width: 1.0;" width="65" x="620.34" y="397.76"/><rect fill="#F8F8F8" height="5" style="stroke: #383838; stroke-width: 1.0;" width="10" x="615.34" y="402.76"/><rect fill="#F8F8F8" height="5" style="stroke: #383838; stroke-width: 1.0;" width="10" x="615.34" y="422.2444"/><text fill="#000000" font-family="Tahoma" font-size="12" lengthAdjust="spacingAndGlyphs" textLength="45" x="630.34" y="419.7659">progress</text><!--entity resolve--><rect fill="#F8F8F8" height="34.4844" rx="3" ry="3" style="stroke: #383838; stroke-width: 1.0;" width="57" x="624.34" y="550.76"/><rect fill="#F8F8F8" height="5" style="stroke: #383838; stroke-width: 1.0;" width="10" x="619.34" y="555.76"/><rect fill="#F8F8F8" height="5" style="stroke: #383838; stroke-width: 1.0;" width="10" x="619.34" y="575.2444"/><text fill="#000000" font-family="Tahoma" font-size="12" lengthAdjust="spacingAndGlyphs" textLength="37" x="634.34" y="572.7659">resolve</text><!--entity ts-morph--><rect fill="#F8F8F8" height="34.4844" rx="3" ry="3" style="stroke: #383838; stroke-width: 1.0;" width="68" x="618.84" y="601.76"/><rect fill="#F8F8F8" height="5" style="stroke: #383838; stroke-width: 1.0;" width="10" x="613.84" y="606.76"/><rect fill="#F8F8F8" height="5" style="stroke: #383838; stroke-width: 1.0;" width="10" x="613.84" y="626.2444"/><text fill="#000000" font-family="Tahoma" font-size="12" lengthAdjust="spacingAndGlyphs" textLength="48" x="628.84" y="623.7659">ts-morph</text><!--entity tsconfig-paths--><rect fill="#F8F8F8" height="34.4844" rx="3" ry="3" style="stroke: #383838; stroke-width: 1.0;" width="96" x="604.84" y="499.76"/><rect fill="#F8F8F8" height="5" style="stroke: #383838; stroke-width: 1.0;" width="10" x="599.84" y="504.76"/><rect fill="#F8F8F8" height="5" style="stroke: #383838; stroke-width: 1.0;" width="10" x="599.84" y="524.2444"/><text fill="#000000" font-family="Tahoma" font-size="12" lengthAdjust="spacingAndGlyphs" textLength="76" x="614.84" y="521.7659">tsconfig-paths</text><!--entity yargs--><rect fill="#F8F8F8" height="34.4844" rx="3" ry="3" style="stroke: #383838; stroke-width: 1.0;" width="48" x="628.84" y="244.76"/><rect fill="#F8F8F8" height="5" style="stroke: #383838; stroke-width: 1.0;" width="10" x="623.84" y="249.76"/><rect fill="#F8F8F8" height="5" style="stroke: #383838; stroke-width: 1.0;" width="10" x="623.84" y="269.2444"/><text fill="#000000" font-family="Tahoma" font-size="12" lengthAdjust="spacingAndGlyphs" textLength="28" x="638.84" y="266.7659">yargs</text><ellipse cx="62.959" cy="268.002" fill="#F8F8F8" rx="22.799" ry="13.242" style="stroke: #383838; stroke-width: 0.5;"/><text fill="#000000" font-family="Tahoma" font-size="12" font-weight="bold" lengthAdjust="spacingAndGlyphs" textLength="28" x="48.959" y="271.7442">arkit</text><ellipse cx="364.4306" cy="103.9985" fill="#F8F8F8" rx="13.8606" ry="11.6885" style="stroke: #383838; stroke-width: 0.5;"/><text fill="#000000" font-family="Tahoma" font-size="12" lengthAdjust="spacingAndGlyphs" textLength="12" x="358.4306" y="107.7406">cli</text><!--entity _config--><rect fill="#F8F8F8" height="34.4844" rx="3" ry="3" style="stroke: #000000; stroke-width: 0.5;" width="54" x="192.46" y="250.76"/><text fill="#000000" font-family="Tahoma" font-size="12" lengthAdjust="spacingAndGlyphs" textLength="34" x="202.46" y="272.7659">config</text><!--entity _converter--><rect fill="#F8F8F8" height="34.4844" rx="3" ry="3" style="stroke: #000000; stroke-width: 0.5;" width="70" x="329.43" y="342.76"/><text fill="#000000" font-family="Tahoma" font-size="12" lengthAdjust="spacingAndGlyphs" textLength="50" x="339.43" y="364.7659">converter</text><ellipse cx="364.4264" cy="734.002" fill="#F8F8F8" rx="45.4264" ry="13.242" style="stroke: #383838; stroke-width: 0.5;"/><text fill="#000000" font-family="Tahoma" font-size="12" font-weight="bold" lengthAdjust="spacingAndGlyphs" textLength="60" x="334.4264" y="737.7442">dot-wasm</text><ellipse cx="499.3503" cy="694.9981" fill="#F8F8F8" rx="55.4903" ry="13.4981" style="stroke: #383838; stroke-width: 0.5;"/><text fill="#000000" font-family="Tahoma" font-size="12" font-weight="bold" lengthAdjust="spacingAndGlyphs" textLength="76" x="461.3503" y="698.7402">eslint.config</text><!--entity _filesystem--><rect fill="#F8F8F8" height="34.4844" rx="3" ry="3" style="stroke: #000000; stroke-width: 0.5;" width="72" x="183.46" y="462.76"/><text fill="#000000" font-family="Tahoma" font-size="12" lengthAdjust="spacingAndGlyphs" textLength="52" x="193.46" y="484.7659">filesystem</text><!--entity _generator--><rect fill="#F8F8F8" height="34.4844" rx="3" ry="3" style="stroke: #000000; stroke-width: 0.5;" width="71" x="183.96" y="301.76"/><text fill="#000000" font-family="Tahoma" font-size="12" lengthAdjust="spacingAndGlyphs" textLength="51" x="193.96" y="323.7659">generator</text><ellipse cx="62.9558" cy="24.0012" fill="#F8F8F8" rx="56.9558" ry="13.7912" style="stroke: #383838; stroke-width: 0.5;"/><text fill="#000000" font-family="Tahoma" font-size="12" font-weight="bold" lengthAdjust="spacingAndGlyphs" textLength="80" x="22.9558" y="27.7434">hpcc-wasm.d</text><ellipse cx="62.9616" cy="68.002" fill="#F8F8F8" rx="27.0416" ry="13.242" style="stroke: #383838; stroke-width: 0.5;"/><text fill="#000000" font-family="Tahoma" font-size="12" font-weight="bold" lengthAdjust="spacingAndGlyphs" textLength="34" x="45.9616" y="71.7442">index</text><ellipse cx="499.3516" cy="407.002" fill="#F8F8F8" rx="27.0416" ry="13.242" style="stroke: #383838; stroke-width: 0.5;"/><text fill="#000000" font-family="Tahoma" font-size="12" lengthAdjust="spacingAndGlyphs" textLength="34" x="482.3516" y="410.7442">logger</text><ellipse cx="219.4578" cy="23.9996" fill="#F8F8F8" rx="65.5478" ry="15.5096" style="stroke: #383838; stroke-width: 0.5;"/><text fill="#000000" font-family="Tahoma" font-size="12" font-weight="bold" lengthAdjust="spacingAndGlyphs" textLength="102" x="168.4578" y="27.7418">node-plantuml.d</text><!--entity _parser--><rect fill="#F8F8F8" height="34.4844" rx="3" ry="3" style="stroke: #000000; stroke-width: 0.5;" width="52" x="36.96" y="440.76"/><text fill="#000000" font-family="Tahoma" font-size="12" lengthAdjust="spacingAndGlyphs" textLength="32" x="46.96" y="462.7659">parser</text><!--entity _puml--><rect fill="#F8F8F8" height="34.4844" rx="3" ry="3" style="stroke: #000000; stroke-width: 0.5;" width="47" x="195.96" y="164.76"/><text fill="#000000" font-family="Tahoma" font-size="12" lengthAdjust="spacingAndGlyphs" textLength="27" x="205.96" y="186.7659">puml</text><!--entity _schema--><rect fill="#F8F8F8" height="34.4844" rx="3" ry="3" style="stroke: #000000; stroke-width: 0.5;" width="60" x="622.84" y="161.76"/><text fill="#000000" font-family="Tahoma" font-size="12" lengthAdjust="spacingAndGlyphs" textLength="40" x="632.84" y="183.7659">schema</text><!--entity _types--><rect fill="#F8F8F8" height="34.4844" rx="3" ry="3" style="stroke: #000000; stroke-width: 0.5;" width="48" x="475.35" y="229.76"/><text fill="#000000" font-family="Tahoma" font-size="12" lengthAdjust="spacingAndGlyphs" textLength="28" x="485.35" y="251.7659">types</text><ellipse cx="364.4263" cy="407.002" fill="#F8F8F8" rx="18.5563" ry="13.242" style="stroke: #383838; stroke-width: 0.5;"/><text fill="#000000" font-family="Tahoma" font-size="12" lengthAdjust="spacingAndGlyphs" textLength="22" x="353.4263" y="410.7442">utils</text><!--link <b>arkit</b> to cli--><path d="M67.87,255.01 C77.31,226.13 104.32,156.77 153.91,126 C214.73,88.26 304.99,95.36 344.15,100.8 " fill="none" id="&lt;b&gt;arkit&lt;/b&gt;-cli" style="stroke: #000000; stroke-width: 1.0;"/><polygon fill="#000000" points="348.92,101.5,340.5846,96.2539,343.9714,100.7849,339.4404,104.1717,348.92,101.5" style="stroke: #000000; stroke-width: 1.0;"/><!--link <b>arkit</b> to _config--><path d="M86.09,268 C112.19,268 155.79,268 185.78,268 " fill="none" id="&lt;b&gt;arkit&lt;/b&gt;-_config" style="stroke: #000000; stroke-width: 1.0;"/><polygon fill="#000000" points="190.45,268,181.45,264,185.45,268,181.45,272,190.45,268" style="stroke: #000000; stroke-width: 1.0;"/><!--link <b>arkit</b> to _converter--><path d="M73.48,280.02 C88.44,297.86 119.3,330.79 153.91,345 C209.1,367.67 279.32,367.49 322.82,364.41 " fill="none" id="&lt;b&gt;arkit&lt;/b&gt;-_converter" style="stroke: #000000; stroke-width: 1.0;"/><polygon fill="#000000" points="327.79,364.03,318.5177,360.7097,322.8038,364.4015,319.112,368.6876,327.79,364.03" style="stroke: #000000; stroke-width: 1.0;"/><!--link <b>arkit</b> to _generator--><path d="M83.21,274.36 C106.72,282.12 147.12,295.45 177.66,305.53 " fill="none" id="&lt;b&gt;arkit&lt;/b&gt;-_generator" style="stroke: #000000; stroke-width: 1.0;"/><polygon fill="#000000" points="182.19,307.03,174.9048,300.4024,177.4437,305.4574,172.3887,307.9964,182.19,307.03" style="stroke: #000000; stroke-width: 1.0;"/><!--link <b>arkit</b> to _parser--><path d="M62.96,281.48 C62.96,332.44 62.96,383.39 62.96,434.34 " fill="none" id="&lt;b&gt;arkit&lt;/b&gt;-_parser" style="stroke: #000000; stroke-width: 1.0;"/><polygon fill="#000000" points="62.96,439.05,66.96,430.05,62.96,434.05,58.96,430.05,62.96,439.05" style="stroke: #000000; stroke-width: 1.0;"/><!--link <b>arkit</b> to progress--><path d="M66.55,254.46 C73.71,221.22 97.1,135.58 153.91,98 C248.93,35.15 304,41.9 409.86,84 C492.24,116.76 517.37,140.66 554.84,221 C570.74,255.1 541.33,360.63 564.84,390 C576.47,404.53 595.97,410.97 613.56,413.69 " fill="none" id="&lt;b&gt;arkit&lt;/b&gt;-progress" style="stroke: #000000; stroke-width: 1.0;"/><polygon fill="#000000" points="618.43,414.33,610.0337,409.182,613.4734,413.6729,608.9824,417.1126,618.43,414.33" style="stroke: #000000; stroke-width: 1.0;"/><!--link <b>arkit</b> to _puml--><path d="M78.59,258.12 C96.12,246.46 126.57,226.79 153.91,212 C165.48,205.74 178.59,199.5 189.96,194.34 " fill="none" id="&lt;b&gt;arkit&lt;/b&gt;-_puml" style="stroke: #000000; stroke-width: 1.0;"/><polygon fill="#000000" points="194.34,192.37,184.4912,192.4015,189.7775,194.4153,187.7636,199.7015,194.34,192.37" style="stroke: #000000; stroke-width: 1.0;"/><!--link <b>arkit</b> to _types--><path d="M69.55,255.15 C81.12,230.45 110.28,176.92 153.91,156 C256.87,106.64 307.8,126.83 409.86,178 C428.41,187.3 427.67,197.02 443.86,210 C451.99,216.52 461.23,223.08 469.77,228.83 " fill="none" id="&lt;b&gt;arkit&lt;/b&gt;-_types" style="stroke: #000000; stroke-width: 1.0;"/><polygon fill="#000000" points="473.71,231.46,468.4272,223.1478,469.5454,228.6931,464.0001,229.8113,473.71,231.46" style="stroke: #000000; stroke-width: 1.0;"/><!--link <b>arkit</b> to utils--><path d="M71.22,280.81 C84.51,302.97 115,348.16 153.91,370 C214.18,403.82 298.26,407.97 339.16,407.75 " fill="none" id="&lt;b&gt;arkit&lt;/b&gt;-utils" style="stroke: #000000; stroke-width: 1.0;"/><polygon fill="#000000" points="344.06,407.7,335.0149,403.8031,339.0603,407.7571,335.1063,411.8026,344.06,407.7" style="stroke: #000000; stroke-width: 1.0;"/><!--link cli to yargs--><path d="M376.66,110.19 C417.82,132.9 561.26,212.03 623.11,246.15 " fill="none" id="cli-yargs" style="stroke: #000000; stroke-width: 0.5;"/><polygon fill="#000000" points="627.15,248.38,621.1947,240.5356,622.7698,245.9688,617.3367,247.5439,627.15,248.38" style="stroke: #000000; stroke-width: 0.5;"/><!--link _config to _types--><path d="M246.85,266.01 C298.8,262.08 413.98,253.38 468.56,249.25 " fill="none" id="_config-_types" style="stroke: #000000; stroke-width: 0.5;"/><polygon fill="#000000" points="473.4,248.89,464.1277,245.5697,468.4138,249.2615,464.722,253.5476,473.4,248.89" style="stroke: #000000; stroke-width: 0.5;"/><!--link _config to utils--><path d="M246.88,272.87 C259.85,276.47 274.82,282.62 285.01,293 C315.83,324.41 289.34,353.5 319.01,386 C324.87,392.43 333.12,397.07 340.91,400.32 " fill="none" id="_config-utils" style="stroke: #000000; stroke-width: 0.5;"/><polygon fill="#000000" points="345.33,402.01,338.3515,395.0601,340.6596,400.2247,335.495,402.5327,345.33,402.01" style="stroke: #000000; stroke-width: 0.5;"/><!--link _converter to logger--><path d="M399.66,372.1 C421.79,379.93 450.19,389.97 470.85,397.27 " fill="none" id="_converter-logger" style="stroke: #000000; stroke-width: 0.5;"/><polygon fill="#000000" points="475.3,398.85,468.1358,392.0917,470.5829,397.1919,465.4828,399.639,475.3,398.85" style="stroke: #000000; stroke-width: 0.5;"/><!--link _converter to node-plantuml--><path d="M399.7,354.38 C448.62,346.35 539,331.52 597.22,321.96 " fill="none" id="_converter-node-plantuml" style="stroke: #000000; stroke-width: 0.5;"/><polygon fill="#000000" points="601.95,321.19,592.4254,318.6837,597.0146,321.9911,593.7072,326.5803,601.95,321.19" style="stroke: #000000; stroke-width: 0.5;"/><!--link _converter to _types--><path d="M393.18,342.26 C398.82,338.38 404.62,334.18 409.86,330 C433.99,310.74 459.5,286.32 476.9,268.97 " fill="none" id="_converter-_types" style="stroke: #000000; stroke-width: 0.5;"/><polygon fill="#000000" points="480.07,265.79,470.8776,269.3255,476.5345,269.3255,476.5345,274.9824,480.07,265.79" style="stroke: #000000; stroke-width: 0.5;"/><!--link <b>dot-wasm</b> to @hpcc-js--><path d="M409.56,732 C464.74,729.49 558.44,725.24 611.69,722.82 " fill="none" id="&lt;b&gt;dot-wasm&lt;/b&gt;-@hpcc-js" style="stroke: #000000; stroke-width: 1.0;"/><polygon fill="#000000" points="616.47,722.61,607.2967,719.0252,611.4752,722.8383,607.6621,727.0168,616.47,722.61" style="stroke: #000000; stroke-width: 1.0;"/><!--link <b>eslint.config</b> to eslint-config-prettier--><path d="M546.21,687.43 C557.56,685.56 569.97,683.51 582.17,681.5 " fill="none" id="&lt;b&gt;eslint.config&lt;/b&gt;-eslint-config-prettier" style="stroke: #000000; stroke-width: 1.0;"/><polygon fill="#000000" points="587.03,680.7,577.4995,678.2161,582.0965,681.5127,578.7999,686.1097,587.03,680.7" style="stroke: #000000; stroke-width: 1.0;"/><!--link _filesystem to logger--><path d="M255.94,470.68 C311.34,456.13 417.36,428.28 468.84,414.75 " fill="none" id="_filesystem-logger" style="stroke: #000000; stroke-width: 0.5;"/><polygon fill="#000000" points="473.38,413.56,463.6581,411.9836,468.5448,414.8332,465.6952,419.7199,473.38,413.56" style="stroke: #000000; stroke-width: 0.5;"/><!--link _filesystem to resolve--><path d="M255.88,490.02 C274.58,495.14 297.95,501.27 319.01,506 C427.46,530.37 557.3,552.57 617.76,562.51 " fill="none" id="_filesystem-resolve" style="stroke: #000000; stroke-width: 0.5;"/><polygon fill="#000000" points="622.59,563.3,614.3599,557.8903,617.6565,562.4873,613.0595,565.7839,622.59,563.3" style="stroke: #000000; stroke-width: 0.5;"/><!--link _filesystem to _schema--><path d="M255.91,480.09 C333.83,479.46 516.17,473.19 554.84,429 C569.2,412.59 553.76,251.78 564.84,233 C576.39,213.44 598.08,199.95 616.92,191.35 " fill="none" id="_filesystem-_schema" style="stroke: #000000; stroke-width: 0.5;"/><polygon fill="#000000" points="621.27,189.44,611.4214,189.3715,616.6869,191.4388,614.6195,196.7044,621.27,189.44" style="stroke: #000000; stroke-width: 0.5;"/><!--link _filesystem to ts-morph--><path d="M252.64,497.56 C271.57,507.42 296.21,519.42 319.01,528 C422.26,566.87 549.22,596.91 612.33,610.71 " fill="none" id="_filesystem-ts-morph" style="stroke: #000000; stroke-width: 0.5;"/><polygon fill="#000000" points="617.12,611.75,609.1857,605.915,612.2361,610.679,607.4721,613.7293,617.12,611.75" style="stroke: #000000; stroke-width: 0.5;"/><!--link _filesystem to tsconfig-paths--><path d="M255.5,485.61 C274.29,488.45 297.87,491.77 319.01,494 C417.22,504.36 532.25,511.12 598.13,514.48 " fill="none" id="_filesystem-tsconfig-paths" style="stroke: #000000; stroke-width: 0.5;"/><polygon fill="#000000" points="602.83,514.72,594.0473,510.263,597.8366,514.4632,593.6364,518.2525,602.83,514.72" style="stroke: #000000; stroke-width: 0.5;"/><!--link _filesystem to _types--><path d="M228.21,462.28 C242.24,432.1 274.54,370.45 319.01,334 C352.86,306.25 370.47,315.07 409.86,296 C430.17,286.17 452.38,273.86 469.47,264.04 " fill="none" id="_filesystem-_types" style="stroke: #000000; stroke-width: 0.5;"/><polygon fill="#000000" points="473.75,261.57,463.9559,262.6074,469.4203,264.0707,467.957,269.535,473.75,261.57" style="stroke: #000000; stroke-width: 0.5;"/><!--link _filesystem to utils--><path d="M255.77,463.39 C265.3,458.81 275.58,453.78 285.01,449 C305.12,438.79 327.82,426.56 343.6,417.94 " fill="none" id="_filesystem-utils" style="stroke: #000000; stroke-width: 0.5;"/><polygon fill="#000000" points="347.75,415.66,337.9346,416.4715,343.3638,418.0603,341.7751,423.4894,347.75,415.66" style="stroke: #000000; stroke-width: 0.5;"/><!--link _generator to _types--><path d="M255.37,309.95 C310.7,295.62 417.54,267.94 469.1,254.58 " fill="none" id="_generator-_types" style="stroke: #000000; stroke-width: 0.5;"/><polygon fill="#000000" points="473.64,253.4,463.9237,251.7897,468.8004,254.6563,465.9338,259.533,473.64,253.4" style="stroke: #000000; stroke-width: 0.5;"/><!--link _generator to utils--><path d="M244.09,336.6 C263.64,350.78 292.43,370.8 319.01,386 C326.44,390.25 334.88,394.4 342.39,397.87 " fill="none" id="_generator-utils" style="stroke: #000000; stroke-width: 0.5;"/><polygon fill="#000000" points="346.54,399.75,339.9828,392.4013,341.9828,397.6928,336.6913,399.6929,346.54,399.75" style="stroke: #000000; stroke-width: 0.5;"/><!--link logger to pino--><path d="M520.86,415.45 C531.33,420.09 544.09,426.26 554.84,433 C559.66,436.02 559.79,438.39 564.84,441 C583.61,450.71 606.67,457.12 624.33,461.01 " fill="none" id="logger-pino" style="stroke: #000000; stroke-width: 0.5;"/><polygon fill="#000000" points="629.1,462.02,621.1298,456.2341,624.2095,460.9792,619.4645,464.0589,629.1,462.02" style="stroke: #000000; stroke-width: 0.5;"/><!--link _parser to _filesystem--><path d="M89.12,461.58 C112.89,464.97 148.98,470.11 177,474.1 " fill="none" id="_parser-_filesystem" style="stroke: #000000; stroke-width: 0.5;"/><polygon fill="#000000" points="181.71,474.77,173.3598,469.5475,176.7594,474.0689,172.238,477.4685,181.71,474.77" style="stroke: #000000; stroke-width: 0.5;"/><!--link _parser to progress--><path d="M88.95,475.66 C106.28,486.78 130.39,500.12 153.91,506 C210.44,520.14 226.86,509.76 285.01,506 C405.69,498.21 461.87,548.34 554.84,471 C565.97,461.74 554.44,450.07 564.84,440 C577.91,427.34 596.96,421.02 613.9,417.89 " fill="none" id="_parser-progress" style="stroke: #000000; stroke-width: 0.5;"/><polygon fill="#000000" points="618.53,417.13,608.9914,414.6775,613.5992,417.9589,610.3177,422.5667,618.53,417.13" style="stroke: #000000; stroke-width: 0.5;"/><!--link _parser to ts-morph--><path d="M85.55,475.56 C102.99,488.87 128.7,506.6 153.91,517 C315.86,583.81 526.09,608.34 612.31,615.99 " fill="none" id="_parser-ts-morph" style="stroke: #000000; stroke-width: 0.5;"/><polygon fill="#000000" points="617.04,616.4,608.4156,611.6439,612.0584,615.9718,607.7305,619.6145,617.04,616.4" style="stroke: #000000; stroke-width: 0.5;"/><!--link _parser to _types--><path d="M68.55,440.54 C81.35,393.38 118.76,265.44 153.91,242 C204.87,208.02 394.77,231.61 468.66,242.41 " fill="none" id="_parser-_types" style="stroke: #000000; stroke-width: 0.5;"/><polygon fill="#000000" points="473.53,243.13,465.2073,237.8638,468.5831,242.4029,464.044,245.7788,473.53,243.13" style="stroke: #000000; stroke-width: 0.5;"/><!--link _parser to utils--><path d="M89.23,453.7 C146.28,443.98 284.37,420.46 339.81,411.02 " fill="none" id="_parser-utils" style="stroke: #000000; stroke-width: 0.5;"/><polygon fill="#000000" points="344.66,410.2,335.1145,407.7743,339.7315,411.0428,336.4631,415.6599,344.66,410.2" style="stroke: #000000; stroke-width: 0.5;"/><!--link _puml to _schema--><path d="M231.54,164.42 C247.53,140.9 279.53,100.29 319.01,84 C427.39,39.28 563.9,117.91 622.71,157.84 " fill="none" id="_puml-_schema" style="stroke: #000000; stroke-width: 0.5;"/><polygon fill="#000000" points="626.57,160.49,621.4062,152.1034,622.4452,157.664,616.8846,158.7031,626.57,160.49" style="stroke: #000000; stroke-width: 0.5;"/><!--link _puml to _types--><path d="M243.18,181.11 C279.3,180.34 351.71,181.44 409.86,199 C431.06,205.4 452.94,217.22 469.65,227.53 " fill="none" id="_puml-_types" style="stroke: #000000; stroke-width: 0.5;"/><polygon fill="#000000" points="473.82,230.15,468.3278,221.9747,469.5864,227.4897,464.0714,228.7484,473.82,230.15" style="stroke: #000000; stroke-width: 0.5;"/><!--link _puml to utils--><path d="M243.44,197.82 C257.5,208.67 274.7,224.28 285.01,242 C318.07,298.84 277.63,334.89 319.01,386 C324.48,392.76 332.65,397.47 340.49,400.69 " fill="none" id="_puml-utils" style="stroke: #000000; stroke-width: 0.5;"/><polygon fill="#000000" points="344.95,402.34,337.8839,395.4793,340.2573,400.6141,335.1225,402.9876,344.95,402.34" style="stroke: #000000; stroke-width: 0.5;"/><!--link _types to _schema--><path d="M523.69,236.52 C548.48,225.39 587.97,207.67 616.57,194.83 " fill="none" id="_types-_schema" style="stroke: #000000; stroke-width: 0.5;"/><polygon fill="#000000" points="621.12,192.79,611.2712,192.81,616.5551,194.83,614.5351,200.1139,621.12,192.79" style="stroke: #000000; stroke-width: 0.5;"/><!--link utils to logger--><path d="M383.36,407 C404.39,407 439.69,407 465.64,407 " fill="none" id="utils-logger" style="stroke: #000000; stroke-width: 0.5;"/><polygon fill="#000000" points="470.51,407,461.51,403,465.51,407,461.51,411,470.51,407" style="stroke: #000000; stroke-width: 0.5;"/><!--link utils to nanomatch--><path d="M381.76,401.53 C397.49,396.47 422.05,389.13 443.86,385 C499.15,374.54 563.75,369.04 606.11,366.34 " fill="none" id="utils-nanomatch" style="stroke: #000000; stroke-width: 0.5;"/><polygon fill="#000000" points="610.94,366.04,601.7068,362.6125,605.9498,366.3537,602.2087,370.5967,610.94,366.04" style="stroke: #000000; stroke-width: 0.5;"/><!--link utils to ts-morph--><path d="M378.55,415.63 C411.83,438.07 500.75,501.52 554.84,573 C561.08,581.24 556.95,587.32 564.84,594 C578.07,605.21 596.06,611.4 612.25,614.82 " fill="none" id="utils-ts-morph" style="stroke: #000000; stroke-width: 0.5;"/><polygon fill="#000000" points="617.1,615.75,609.0149,610.1258,612.1896,614.8079,607.5075,617.9825,617.1,615.75" style="stroke: #000000; stroke-width: 0.5;"/><!--link utils to _types--><path d="M381.93,401.75 C390.91,398.31 401.8,393.11 409.86,386 C447.27,353.01 474.78,300.47 488.51,270.32 " fill="none" id="utils-_types" style="stroke: #000000; stroke-width: 0.5;"/><polygon fill="#000000" points="490.45,265.98,483.1261,272.5649,488.41,270.5449,490.43,275.8288,490.45,265.98" style="stroke: #000000; stroke-width: 0.5;"/><!--link <b>hpcc-wasm.d</b> to <b>index</b>--><!--link <b>hpcc-wasm.d</b> to <b>node-plantuml.d</b>--><!--
@startuml

scale max 1920 width
left to right direction

skinparam nodesep 17
skinparam ranksep 34
skinparam monochrome true
skinparam shadowing false
skinparam defaultFontName Tahoma
skinparam defaultFontSize 12
skinparam roundCorner 6
skinparam dpi 150
skinparam arrowColor black
skinparam arrowThickness 0.5
skinparam packageTitleAlignment left

skinparam usecase {
  borderThickness 0.5
}

skinparam rectangle {
  borderThickness 0.5
}

skinparam component {
  borderThickness 1
}


(<b>arkit</b>)
(cli)
rectangle "config" as _config
rectangle "converter" as _converter
(<b>dot-wasm</b>)
(<b>eslint.config</b>)
rectangle "filesystem" as _filesystem
rectangle "generator" as _generator
(<b>hpcc-wasm.d</b>)
(<b>index</b>)
(logger)
(<b>node-plantuml.d</b>)
rectangle "parser" as _parser
rectangle "puml" as _puml
rectangle "schema" as _schema
rectangle "types" as _types
(utils)

package "Dependencies" {
  [@hpcc-js]
  [eslint-config-prettier]
  [nanomatch]
  [node-plantuml]
  [pino]
  [progress]
  [resolve]
  [ts-morph]
  [tsconfig-paths]
  [yargs]
}

(<b>arkit</b>) -[thickness=1]> (cli)
(<b>arkit</b>) -[thickness=1]> _config
(<b>arkit</b>) -[thickness=1]> _converter
(<b>arkit</b>) -[thickness=1]> _generator
(<b>arkit</b>) -[thickness=1]> _parser
(<b>arkit</b>) - - -[thickness=1]> [progress]
(<b>arkit</b>) -[thickness=1]> _puml
(<b>arkit</b>) -[thickness=1]> _types
(<b>arkit</b>) -[thickness=1]> (utils)
(cli) - - -> [yargs]
_config - -> _types
_config - -> (utils)
_converter - -> (logger)
_converter - - -> [node-plantuml]
_converter - -> _types
(<b>dot-wasm</b>) - - -[thickness=1]> [@hpcc-js]
(<b>eslint.config</b>) - -[thickness=1]> [eslint-config-prettier]
_filesystem - -> (logger)
_filesystem - - -> [resolve]
_filesystem - -> _schema
_filesystem - - -> [ts-morph]
_filesystem - - -> [tsconfig-paths]
_filesystem - -> _types
_filesystem - -> (utils)
_generator - -> _types
_generator - -> (utils)
(logger) - - -> [pino]
_parser - -> _filesystem
_parser - - -> [progress]
_parser - - -> [ts-morph]
_parser - -> _types
_parser - -> (utils)
_puml - -> _schema
_puml - -> _types
_puml - -> (utils)
_types - -> _schema
(utils) - -> (logger)
(utils) - - -> [nanomatch]
(utils) - - -> [ts-morph]
(utils) - -> _types

@enduml

PlantUML version 1.2019.06(Fri May 24 19:10:25 CEST 2019)
(GPL source distribution)
Java Runtime: OpenJDK Runtime Environment
JVM: OpenJDK 64-Bit Server VM
Java Version: 17.0.18+0
Operating System: Mac OS X
OS Version: 26.3.1
Default Encoding: UTF-8
Language: en
Country: SE
--></g></svg>