<?xml version="1.0" encoding="UTF-8" standalone="no"?><svg xmlns="http://www.w3.org/2000/svg" xmlns:xlink="http://www.w3.org/1999/xlink" contentScriptType="application/ecmascript" contentStyleType="text/css" height="524px" preserveAspectRatio="none" style="width:681px;height:524px;" version="1.1" viewBox="0 0 681 524" width="681px" zoomAndPan="magnify"><defs/><g><!--cluster Dependencies--><path d="M16,445 L102,445 A3,3 0 0 1 104,447 L111,465.4844 L611,465.4844 A2,2 0 0 1 613,467.4844 L613,510 A2,2 0 0 1 611,512 L16,512 A2,2 0 0 1 14,510 L14,447 A2,2 0 0 1 16,445 " fill="#FFFFFF" style="stroke: #000000; stroke-width: 1.5;"/><line style="stroke: #000000; stroke-width: 1.5;" x1="14" x2="111" y1="465.4844" y2="465.4844"/><text fill="#000000" font-family="Tahoma, sans-serif" font-size="12" font-weight="bold" lengthAdjust="spacingAndGlyphs" textLength="84" x="18" y="459.0059">Dependencies</text><!--entity nanomatch--><rect fill="#F8F8F8" height="34.4844" rx="2" ry="2" style="stroke: #383838; stroke-width: 1.0;" width="81" x="369.5" y="470"/><rect fill="#F8F8F8" height="5" style="stroke: #383838; stroke-width: 1.0;" width="10" x="364.5" y="475"/><rect fill="#F8F8F8" height="5" style="stroke: #383838; stroke-width: 1.0;" width="10" x="364.5" y="494.4844"/><text fill="#000000" font-family="Tahoma, sans-serif" font-size="12" lengthAdjust="spacingAndGlyphs" textLength="61" x="379.5" y="492.0059">nanomatch</text><!--entity pino--><rect fill="#F8F8F8" height="34.4844" rx="2" ry="2" style="stroke: #383838; stroke-width: 1.0;" width="43" x="306.5" y="470"/><rect fill="#F8F8F8" height="5" style="stroke: #383838; stroke-width: 1.0;" width="10" x="301.5" y="475"/><rect fill="#F8F8F8" height="5" style="stroke: #383838; stroke-width: 1.0;" width="10" x="301.5" y="494.4844"/><text fill="#000000" font-family="Tahoma, sans-serif" font-size="12" lengthAdjust="spacingAndGlyphs" textLength="23" x="316.5" y="492.0059">pino</text><!--entity progress--><rect fill="#F8F8F8" height="34.4844" rx="2" ry="2" style="stroke: #383838; stroke-width: 1.0;" width="66" x="471" y="470"/><rect fill="#F8F8F8" height="5" style="stroke: #383838; stroke-width: 1.0;" width="10" x="466" y="475"/><rect fill="#F8F8F8" height="5" style="stroke: #383838; stroke-width: 1.0;" width="10" x="466" y="494.4844"/><text fill="#000000" font-family="Tahoma, sans-serif" font-size="12" lengthAdjust="spacingAndGlyphs" textLength="46" x="481" y="492.0059">progress</text><!--entity resolve--><rect fill="#F8F8F8" height="34.4844" rx="2" ry="2" style="stroke: #383838; stroke-width: 1.0;" width="58" x="22" y="470"/><rect fill="#F8F8F8" height="5" style="stroke: #383838; stroke-width: 1.0;" width="10" x="17" y="475"/><rect fill="#F8F8F8" height="5" style="stroke: #383838; stroke-width: 1.0;" width="10" x="17" y="494.4844"/><text fill="#000000" font-family="Tahoma, sans-serif" font-size="12" lengthAdjust="spacingAndGlyphs" textLength="38" x="32" y="492.0059">resolve</text><!--entity ts-morph--><rect fill="#F8F8F8" height="34.4844" rx="2" ry="2" style="stroke: #383838; stroke-width: 1.0;" width="69" x="100.5" y="470"/><rect fill="#F8F8F8" height="5" style="stroke: #383838; stroke-width: 1.0;" width="10" x="95.5" y="475"/><rect fill="#F8F8F8" height="5" style="stroke: #383838; stroke-width: 1.0;" width="10" x="95.5" y="494.4844"/><text fill="#000000" font-family="Tahoma, sans-serif" font-size="12" lengthAdjust="spacingAndGlyphs" textLength="49" x="110.5" y="492.0059">ts-morph</text><!--entity tsconfig-paths--><rect fill="#F8F8F8" height="34.4844" rx="2" ry="2" style="stroke: #383838; stroke-width: 1.0;" width="97" x="189.5" y="470"/><rect fill="#F8F8F8" height="5" style="stroke: #383838; stroke-width: 1.0;" width="10" x="184.5" y="475"/><rect fill="#F8F8F8" height="5" style="stroke: #383838; stroke-width: 1.0;" width="10" x="184.5" y="494.4844"/><text fill="#000000" font-family="Tahoma, sans-serif" font-size="12" lengthAdjust="spacingAndGlyphs" textLength="77" x="199.5" y="492.0059">tsconfig-paths</text><!--entity yargs--><rect fill="#F8F8F8" height="34.4844" rx="2" ry="2" style="stroke: #383838; stroke-width: 1.0;" width="48" x="557" y="470"/><rect fill="#F8F8F8" height="5" style="stroke: #383838; stroke-width: 1.0;" width="10" x="552" y="475"/><rect fill="#F8F8F8" height="5" style="stroke: #383838; stroke-width: 1.0;" width="10" x="552" y="494.4844"/><text fill="#000000" font-family="Tahoma, sans-serif" font-size="12" lengthAdjust="spacingAndGlyphs" textLength="28" x="567" y="492.0059">yargs</text><ellipse cx="389.799" cy="25.242" fill="#F8F8F8" rx="22.799" ry="13.242" style="stroke: #383838; stroke-width: 0.5;"/><text fill="#000000" font-family="Tahoma, sans-serif" font-size="12" font-weight="bold" lengthAdjust="spacingAndGlyphs" textLength="28" x="375.799" y="28.9842">arkit</text><!--entity _config--><rect fill="#F8F8F8" height="34.4844" rx="2" ry="2" style="stroke: #000000; stroke-width: 0.5;" width="53" x="334.5" y="102"/><text fill="#000000" font-family="Tahoma, sans-serif" font-size="12" lengthAdjust="spacingAndGlyphs" textLength="33" x="344.5" y="124.0059">config</text><!--entity _generator--><rect fill="#F8F8F8" height="34.4844" rx="2" ry="2" style="stroke: #000000; stroke-width: 0.5;" width="74" x="465" y="8"/><text fill="#000000" font-family="Tahoma, sans-serif" font-size="12" lengthAdjust="spacingAndGlyphs" textLength="54" x="475" y="30.0059">generator</text><!--entity _generator_base--><rect fill="#F8F8F8" height="34.4844" rx="2" ry="2" style="stroke: #000000; stroke-width: 0.5;" width="103" x="450.5" y="102"/><text fill="#000000" font-family="Tahoma, sans-serif" font-size="12" lengthAdjust="spacingAndGlyphs" textLength="83" x="460.5" y="124.0059">generator.base</text><ellipse cx="585.8345" cy="25.242" fill="#F8F8F8" rx="26.3345" ry="13.242" style="stroke: #383838; stroke-width: 0.5;"/><text fill="#000000" font-family="Tahoma, sans-serif" font-size="12" font-weight="bold" lengthAdjust="spacingAndGlyphs" textLength="33" x="569.3345" y="28.9842">index</text><ellipse cx="316.0416" cy="299.242" fill="#F8F8F8" rx="27.0416" ry="13.242" style="stroke: #383838; stroke-width: 0.5;"/><text fill="#000000" font-family="Tahoma, sans-serif" font-size="12" lengthAdjust="spacingAndGlyphs" textLength="34" x="299.0416" y="302.9842">logger</text><!--entity _parser--><rect fill="#F8F8F8" height="34.4844" rx="2" ry="2" style="stroke: #000000; stroke-width: 0.5;" width="53" x="176.5" y="102"/><text fill="#000000" font-family="Tahoma, sans-serif" font-size="12" lengthAdjust="spacingAndGlyphs" textLength="33" x="186.5" y="124.0059">parser</text><!--entity _schema--><rect fill="#F8F8F8" height="34.4844" rx="2" ry="2" style="stroke: #000000; stroke-width: 0.5;" width="61" x="405.5" y="376"/><text fill="#000000" font-family="Tahoma, sans-serif" font-size="12" lengthAdjust="spacingAndGlyphs" textLength="41" x="415.5" y="398.0059">schema</text><!--entity _types--><rect fill="#F8F8F8" height="34.4844" rx="2" ry="2" style="stroke: #000000; stroke-width: 0.5;" width="50" x="405" y="282"/><text fill="#000000" font-family="Tahoma, sans-serif" font-size="12" lengthAdjust="spacingAndGlyphs" textLength="30" x="415" y="304.0059">types</text><ellipse cx="327.8492" cy="209.242" fill="#F8F8F8" rx="17.8492" ry="13.242" style="stroke: #383838; stroke-width: 0.5;"/><text fill="#000000" font-family="Tahoma, sans-serif" font-size="12" lengthAdjust="spacingAndGlyphs" textLength="21" x="317.3492" y="212.9842">utils</text><!--link <b>arkit</b> to _config--><path d="M385.9677,38.0703 C381.2732,53.287 373.4441,78.6639 367.8033,96.9478 " fill="none" id="&lt;b&gt;arkit&lt;/b&gt;-_config" style="stroke: #000000; stroke-width: 1.0;"/><polygon fill="#000000" points="366.2748,101.9024,372.7504,94.4817,367.7489,97.1246,365.106,92.1231,366.2748,101.9024" style="stroke: #000000; stroke-width: 1.0;"/><!--link <b>arkit</b> to _generator--><path d="M413.1875,25 C428.6681,25 444.1486,25 459.6292,25 " fill="none" id="&lt;b&gt;arkit&lt;/b&gt;-_generator" style="stroke: #000000; stroke-width: 1.0;"/><polygon fill="#000000" points="464.8792,25,455.8792,21,459.8792,25,455.8792,29,464.8792,25" style="stroke: #000000; stroke-width: 1.0;"/><!--link <b>arkit</b> to _parser--><path d="M372.7427,33.6748 C341.2903,49.4851 274.2227,83.1982 234.4532,103.1893 " fill="none" id="&lt;b&gt;arkit&lt;/b&gt;-_parser" style="stroke: #000000; stroke-width: 1.0;"/><polygon fill="#000000" points="229.7428,105.5571,239.5805,105.0888,234.2101,103.3114,235.9875,97.941,229.7428,105.5571" style="stroke: #000000; stroke-width: 1.0;"/><!--link <b>arkit</b> to _types--><path d="M391.9293,38.2156 C398.3091,81.9174 418.7725,222.0916 426.7617,276.8174 " fill="none" id="&lt;b&gt;arkit&lt;/b&gt;-_types" style="stroke: #000000; stroke-width: 1.0;"/><polygon fill="#000000" points="427.495,281.8406,430.1527,272.3571,426.7726,276.8931,422.2366,273.513,427.495,281.8406" style="stroke: #000000; stroke-width: 1.0;"/><!--link <b>arkit</b> to utils--><path d="M371.2672,32.5662 C346.6838,43.6477 304.6004,66.8676 287,102 C271.1283,133.6819 297.1933,173.078 314.52,194.1149 " fill="none" id="&lt;b&gt;arkit&lt;/b&gt;-utils" style="stroke: #000000; stroke-width: 1.0;"/><polygon fill="#000000" points="317.8538,198.0697,315.1112,188.6104,314.6311,194.2469,308.9947,193.7667,317.8538,198.0697" style="stroke: #000000; stroke-width: 1.0;"/><!--link <b>arkit</b> to yargs--><path d="M410.2305,31.3334 C451.6005,44.6835 543.6925,76.5763 564,102 C594.2459,139.8659 585,160.5372 585,209 C585,209 585,209 585,299 C585,358.8077 582.9515,429.2936 581.7865,464.5461 " fill="none" id="&lt;b&gt;arkit&lt;/b&gt;-yargs" style="stroke: #000000; stroke-width: 1.0;"/><polygon fill="#000000" points="581.6075,469.8944,585.9064,461.0333,581.7748,464.8972,577.9109,460.7656,581.6075,469.8944" style="stroke: #000000; stroke-width: 1.0;"/><!--link _config to _types--><path d="M367.616,136.2592 C380.1865,169.0518 407.5087,240.3269 421.4479,276.6901 " fill="none" id="_config-_types" style="stroke: #000000; stroke-width: 0.55;"/><polygon fill="#000000" points="423.404,281.7931,423.9175,271.9576,421.6143,277.1244,416.4475,274.8212,423.404,281.7931" style="stroke: #000000; stroke-width: 0.55;"/><!--link _config to utils--><path d="M354.6373,136.3529 C348.8487,152.1398 340.3425,175.3386 334.5088,191.2487 " fill="none" id="_config-utils" style="stroke: #000000; stroke-width: 0.55;"/><polygon fill="#000000" points="332.6407,196.3436,339.4946,189.2708,334.362,191.6492,331.9836,186.5167,332.6407,196.3436" style="stroke: #000000; stroke-width: 0.55;"/><!--link _generator to _generator_base--><path d="M502,42.241 C502,57.4791 502,79.8069 502,96.4576 " fill="none" id="_generator-_generator_base" style="stroke: #000000; stroke-width: 0.55;"/><polygon fill="#000000" points="502,101.8683,506,92.8683,502,96.8683,498,92.8683,502,101.8683" style="stroke: #000000; stroke-width: 0.55;"/><!--link _generator to progress--><path d="M534.9938,42.0942 C583.6627,69.9519 669,130.0541 669,209 C669,209 669,209 669,299 C669,320.5948 569.3885,422.1287 524.9588,466.3417 " fill="none" id="_generator-progress" style="stroke: #000000; stroke-width: 0.55;"/><polygon fill="#000000" points="521.346,469.9316,530.5496,466.4254,524.8928,466.4074,524.9109,460.7505,521.346,469.9316" style="stroke: #000000; stroke-width: 0.55;"/><!--link _generator to _types--><path d="M522.5748,42.204 C545.1629,63.3169 576.6564,100.6744 564,136 C542.3312,196.4801 487.4664,250.5906 455.0559,278.676 " fill="none" id="_generator-_types" style="stroke: #000000; stroke-width: 0.55;"/><polygon fill="#000000" points="451.2184,281.9707,460.6526,279.1431,455.0121,278.7137,455.4415,273.0732,451.2184,281.9707" style="stroke: #000000; stroke-width: 0.55;"/><!--link _generator to utils--><path d="M464.8814,35.8827 C417.8846,50.4993 341.0749,77.4769 325,102 C307.2882,129.0204 315.0164,168.6883 321.8001,191.3642 " fill="none" id="_generator-utils" style="stroke: #000000; stroke-width: 0.55;"/><polygon fill="#000000" points="323.3116,196.2048,324.447,186.4216,321.8212,191.4321,316.8107,188.8063,323.3116,196.2048" style="stroke: #000000; stroke-width: 0.55;"/><!--link _generator_base to _types--><path d="M495.0963,136.2592 C481.9255,169.1862 453.2353,240.9118 438.7458,277.1354 " fill="none" id="_generator_base-_types" style="stroke: #000000; stroke-width: 0.55;"/><polygon fill="#000000" points="436.8828,281.7931,443.9393,274.9224,438.7398,277.1507,436.5115,271.9512,436.8828,281.7931" style="stroke: #000000; stroke-width: 0.55;"/><!--link _generator_base to utils--><path d="M468.8624,136.1402 C432.9217,154.7301 376.7623,183.7781 347.3876,198.9719 " fill="none" id="_generator_base-utils" style="stroke: #000000; stroke-width: 0.55;"/><polygon fill="#000000" points="342.9104,201.2877,352.7421,200.7058,347.3515,198.9906,349.0667,193.6,342.9104,201.2877" style="stroke: #000000; stroke-width: 0.55;"/><!--link logger to pino--><path d="M316.8438,312.2198 C318.8759,344.0552 324.0588,425.2553 326.5799,464.7518 " fill="none" id="logger-pino" style="stroke: #000000; stroke-width: 0.55;"/><polygon fill="#000000" points="326.9029,469.8113,330.3213,460.5747,326.5843,464.8215,322.3376,461.0844,326.9029,469.8113" style="stroke: #000000; stroke-width: 0.55;"/><!--link _parser to progress--><path d="M206.4002,136.0026 C214.2425,172.0322 236.2825,257.545 279,316 C318.3565,369.8558 340.4024,373.145 396,410 C423.3478,428.1285 434.5614,425.5695 461,445 C469.372,451.1529 477.736,458.8726 484.8319,466.0097 " fill="none" id="_parser-progress" style="stroke: #000000; stroke-width: 0.55;"/><polygon fill="#000000" points="488.6356,469.9012,485.2052,460.6691,485.1407,466.3255,479.4842,466.261,488.6356,469.9012" style="stroke: #000000; stroke-width: 0.55;"/><!--link _parser to resolve--><path d="M195.8726,136.2558 C170.9893,196.4997 87.9833,397.4615 60.1713,464.7959 " fill="none" id="_parser-resolve" style="stroke: #000000; stroke-width: 0.55;"/><polygon fill="#000000" points="58.112,469.7815,65.245,462.9903,60.0209,465.1602,57.8509,459.9361,58.112,469.7815" style="stroke: #000000; stroke-width: 0.55;"/><!--link _parser to ts-morph--><path d="M199.8114,136.2558 C188.6794,196.4997 151.5452,397.4615 139.1029,464.7959 " fill="none" id="_parser-ts-morph" style="stroke: #000000; stroke-width: 0.55;"/><polygon fill="#000000" points="138.1817,469.7815,143.7507,461.6583,139.0904,464.8648,135.884,460.2044,138.1817,469.7815" style="stroke: #000000; stroke-width: 0.55;"/><!--link _parser to tsconfig-paths--><path d="M203.132,136.1491 C203.6796,181.2358 206.4976,306.7416 221,410 C223.6173,428.6355 228.3253,449.4589 232.1242,464.7476 " fill="none" id="_parser-tsconfig-paths" style="stroke: #000000; stroke-width: 0.55;"/><polygon fill="#000000" points="233.3733,469.7091,235.0547,460.0048,232.1525,464.8604,227.2968,461.9582,233.3733,469.7091" style="stroke: #000000; stroke-width: 0.55;"/><!--link _parser to _types--><path d="M216.516,136.0858 C234.1907,157.7414 266.8259,195.443 300,222 C331.7472,247.4147 372.719,270.2866 400.0998,284.3749 " fill="none" id="_parser-_types" style="stroke: #000000; stroke-width: 0.55;"/><polygon fill="#000000" points="404.7109,286.7305,398.516,279.0739,400.2583,284.4558,394.8764,286.1981,404.7109,286.7305" style="stroke: #000000; stroke-width: 0.55;"/><!--link _parser to utils--><path d="M226.8058,136.1402 C251.3767,153.8312 289.102,180.9934 310.8798,196.6734 " fill="none" id="_parser-utils" style="stroke: #000000; stroke-width: 0.55;"/><polygon fill="#000000" points="315.0141,199.6501,310.0475,191.1452,310.9564,196.7286,305.3731,197.6375,315.0141,199.6501" style="stroke: #000000; stroke-width: 0.55;"/><!--link _types to _schema--><path d="M431.1005,316.241 C432.0731,331.4791 433.4983,353.8069 434.5611,370.4576 " fill="none" id="_types-_schema" style="stroke: #000000; stroke-width: 0.55;"/><polygon fill="#000000" points="434.9065,375.8683,438.3249,366.6317,434.5879,370.8785,430.3412,367.1415,434.9065,375.8683" style="stroke: #000000; stroke-width: 0.55;"/><!--link utils to logger--><path d="M326.2294,222.2798 C324.1614,237.7892 320.7298,263.5266 318.4177,280.867 " fill="none" id="utils-logger" style="stroke: #000000; stroke-width: 0.55;"/><polygon fill="#000000" points="317.7389,285.9583,322.8933,277.5659,318.3998,281.0022,314.9635,276.5086,317.7389,285.9583" style="stroke: #000000; stroke-width: 0.55;"/><!--link utils to nanomatch--><path d="M332.5622,221.5864 C337.7558,236.0768 346.3765,260.6313 353,282 C373.4314,347.9155 394.3971,426.7947 404.2373,464.6165 " fill="none" id="utils-nanomatch" style="stroke: #000000; stroke-width: 0.55;"/><polygon fill="#000000" points="405.607,469.8924,407.2168,460.176,404.3504,465.0529,399.4736,462.1865,405.607,469.8924" style="stroke: #000000; stroke-width: 0.55;"/><!--link utils to _types--><path d="M339.7007,219.3241 C355.9572,233.6681 385.731,259.9391 406.6333,278.3823 " fill="none" id="utils-_types" style="stroke: #000000; stroke-width: 0.55;"/><polygon fill="#000000" points="410.4277,281.7303,406.3256,272.7764,406.6785,278.4222,401.0327,278.7751,410.4277,281.7303" style="stroke: #000000; stroke-width: 0.55;"/><script type="text/plantuml"><![CDATA[
@startuml

scale max 1920 width
top to bottom direction

skinparam monochrome true
skinparam shadowing false
skinparam nodesep 20
skinparam ranksep 60
skinparam defaultFontName Tahoma
skinparam defaultFontSize 12
skinparam roundCorner 4
skinparam dpi 150
skinparam arrowColor black
skinparam arrowThickness 0.55
skinparam packageTitleAlignment left

skinparam usecase {
  borderThickness 0.5
}

skinparam rectangle {
  borderThickness 0.5
}

skinparam component {
  borderThickness 1
}


(<b>arkit</b>)
rectangle "config" as _config
rectangle "generator" as _generator
rectangle "generator.base" as _generator_base
(<b>index</b>)
(logger)
rectangle "parser" as _parser
rectangle "schema" as _schema
rectangle "types" as _types
(utils)

package "Dependencies" {
  [nanomatch]
  [pino]
  [progress]
  [resolve]
  [ts-morph]
  [tsconfig-paths]
  [yargs]
}

(<b>arkit</b>) -[thickness=1]> _config
(<b>arkit</b>) -[thickness=1]> _generator
(<b>arkit</b>) -[thickness=1]> _parser
(<b>arkit</b>) -[thickness=1]> _types
(<b>arkit</b>) -[thickness=1]> (utils)
(<b>arkit</b>) ---[thickness=1]> [yargs]
_config --> _types
_config --> (utils)
_generator --> _generator_base
_generator ---> [progress]
_generator --> _types
_generator --> (utils)
_generator_base --> _types
_generator_base --> (utils)
(logger) ---> [pino]
_parser ---> [progress]
_parser ---> [resolve]
_parser ---> [ts-morph]
_parser ---> [tsconfig-paths]
_parser --> _types
_parser --> (utils)
_types --> _schema
(utils) --> (logger)
(utils) ---> [nanomatch]
(utils) --> _types

@enduml


' View and edit on https://arkit.herokuapp.com
]]></script></g></svg>