<?xml version="1.0" encoding="UTF-8" standalone="no"?><svg xmlns="http://www.w3.org/2000/svg" xmlns:xlink="http://www.w3.org/1999/xlink" contentScriptType="application/ecmascript" contentStyleType="text/css" height="413px" preserveAspectRatio="none" style="width:844px;height:413px;" version="1.1" viewBox="0 0 844 413" width="844px" zoomAndPan="magnify"><defs/><g><!--cluster Dependencies--><path d="M207,318 L303,318 A3,3 0 0 1 305,320 L312,338.4844 L830,338.4844 A2,2 0 0 1 832,340.4844 L832,399 A2,2 0 0 1 830,401 L207,401 A2,2 0 0 1 205,399 L205,320 A2,2 0 0 1 207,318 " fill="#FFFFFF" style="stroke: #000000; stroke-width: 1.5;"/><line style="stroke: #000000; stroke-width: 1.5;" x1="205" x2="312" y1="338.4844" y2="338.4844"/><text fill="#000000" font-family="Tahoma, sans-serif" font-size="12" font-weight="bold" lengthAdjust="spacingAndGlyphs" textLength="94" x="209" y="332.0059">Dependencies</text><!--entity nanomatch--><rect fill="#F8F8F8" height="34.4844" rx="2" ry="2" style="stroke: #383838; stroke-width: 1.0;" width="85" x="221.5" y="351"/><rect fill="#F8F8F8" height="5" style="stroke: #383838; stroke-width: 1.0;" width="10" x="216.5" y="356"/><rect fill="#F8F8F8" height="5" style="stroke: #383838; stroke-width: 1.0;" width="10" x="216.5" y="375.4844"/><text fill="#000000" font-family="Tahoma, sans-serif" font-size="12" lengthAdjust="spacingAndGlyphs" textLength="65" x="231.5" y="373.0059">nanomatch</text><!--entity pino--><rect fill="#F8F8F8" height="34.4844" rx="2" ry="2" style="stroke: #383838; stroke-width: 1.0;" width="45" x="323.5" y="351"/><rect fill="#F8F8F8" height="5" style="stroke: #383838; stroke-width: 1.0;" width="10" x="318.5" y="356"/><rect fill="#F8F8F8" height="5" style="stroke: #383838; stroke-width: 1.0;" width="10" x="318.5" y="375.4844"/><text fill="#000000" font-family="Tahoma, sans-serif" font-size="12" lengthAdjust="spacingAndGlyphs" textLength="25" x="333.5" y="373.0059">pino</text><!--entity progress--><rect fill="#F8F8F8" height="34.4844" rx="2" ry="2" style="stroke: #383838; stroke-width: 1.0;" width="71" x="453.5" y="351"/><rect fill="#F8F8F8" height="5" style="stroke: #383838; stroke-width: 1.0;" width="10" x="448.5" y="356"/><rect fill="#F8F8F8" height="5" style="stroke: #383838; stroke-width: 1.0;" width="10" x="448.5" y="375.4844"/><text fill="#000000" font-family="Tahoma, sans-serif" font-size="12" lengthAdjust="spacingAndGlyphs" textLength="51" x="463.5" y="373.0059">progress</text><!--entity resolve--><rect fill="#F8F8F8" height="34.4844" rx="2" ry="2" style="stroke: #383838; stroke-width: 1.0;" width="62" x="542" y="351"/><rect fill="#F8F8F8" height="5" style="stroke: #383838; stroke-width: 1.0;" width="10" x="537" y="356"/><rect fill="#F8F8F8" height="5" style="stroke: #383838; stroke-width: 1.0;" width="10" x="537" y="375.4844"/><text fill="#000000" font-family="Tahoma, sans-serif" font-size="12" lengthAdjust="spacingAndGlyphs" textLength="42" x="552" y="373.0059">resolve</text><!--entity ts-morph--><rect fill="#F8F8F8" height="34.4844" rx="2" ry="2" style="stroke: #383838; stroke-width: 1.0;" width="73" x="742.5" y="351"/><rect fill="#F8F8F8" height="5" style="stroke: #383838; stroke-width: 1.0;" width="10" x="737.5" y="356"/><rect fill="#F8F8F8" height="5" style="stroke: #383838; stroke-width: 1.0;" width="10" x="737.5" y="375.4844"/><text fill="#000000" font-family="Tahoma, sans-serif" font-size="12" lengthAdjust="spacingAndGlyphs" textLength="53" x="752.5" y="373.0059">ts-morph</text><!--entity tsconfig-paths--><rect fill="#F8F8F8" height="34.4844" rx="2" ry="2" style="stroke: #383838; stroke-width: 1.0;" width="104" x="621" y="351"/><rect fill="#F8F8F8" height="5" style="stroke: #383838; stroke-width: 1.0;" width="10" x="616" y="356"/><rect fill="#F8F8F8" height="5" style="stroke: #383838; stroke-width: 1.0;" width="10" x="616" y="375.4844"/><text fill="#000000" font-family="Tahoma, sans-serif" font-size="12" lengthAdjust="spacingAndGlyphs" textLength="84" x="631" y="373.0059">tsconfig-paths</text><!--entity yargs--><rect fill="#F8F8F8" height="34.4844" rx="2" ry="2" style="stroke: #383838; stroke-width: 1.0;" width="51" x="385.5" y="351"/><rect fill="#F8F8F8" height="5" style="stroke: #383838; stroke-width: 1.0;" width="10" x="380.5" y="356"/><rect fill="#F8F8F8" height="5" style="stroke: #383838; stroke-width: 1.0;" width="10" x="380.5" y="375.4844"/><text fill="#000000" font-family="Tahoma, sans-serif" font-size="12" lengthAdjust="spacingAndGlyphs" textLength="31" x="395.5" y="373.0059">yargs</text><ellipse cx="243.0061" cy="25.242" fill="#F8F8F8" rx="23.5061" ry="13.242" style="stroke: #383838; stroke-width: 0.5;"/><text fill="#000000" font-family="Tahoma, sans-serif" font-size="12" font-weight="bold" lengthAdjust="spacingAndGlyphs" textLength="29" x="228.5061" y="28.9842">arkit</text><ellipse cx="533.1446" cy="217.9157" fill="#F8F8F8" rx="14.1446" ry="11.9157" style="stroke: #383838; stroke-width: 0.5;"/><text fill="#000000" font-family="Tahoma, sans-serif" font-size="12" lengthAdjust="spacingAndGlyphs" textLength="13" x="526.6446" y="221.6579">cli</text><!--entity _config--><rect fill="#F8F8F8" height="34.4844" rx="2" ry="2" style="stroke: #000000; stroke-width: 0.5;" width="56" x="132" y="75"/><text fill="#000000" font-family="Tahoma, sans-serif" font-size="12" lengthAdjust="spacingAndGlyphs" textLength="36" x="142" y="97.0059">config</text><!--entity _converter--><rect fill="#F8F8F8" height="34.4844" rx="2" ry="2" style="stroke: #000000; stroke-width: 0.5;" width="74" x="333" y="75"/><text fill="#000000" font-family="Tahoma, sans-serif" font-size="12" lengthAdjust="spacingAndGlyphs" textLength="54" x="343" y="97.0059">converter</text><!--entity _filesystem--><rect fill="#F8F8F8" height="34.4844" rx="2" ry="2" style="stroke: #000000; stroke-width: 0.5;" width="79" x="529.5" y="75"/><text fill="#000000" font-family="Tahoma, sans-serif" font-size="12" lengthAdjust="spacingAndGlyphs" textLength="59" x="539.5" y="97.0059">filesystem</text><!--entity _generator--><rect fill="#F8F8F8" height="34.4844" rx="2" ry="2" style="stroke: #000000; stroke-width: 0.5;" width="75" x="205.5" y="75"/><text fill="#000000" font-family="Tahoma, sans-serif" font-size="12" lengthAdjust="spacingAndGlyphs" textLength="55" x="215.5" y="97.0059">generator</text><ellipse cx="591.2487" cy="25.242" fill="#F8F8F8" rx="27.7487" ry="13.242" style="stroke: #383838; stroke-width: 0.5;"/><text fill="#000000" font-family="Tahoma, sans-serif" font-size="12" font-weight="bold" lengthAdjust="spacingAndGlyphs" textLength="35" x="573.7487" y="28.9842">index</text><ellipse cx="421.9558" cy="218.242" fill="#F8F8F8" rx="28.4558" ry="13.242" style="stroke: #383838; stroke-width: 0.5;"/><text fill="#000000" font-family="Tahoma, sans-serif" font-size="12" lengthAdjust="spacingAndGlyphs" textLength="36" x="403.9558" y="221.9842">logger</text><!--entity _parser--><rect fill="#F8F8F8" height="34.4844" rx="2" ry="2" style="stroke: #000000; stroke-width: 0.5;" width="56" x="490" y="8"/><text fill="#000000" font-family="Tahoma, sans-serif" font-size="12" lengthAdjust="spacingAndGlyphs" textLength="36" x="500" y="30.0059">parser</text><!--entity _puml--><rect fill="#F8F8F8" height="34.4844" rx="2" ry="2" style="stroke: #000000; stroke-width: 0.5;" width="48" x="67" y="75"/><text fill="#000000" font-family="Tahoma, sans-serif" font-size="12" lengthAdjust="spacingAndGlyphs" textLength="28" x="77" y="97.0059">puml</text><!--entity _schema--><rect fill="#F8F8F8" height="34.4844" rx="2" ry="2" style="stroke: #000000; stroke-width: 0.5;" width="66" x="217" y="268"/><text fill="#000000" font-family="Tahoma, sans-serif" font-size="12" lengthAdjust="spacingAndGlyphs" textLength="46" x="227" y="290.0059">schema</text><!--entity _types--><rect fill="#F8F8F8" height="34.4844" rx="2" ry="2" style="stroke: #000000; stroke-width: 0.5;" width="51" x="224.5" y="201"/><text fill="#000000" font-family="Tahoma, sans-serif" font-size="12" lengthAdjust="spacingAndGlyphs" textLength="31" x="234.5" y="223.0059">types</text><ellipse cx="351.9706" cy="155.242" fill="#F8F8F8" rx="19.9706" ry="13.242" style="stroke: #383838; stroke-width: 0.5;"/><text fill="#000000" font-family="Tahoma, sans-serif" font-size="12" lengthAdjust="spacingAndGlyphs" textLength="24" x="339.9706" y="158.9842">utils</text><!--link <b>arkit</b> to cli--><path d="M266.324,26.987 C304.241,29.628 380.214,39.334 432,75 C480.283,108.253 513.343,172.532 526.559,201.81 " fill="none" id="&lt;b&gt;arkit&lt;/b&gt;-cli" style="stroke: #000000; stroke-width: 1.0;"/><polygon fill="#000000" points="528.653,206.527,528.6576,196.6781,526.6244,201.957,521.3456,199.9239,528.653,206.527" style="stroke: #000000; stroke-width: 1.0;"/><!--link <b>arkit</b> to _config--><path d="M230.031,36.156 C217.945,45.621 199.603,59.986 184.721,71.64 " fill="none" id="&lt;b&gt;arkit&lt;/b&gt;-_config" style="stroke: #000000; stroke-width: 1.0;"/><polygon fill="#000000" points="180.623,74.849,190.1752,72.4498,184.5597,71.7665,185.2431,66.151,180.623,74.849" style="stroke: #000000; stroke-width: 1.0;"/><!--link <b>arkit</b> to _converter--><path d="M259.343,34.365 C278.137,43.984 309.558,60.065 334.125,72.639 " fill="none" id="&lt;b&gt;arkit&lt;/b&gt;-_converter" style="stroke: #000000; stroke-width: 1.0;"/><polygon fill="#000000" points="338.628,74.944,332.4402,67.2817,334.1775,72.6652,328.794,74.4025,338.628,74.944" style="stroke: #000000; stroke-width: 1.0;"/><!--link <b>arkit</b> to _generator--><path d="M243,38.226 C243,46.995 243,59.042 243,69.412 " fill="none" id="&lt;b&gt;arkit&lt;/b&gt;-_generator" style="stroke: #000000; stroke-width: 1.0;"/><polygon fill="#000000" points="243,74.655,247,65.655,243,69.655,239,65.655,243,74.655" style="stroke: #000000; stroke-width: 1.0;"/><!--link <b>arkit</b> to _parser--><path d="M266.633,25 C339.189,25 411.745,25 484.301,25 " fill="none" id="&lt;b&gt;arkit&lt;/b&gt;-_parser" style="stroke: #000000; stroke-width: 1.0;"/><polygon fill="#000000" points="489.525,25,480.525,21,484.525,25,480.525,29,489.525,25" style="stroke: #000000; stroke-width: 1.0;"/><!--link <b>arkit</b> to progress--><path d="M219.329,25.611 C178.91,26.176 95.9312,32.838 44,75 C13.752,99.558 6,115.038 6,154 C6,154 6,154 6,219 C6,316.061 113.108,281.596 208,302 C233.76,307.539 421.551,297.983 445,310 C460.16,317.7691 471.648,333.4172 479.077,346.3553 " fill="none" id="&lt;b&gt;arkit&lt;/b&gt;-progress" style="stroke: #000000; stroke-width: 1.0;"/><polygon fill="#000000" points="481.63,350.9798,480.7821,341.1675,479.2135,346.6025,473.7785,345.0339,481.63,350.9798" style="stroke: #000000; stroke-width: 1.0;"/><!--link <b>arkit</b> to _puml--><path d="M224.518,33.043 C200.793,42.199 158.457,58.925 123,75 C121.862,75.516 120.704,76.05 119.538,76.596 " fill="none" id="&lt;b&gt;arkit&lt;/b&gt;-_puml" style="stroke: #000000; stroke-width: 1.0;"/><polygon fill="#000000" points="115.018,78.746,124.8636,78.4925,119.5333,76.5984,121.4274,71.2681,115.018,78.746" style="stroke: #000000; stroke-width: 1.0;"/><!--link <b>arkit</b> to _types--><path d="M220.205,28.604 C175.254,34.258 77.8084,49.262 58,75 C7.3564,140.804 153.474,190.559 219.477,209.1 " fill="none" id="&lt;b&gt;arkit&lt;/b&gt;-_types" style="stroke: #000000; stroke-width: 1.0;"/><polygon fill="#000000" points="224.467,210.485,216.8643,204.2241,219.6491,209.148,214.7251,211.9328,224.467,210.485" style="stroke: #000000; stroke-width: 1.0;"/><!--link <b>arkit</b> to utils--><path d="M265.514,29.049 C307.895,35.298 396.901,51.024 415,75 C424.104,87.06 421.915,95.564 415,109 C406.325,125.858 388.083,137.8 373.451,145.126 " fill="none" id="&lt;b&gt;arkit&lt;/b&gt;-utils" style="stroke: #000000; stroke-width: 1.0;"/><polygon fill="#000000" points="368.646,147.434,378.4905,147.1415,373.1527,145.2685,375.0257,139.9307,368.646,147.434" style="stroke: #000000; stroke-width: 1.0;"/><!--link cli to yargs--><path d="M523.795,227.174 C506.941,242.417 470.512,276.665 445,310 C436.299,321.3693 428.035,335.1296 421.833,346.2818 " fill="none" id="cli-yargs" style="stroke: #000000; stroke-width: 0.55;"/><polygon fill="#000000" points="419.306,350.8871,427.1418,344.9205,421.7109,346.5035,420.128,341.0726,419.306,350.8871" style="stroke: #000000; stroke-width: 0.55;"/><!--link _config to _types--><path d="M171.766,109.211 C188.071,131.676 217.529,172.262 235.274,196.711 " fill="none" id="_config-_types" style="stroke: #000000; stroke-width: 0.55;"/><polygon fill="#000000" points="238.231,200.785,236.1805,191.152,235.2935,196.7388,229.7067,195.8519,238.231,200.785" style="stroke: #000000; stroke-width: 0.55;"/><!--link _config to utils--><path d="M188.135,105.6 C191.108,106.801 194.102,107.958 197,109 C242.861,125.499 297.957,140.352 328.567,148.179 " fill="none" id="_config-utils" style="stroke: #000000; stroke-width: 0.55;"/><polygon fill="#000000" points="333.627,149.465,325.8911,143.3694,328.7814,148.2322,323.9186,151.1224,333.627,149.465" style="stroke: #000000; stroke-width: 0.55;"/><!--link _converter to logger--><path d="M376.798,109.211 C386.667,132.746 404.877,176.169 414.909,200.09 " fill="none" id="_converter-logger" style="stroke: #000000; stroke-width: 0.55;"/><polygon fill="#000000" points="416.919,204.885,417.1279,195.0384,414.9857,200.2739,409.7501,198.1317,416.919,204.885" style="stroke: #000000; stroke-width: 0.55;"/><!--link _converter to _types--><path d="M354.312,109.211 C332.482,131.769 292.97,172.598 269.342,197.013 " fill="none" id="_converter-_types" style="stroke: #000000; stroke-width: 0.55;"/><polygon fill="#000000" points="265.692,200.785,274.8253,197.0995,269.1692,197.1921,269.0766,191.536,265.692,200.785" style="stroke: #000000; stroke-width: 0.55;"/><!--link _converter to utils--><path d="M365.271,109.027 C362.752,117.563 359.652,128.067 357.082,136.777 " fill="none" id="_converter-utils" style="stroke: #000000; stroke-width: 0.55;"/><polygon fill="#000000" points="355.56,141.935,361.9424,134.434,356.9743,137.1392,354.2691,132.1711,355.56,141.935" style="stroke: #000000; stroke-width: 0.55;"/><!--link _filesystem to logger--><path d="M549.782,109.211 C520.705,133.738 466.019,179.868 438.584,203.011 " fill="none" id="_filesystem-logger" style="stroke: #000000; stroke-width: 0.55;"/><polygon fill="#000000" points="434.74,206.253,444.1987,203.5085,438.5622,203.0295,439.0411,197.393,434.74,206.253" style="stroke: #000000; stroke-width: 0.55;"/><!--link _filesystem to resolve--><path d="M569.238,109.319 C569.926,156.435 571.915,292.681 572.688,345.6142 " fill="none" id="_filesystem-resolve" style="stroke: #000000; stroke-width: 0.55;"/><polygon fill="#000000" points="572.763,350.7661,576.6312,341.7087,572.69,345.7666,568.632,341.8255,572.763,350.7661" style="stroke: #000000; stroke-width: 0.55;"/><!--link _filesystem to _schema--><path d="M561.258,109.12 C546.063,138.945 509.376,202.64 459,235 C406.27,268.873 332.631,279.388 288.306,282.616 " fill="none" id="_filesystem-_schema" style="stroke: #000000; stroke-width: 0.55;"/><polygon fill="#000000" points="283.049,282.975,292.3002,286.3538,288.0374,282.635,291.7562,278.3723,283.049,282.975" style="stroke: #000000; stroke-width: 0.55;"/><!--link _filesystem to ts-morph--><path d="M579.662,109.013 C589.973,124.344 606.171,148.027 621,168 C647.112,203.17 727.795,303.531 762.667,346.7733 " fill="none" id="_filesystem-ts-morph" style="stroke: #000000; stroke-width: 0.55;"/><polygon fill="#000000" points="765.896,350.7756,763.3603,341.2588,762.7574,346.8834,757.1328,346.2805,765.896,350.7756" style="stroke: #000000; stroke-width: 0.55;"/><!--link _filesystem to tsconfig-paths--><path d="M591.424,109.081 C601.898,117.71 613.651,129.198 621,142 C659.76,209.523 669.638,304.076 672.148,345.7956 " fill="none" id="_filesystem-tsconfig-paths" style="stroke: #000000; stroke-width: 0.55;"/><polygon fill="#000000" points="672.432,350.8524,675.9219,341.6426,672.1521,345.8602,667.9345,342.0904,672.432,350.8524" style="stroke: #000000; stroke-width: 0.55;"/><!--link _filesystem to _types--><path d="M529.257,109.003 C491.065,124.326 431.691,148.004 380,168 C346.117,181.107 307.101,195.754 280.723,205.591 " fill="none" id="_filesystem-_types" style="stroke: #000000; stroke-width: 0.55;"/><polygon fill="#000000" points="275.949,207.37,285.7792,207.9762,280.6344,205.6244,282.9862,200.4796,275.949,207.37" style="stroke: #000000; stroke-width: 0.55;"/><!--link _filesystem to utils--><path d="M529.227,102.511 C491.762,111.724 434.197,126.538 385,142 C381.238,143.182 377.27,144.533 373.441,145.892 " fill="none" id="_filesystem-utils" style="stroke: #000000; stroke-width: 0.55;"/><polygon fill="#000000" points="368.69,147.606,378.5132,148.3171,373.3937,145.9105,375.8003,140.7911,368.69,147.606" style="stroke: #000000; stroke-width: 0.55;"/><!--link _generator to _types--><path d="M243.915,109.211 C245.162,131.304 247.399,170.925 248.785,195.485 " fill="none" id="_generator-_types" style="stroke: #000000; stroke-width: 0.55;"/><polygon fill="#000000" points="249.085,200.785,252.5694,191.5731,248.8021,195.793,244.5822,192.0257,249.085,200.785" style="stroke: #000000; stroke-width: 0.55;"/><!--link _generator to utils--><path d="M271.638,109.027 C291.011,119.868 316.058,133.886 333.001,143.368 " fill="none" id="_generator-utils" style="stroke: #000000; stroke-width: 0.55;"/><polygon fill="#000000" points="337.554,145.915,331.6523,138.0302,333.1904,143.4739,327.7466,145.012,337.554,145.915" style="stroke: #000000; stroke-width: 0.55;"/><!--link logger to pino--><path d="M415.909,230.861 C403.07,255.864 373.08,314.265 356.866,345.8392 " fill="none" id="logger-pino" style="stroke: #000000; stroke-width: 0.55;"/><polygon fill="#000000" points="354.387,350.6671,362.0569,344.4887,356.6713,346.2194,354.9406,340.8338,354.387,350.6671" style="stroke: #000000; stroke-width: 0.55;"/><!--link _parser to _filesystem--><path d="M530.607,42.067 C537.299,50.597 545.599,61.175 552.768,70.312 " fill="none" id="_parser-_filesystem" style="stroke: #000000; stroke-width: 0.55;"/><polygon fill="#000000" points="556.184,74.666,553.7755,65.1162,553.0976,70.7323,547.4815,70.0544,556.184,74.666" style="stroke: #000000; stroke-width: 0.55;"/><!--link _parser to progress--><path d="M546.22,38.249 C571.198,49.398 605.429,65.52 617,75 C651.313,103.115 678,109.64 678,154 C678,154 678,154 678,219 C678,295.084 589.343,258.87 533,310 C521.127,320.7743 510.107,335.059 502.066,346.6327 " fill="none" id="_parser-progress" style="stroke: #000000; stroke-width: 0.55;"/><polygon fill="#000000" points="499.242,350.7625,507.6234,345.5902,502.0638,346.6349,501.0191,341.0753,499.242,350.7625" style="stroke: #000000; stroke-width: 0.55;"/><!--link _parser to ts-morph--><path d="M546.186,38.465 C549.148,39.692 552.127,40.892 555,42 C646.817,77.405 746,55.593 746,154 C746,154 746,154 746,219 C746,265.096 761.439,317.3745 771.196,345.812 " fill="none" id="_parser-ts-morph" style="stroke: #000000; stroke-width: 0.55;"/><polygon fill="#000000" points="772.947,350.8376,773.7632,341.0226,771.3019,346.116,766.2086,343.6547,772.947,350.8376" style="stroke: #000000; stroke-width: 0.55;"/><!--link _parser to _types--><path d="M489.828,26.139 C449.037,27.752 373.054,36.225 324,75 C284.623,106.126 263.98,163.982 255.233,195.38 " fill="none" id="_parser-_types" style="stroke: #000000; stroke-width: 0.55;"/><polygon fill="#000000" points="253.833,200.553,260.0442,192.9097,255.1386,195.7265,252.3218,190.8208,253.833,200.553" style="stroke: #000000; stroke-width: 0.55;"/><!--link _parser to utils--><path d="M503.535,42.256 C487.249,59.984 459.461,88.553 432,109 C412.957,123.179 388.982,136.096 372.266,144.418 " fill="none" id="_parser-utils" style="stroke: #000000; stroke-width: 0.55;"/><polygon fill="#000000" points="367.754,146.64,377.5952,146.2506,372.2392,144.4303,374.0596,139.0743,367.754,146.64" style="stroke: #000000; stroke-width: 0.55;"/><!--link _puml to _schema--><path d="M104.2776,109.115 C116.814,124.318 136.151,147.735 153,168 C181.082,201.776 213.893,240.954 233.254,264.044 " fill="none" id="_puml-_schema" style="stroke: #000000; stroke-width: 0.55;"/><polygon fill="#000000" points="236.476,267.885,233.7581,258.4186,233.2633,264.0537,227.6281,263.5589,236.476,267.885" style="stroke: #000000; stroke-width: 0.55;"/><!--link _puml to _types--><path d="M111.786,109.211 C141.03,132.017 194.221,173.499 225.398,197.814 " fill="none" id="_puml-_types" style="stroke: #000000; stroke-width: 0.55;"/><polygon fill="#000000" points="229.46,200.982,224.824,192.2925,225.5176,197.9067,219.9035,198.6003,229.46,200.982" style="stroke: #000000; stroke-width: 0.55;"/><!--link _puml to utils--><path d="M115.168,105.929 C117.771,107.066 120.413,108.117 123,109 C195.076,133.595 284.762,146.332 327.344,151.365 " fill="none" id="_puml-utils" style="stroke: #000000; stroke-width: 0.55;"/><polygon fill="#000000" points="332.544,151.969,324.0658,146.957,327.5774,151.3919,323.1425,154.9035,332.544,151.969" style="stroke: #000000; stroke-width: 0.55;"/><!--link _types to _schema--><path d="M250,235.067 C250,243.364 250,253.6 250,262.561 " fill="none" id="_types-_schema" style="stroke: #000000; stroke-width: 0.55;"/><polygon fill="#000000" points="250,267.666,254,258.666,250,262.666,246,258.666,250,267.666" style="stroke: #000000; stroke-width: 0.55;"/><!--link utils to logger--><path d="M363.247,165.801 C374.735,175.812 392.687,191.456 405.725,202.818 " fill="none" id="utils-logger" style="stroke: #000000; stroke-width: 0.55;"/><polygon fill="#000000" points="409.601,206.195,405.4424,197.2672,405.831,202.9107,400.1875,203.2993,409.601,206.195" style="stroke: #000000; stroke-width: 0.55;"/><!--link utils to nanomatch--><path d="M347.143,167.645 C332.884,201.835 290.994,302.275 272.707,346.1225 " fill="none" id="utils-nanomatch" style="stroke: #000000; stroke-width: 0.55;"/><polygon fill="#000000" points="270.701,350.9329,277.8567,344.1657,272.6254,346.318,270.473,341.0867,270.701,350.9329" style="stroke: #000000; stroke-width: 0.55;"/><!--link utils to _types--><path d="M337.817,164.482 C323.082,173.294 299.567,187.357 280.577,198.714 " fill="none" id="utils-_types" style="stroke: #000000; stroke-width: 0.55;"/><polygon fill="#000000" points="275.854,201.538,285.631,200.3504,280.1449,198.9712,281.5241,193.4851,275.854,201.538" style="stroke: #000000; stroke-width: 0.55;"/><script type="text/plantuml"><![CDATA[
@startuml

scale max 1920 width
top to bottom direction

skinparam nodesep 17
skinparam ranksep 33
skinparam monochrome true
skinparam shadowing false
skinparam defaultFontName Tahoma
skinparam defaultFontSize 12
skinparam roundCorner 4
skinparam dpi 150
skinparam arrowColor black
skinparam arrowThickness 0.55
skinparam packageTitleAlignment left

skinparam usecase {
  borderThickness 0.5
}

skinparam rectangle {
  borderThickness 0.5
}

skinparam component {
  borderThickness 1
}


(<b>arkit</b>)
(cli)
rectangle "config" as _config
rectangle "converter" as _converter
rectangle "filesystem" as _filesystem
rectangle "generator" as _generator
(<b>index</b>)
(logger)
rectangle "parser" as _parser
rectangle "puml" as _puml
rectangle "schema" as _schema
rectangle "types" as _types
(utils)

package "Dependencies" {
  [nanomatch]
  [pino]
  [progress]
  [resolve]
  [ts-morph]
  [tsconfig-paths]
  [yargs]
}

(<b>arkit</b>) -[thickness=1]> (cli)
(<b>arkit</b>) -[thickness=1]> _config
(<b>arkit</b>) -[thickness=1]> _converter
(<b>arkit</b>) -[thickness=1]> _generator
(<b>arkit</b>) -[thickness=1]> _parser
(<b>arkit</b>) ---[thickness=1]> [progress]
(<b>arkit</b>) -[thickness=1]> _puml
(<b>arkit</b>) -[thickness=1]> _types
(<b>arkit</b>) -[thickness=1]> (utils)
(cli) ---> [yargs]
_config --> _types
_config --> (utils)
_converter --> (logger)
_converter --> _types
_converter --> (utils)
_filesystem --> (logger)
_filesystem ---> [resolve]
_filesystem --> _schema
_filesystem ---> [ts-morph]
_filesystem ---> [tsconfig-paths]
_filesystem --> _types
_filesystem --> (utils)
_generator --> _types
_generator --> (utils)
(logger) ---> [pino]
_parser --> _filesystem
_parser ---> [progress]
_parser ---> [ts-morph]
_parser --> _types
_parser --> (utils)
_puml --> _schema
_puml --> _types
_puml --> (utils)
_types --> _schema
(utils) --> (logger)
(utils) ---> [nanomatch]
(utils) --> _types

@enduml


' View and edit on https://arkit.herokuapp.com
]]></script></g></svg>