<?xml version="1.0" encoding="UTF-8" standalone="no"?><svg xmlns="http://www.w3.org/2000/svg" xmlns:xlink="http://www.w3.org/1999/xlink" contentScriptType="application/ecmascript" contentStyleType="text/css" height="358px" preserveAspectRatio="none" style="width:686px;height:358px;" version="1.1" viewBox="0 0 686 358" width="686px" zoomAndPan="magnify"><defs/><g><!--cluster Dependencies--><path d="M16,279 L102,279 A3,3 0 0 1 104,281 L111,299.4844 L526,299.4844 A2,2 0 0 1 528,301.4844 L528,344 A2,2 0 0 1 526,346 L16,346 A2,2 0 0 1 14,344 L14,281 A2,2 0 0 1 16,279 " fill="#FFFFFF" style="stroke: #000000; stroke-width: 1.5;"/><line style="stroke: #000000; stroke-width: 1.5;" x1="14" x2="111" y1="299.4844" y2="299.4844"/><text fill="#000000" font-family="Tahoma, sans-serif" font-size="12" font-weight="bold" lengthAdjust="spacingAndGlyphs" textLength="84" x="18" y="293.0059">Dependencies</text><!--entity nanomatch--><rect fill="#F8F8F8" height="34.4844" rx="2" ry="2" style="stroke: #383838; stroke-width: 1.0;" width="81" x="375.5" y="304"/><rect fill="#F8F8F8" height="5" style="stroke: #383838; stroke-width: 1.0;" width="10" x="370.5" y="309"/><rect fill="#F8F8F8" height="5" style="stroke: #383838; stroke-width: 1.0;" width="10" x="370.5" y="328.4844"/><text fill="#000000" font-family="Tahoma, sans-serif" font-size="12" lengthAdjust="spacingAndGlyphs" textLength="61" x="385.5" y="326.0059">nanomatch</text><!--entity pino--><rect fill="#F8F8F8" height="34.4844" rx="2" ry="2" style="stroke: #383838; stroke-width: 1.0;" width="43" x="476.5" y="304"/><rect fill="#F8F8F8" height="5" style="stroke: #383838; stroke-width: 1.0;" width="10" x="471.5" y="309"/><rect fill="#F8F8F8" height="5" style="stroke: #383838; stroke-width: 1.0;" width="10" x="471.5" y="328.4844"/><text fill="#000000" font-family="Tahoma, sans-serif" font-size="12" lengthAdjust="spacingAndGlyphs" textLength="23" x="486.5" y="326.0059">pino</text><!--entity resolve--><rect fill="#F8F8F8" height="34.4844" rx="2" ry="2" style="stroke: #383838; stroke-width: 1.0;" width="58" x="297" y="304"/><rect fill="#F8F8F8" height="5" style="stroke: #383838; stroke-width: 1.0;" width="10" x="292" y="309"/><rect fill="#F8F8F8" height="5" style="stroke: #383838; stroke-width: 1.0;" width="10" x="292" y="328.4844"/><text fill="#000000" font-family="Tahoma, sans-serif" font-size="12" lengthAdjust="spacingAndGlyphs" textLength="38" x="307" y="326.0059">resolve</text><!--entity ts-morph--><rect fill="#F8F8F8" height="34.4844" rx="2" ry="2" style="stroke: #383838; stroke-width: 1.0;" width="69" x="90.5" y="304"/><rect fill="#F8F8F8" height="5" style="stroke: #383838; stroke-width: 1.0;" width="10" x="85.5" y="309"/><rect fill="#F8F8F8" height="5" style="stroke: #383838; stroke-width: 1.0;" width="10" x="85.5" y="328.4844"/><text fill="#000000" font-family="Tahoma, sans-serif" font-size="12" lengthAdjust="spacingAndGlyphs" textLength="49" x="100.5" y="326.0059">ts-morph</text><!--entity tsconfig-paths--><rect fill="#F8F8F8" height="34.4844" rx="2" ry="2" style="stroke: #383838; stroke-width: 1.0;" width="97" x="179.5" y="304"/><rect fill="#F8F8F8" height="5" style="stroke: #383838; stroke-width: 1.0;" width="10" x="174.5" y="309"/><rect fill="#F8F8F8" height="5" style="stroke: #383838; stroke-width: 1.0;" width="10" x="174.5" y="328.4844"/><text fill="#000000" font-family="Tahoma, sans-serif" font-size="12" lengthAdjust="spacingAndGlyphs" textLength="77" x="189.5" y="326.0059">tsconfig-paths</text><!--entity yargs--><rect fill="#F8F8F8" height="34.4844" rx="2" ry="2" style="stroke: #383838; stroke-width: 1.0;" width="48" x="22" y="304"/><rect fill="#F8F8F8" height="5" style="stroke: #383838; stroke-width: 1.0;" width="10" x="17" y="309"/><rect fill="#F8F8F8" height="5" style="stroke: #383838; stroke-width: 1.0;" width="10" x="17" y="328.4844"/><text fill="#000000" font-family="Tahoma, sans-serif" font-size="12" lengthAdjust="spacingAndGlyphs" textLength="28" x="32" y="326.0059">yargs</text><ellipse cx="411.799" cy="25.242" fill="#F8F8F8" rx="22.799" ry="13.242" style="stroke: #383838; stroke-width: 0.6;"/><text fill="#000000" font-family="Tahoma, sans-serif" font-size="12" font-weight="bold" lengthAdjust="spacingAndGlyphs" textLength="28" x="397.799" y="28.9842">arkit</text><!--entity _config--><rect fill="#F8F8F8" height="34.4844" rx="2" ry="2" style="stroke: #000000; stroke-width: 0.6;" width="53" x="435.5" y="62"/><text fill="#000000" font-family="Tahoma, sans-serif" font-size="12" lengthAdjust="spacingAndGlyphs" textLength="33" x="445.5" y="84.0059">config</text><!--entity _generator--><rect fill="#F8F8F8" height="34.4844" rx="2" ry="2" style="stroke: #000000; stroke-width: 0.6;" width="74" x="510" y="8"/><text fill="#000000" font-family="Tahoma, sans-serif" font-size="12" lengthAdjust="spacingAndGlyphs" textLength="54" x="520" y="30.0059">generator</text><!--entity _generator_base--><rect fill="#F8F8F8" height="34.4844" rx="2" ry="2" style="stroke: #000000; stroke-width: 0.6;" width="103" x="551.5" y="62"/><text fill="#000000" font-family="Tahoma, sans-serif" font-size="12" lengthAdjust="spacingAndGlyphs" textLength="83" x="561.5" y="84.0059">generator.base</text><ellipse cx="630.8345" cy="25.242" fill="#F8F8F8" rx="26.3345" ry="13.242" style="stroke: #383838; stroke-width: 0.6;"/><text fill="#000000" font-family="Tahoma, sans-serif" font-size="12" font-weight="bold" lengthAdjust="spacingAndGlyphs" textLength="33" x="614.3345" y="28.9842">index</text><ellipse cx="464.0416" cy="179.242" fill="#F8F8F8" rx="27.0416" ry="13.242" style="stroke: #383838; stroke-width: 0.6;"/><text fill="#000000" font-family="Tahoma, sans-serif" font-size="12" lengthAdjust="spacingAndGlyphs" textLength="34" x="447.0416" y="182.9842">logger</text><!--entity _parser--><rect fill="#F8F8F8" height="34.4844" rx="2" ry="2" style="stroke: #000000; stroke-width: 0.6;" width="53" x="277.5" y="62"/><text fill="#000000" font-family="Tahoma, sans-serif" font-size="12" lengthAdjust="spacingAndGlyphs" textLength="33" x="287.5" y="84.0059">parser</text><!--entity _schema--><rect fill="#F8F8F8" height="34.4844" rx="2" ry="2" style="stroke: #000000; stroke-width: 0.6;" width="61" x="505.5" y="216"/><text fill="#000000" font-family="Tahoma, sans-serif" font-size="12" lengthAdjust="spacingAndGlyphs" textLength="41" x="515.5" y="238.0059">schema</text><!--entity _types--><rect fill="#F8F8F8" height="34.4844" rx="2" ry="2" style="stroke: #000000; stroke-width: 0.6;" width="50" x="511" y="162"/><text fill="#000000" font-family="Tahoma, sans-serif" font-size="12" lengthAdjust="spacingAndGlyphs" textLength="30" x="521" y="184.0059">types</text><ellipse cx="422.8492" cy="129.242" fill="#F8F8F8" rx="17.8492" ry="13.242" style="stroke: #383838; stroke-width: 0.6;"/><text fill="#000000" font-family="Tahoma, sans-serif" font-size="12" lengthAdjust="spacingAndGlyphs" textLength="21" x="412.3492" y="132.9842">utils</text><!--link <b>arkit</b> to _config--><path d="M422.8493,36.7172 C428.5684,42.8939 435.7608,50.6617 442.4154,57.8487 " fill="none" id="&lt;b&gt;arkit&lt;/b&gt;-_config" style="stroke: #383838; stroke-width: 1.0;"/><polygon fill="#383838" points="446.0444,61.7679,442.8647,52.4464,442.6473,58.0991,436.9947,57.8818,446.0444,61.7679" style="stroke: #383838; stroke-width: 1.0;"/><!--link <b>arkit</b> to _generator--><path d="M435.2031,25 C458.3452,25 481.4872,25 504.6292,25 " fill="none" id="&lt;b&gt;arkit&lt;/b&gt;-_generator" style="stroke: #383838; stroke-width: 1.0;"/><polygon fill="#383838" points="509.8799,25,500.8799,21,504.8799,25,500.8799,29,509.8799,25" style="stroke: #383838; stroke-width: 1.0;"/><!--link <b>arkit</b> to _parser--><path d="M394.6479,33.676 C378.707,41.6465 354.6985,53.6507 335.3937,63.3031 " fill="none" id="&lt;b&gt;arkit&lt;/b&gt;-_parser" style="stroke: #383838; stroke-width: 1.0;"/><polygon fill="#383838" points="330.5949,65.7026,340.4336,65.2553,335.067,63.4665,336.8558,58.0999,330.5949,65.7026" style="stroke: #383838; stroke-width: 1.0;"/><!--link <b>arkit</b> to _types--><path d="M433.9521,28.9402 C453.6079,33.5778 481.8929,43.1697 499,62 C523.0734,88.4983 531.4851,130.6237 534.4235,156.4417 " fill="none" id="&lt;b&gt;arkit&lt;/b&gt;-_types" style="stroke: #383838; stroke-width: 1.0;"/><polygon fill="#383838" points="534.9711,161.6919,538.0156,152.3254,534.4522,156.7189,530.0588,153.1556,534.9711,161.6919" style="stroke: #383838; stroke-width: 1.0;"/><!--link <b>arkit</b> to utils--><path d="M401.8366,36.777 C396.5943,43.6415 390.7375,52.7492 388,62 C383.7121,76.49 382.0126,82.1257 388,96 C391.6172,104.3819 398.5268,111.6226 405.2577,117.1683 " fill="none" id="&lt;b&gt;arkit&lt;/b&gt;-utils" style="stroke: #383838; stroke-width: 1.0;"/><polygon fill="#383838" points="409.3944,120.3973,404.7609,111.7064,405.4529,117.3208,399.8386,118.0128,409.3944,120.3973" style="stroke: #383838; stroke-width: 1.0;"/><!--link <b>arkit</b> to yargs--><path d="M389.2021,27.4749 C316.5169,35.99 95,67.0247 95,129 C95,129 95,129 95,233 C95,247.0398 75.7208,278.0903 61.3485,299.2873 " fill="none" id="&lt;b&gt;arkit&lt;/b&gt;-yargs" style="stroke: #383838; stroke-width: 1.0;"/><polygon fill="#383838" points="58.3648,303.6513,66.7465,298.4795,61.1869,299.5238,60.1426,293.9642,58.3648,303.6513" style="stroke: #383838; stroke-width: 1.0;"/><!--link _config to _types--><path d="M472.6713,96.2447 C480.8449,109.1368 492.6159,127.0415 504,142 C508.0166,147.2777 512.5605,152.7786 516.9362,157.8754 " fill="none" id="_config-_types" style="stroke: #383838; stroke-width: 0.6;"/><polygon fill="#383838" points="520.238,161.6837,517.3646,152.2633,516.9626,157.9059,511.3201,157.504,520.238,161.6837" style="stroke: #383838; stroke-width: 0.6;"/><!--link _config to utils--><path d="M448.5784,96.2072 C444.224,101.7898 439.4202,107.9484 435.1628,113.4067 " fill="none" id="_config-utils" style="stroke: #383838; stroke-width: 0.6;"/><polygon fill="#383838" points="432.0301,117.423,440.7195,112.7867,435.1053,113.4805,434.4115,107.8664,432.0301,117.423" style="stroke: #383838; stroke-width: 0.6;"/><!--link _generator to _generator_base--><path d="M564.7188,42.0859 C570.03,47.2075 575.9143,52.8816 581.4441,58.2139 " fill="none" id="_generator-_generator_base" style="stroke: #383838; stroke-width: 0.6;"/><polygon fill="#383838" points="585.2043,61.8399,581.5022,52.7133,581.6051,58.3692,575.9491,58.4721,585.2043,61.8399" style="stroke: #383838; stroke-width: 0.6;"/><!--link _generator to _types--><path d="M584.1335,38.4077 C587.7949,39.6526 591.4632,40.8696 595,42 C625.8202,51.8502 645.5153,36.1686 665,62 C674.0998,74.0639 672.2385,82.7354 665,96 C644.1121,134.2774 597.1704,157.545 566.0487,169.3443 " fill="none" id="_generator-_types" style="stroke: #383838; stroke-width: 0.6;"/><polygon fill="#383838" points="561.1961,171.1401,571.0249,171.7677,565.8853,169.4047,568.2483,164.2651,561.1961,171.1401" style="stroke: #383838; stroke-width: 0.6;"/><!--link _generator to utils--><path d="M509.9225,31.5118 C478.3158,37.888 436.3962,48.5878 426,62 C415.3268,75.7695 416.1052,96.331 418.5949,111.0412 " fill="none" id="_generator-utils" style="stroke: #383838; stroke-width: 0.6;"/><polygon fill="#383838" points="419.5715,116.1726,421.8179,106.5834,418.6365,111.2608,413.959,108.0794,419.5715,116.1726" style="stroke: #383838; stroke-width: 0.6;"/><!--link _generator_base to _types--><path d="M591.3295,96.4187 C579.9928,113.3391 562.7487,139.0766 550.5287,157.3154 " fill="none" id="_generator_base-_types" style="stroke: #383838; stroke-width: 0.6;"/><polygon fill="#383838" points="547.5368,161.7809,555.8695,156.5305,550.3199,157.6271,549.2234,152.0775,547.5368,161.7809" style="stroke: #383838; stroke-width: 0.6;"/><!--link _generator_base to utils--><path d="M551.4192,93.328 C516.1629,103.1214 471.2231,115.6047 444.9273,122.9091 " fill="none" id="_generator_base-utils" style="stroke: #383838; stroke-width: 0.6;"/><polygon fill="#383838" points="439.9251,124.2986,449.6674,125.7437,444.7427,122.9603,447.5261,118.0356,439.9251,124.2986" style="stroke: #383838; stroke-width: 0.6;"/><!--link logger to pino--><path d="M467.1377,192.1045 C472.9498,216.3786 485.4509,268.589 492.6319,298.5802 " fill="none" id="logger-pino" style="stroke: #383838; stroke-width: 0.6;"/><polygon fill="#383838" points="493.8224,303.5525,495.6167,293.8685,492.6581,298.6899,487.8366,295.7313,493.8224,303.5525" style="stroke: #383838; stroke-width: 0.6;"/><!--link _parser to resolve--><path d="M304.8357,96.3381 C305.7233,116.2765 307,149.9939 307,179 C307,179 307,179 307,233 C307,255.6632 313.0955,280.8851 318.3815,298.4964 " fill="none" id="_parser-resolve" style="stroke: #383838; stroke-width: 0.6;"/><polygon fill="#383838" points="319.9883,303.7064,321.1582,293.9273,318.5147,298.9285,313.5135,296.285,319.9883,303.7064" style="stroke: #383838; stroke-width: 0.6;"/><!--link _parser to ts-morph--><path d="M277.3618,84.1812 C234.5041,94.237 155,120.7422 155,179 C155,179 155,179 155,233 C155,256.4589 145.3309,281.6445 136.9713,299.0353 " fill="none" id="_parser-ts-morph" style="stroke: #383838; stroke-width: 0.6;"/><polygon fill="#383838" points="134.6573,303.7258,142.2264,297.4243,136.8695,299.2418,135.052,293.8849,134.6573,303.7258" style="stroke: #383838; stroke-width: 0.6;"/><!--link _parser to tsconfig-paths--><path d="M283.168,96.1926 C263.5,114.4767 237,145.3548 237,179 C237,179 237,179 237,233 C237,255.4075 234.0765,280.8587 231.5619,298.6052 " fill="none" id="_parser-tsconfig-paths" style="stroke: #383838; stroke-width: 0.6;"/><polygon fill="#383838" points="230.7983,303.8535,236.0526,295.5233,231.5183,298.9056,228.136,294.3713,230.7983,303.8535" style="stroke: #383838; stroke-width: 0.6;"/><!--link _parser to _types--><path d="M323.5113,96.1662 C341.0248,110.636 368.0533,130.7335 395,142 C439.2319,160.4935 455.4812,146.9499 501,162 C502.6034,162.5302 504.2275,163.1189 505.8528,163.7497 " fill="none" id="_parser-_types" style="stroke: #383838; stroke-width: 0.6;"/><polygon fill="#383838" points="510.7135,165.7519,503.9154,158.6255,506.0904,163.8475,500.8684,166.0224,510.7135,165.7519" style="stroke: #383838; stroke-width: 0.6;"/><!--link _parser to utils--><path d="M330.7059,90.221 C352.4371,99.3517 382.6559,112.0487 402.5111,120.3912 " fill="none" id="_parser-utils" style="stroke: #383838; stroke-width: 0.6;"/><polygon fill="#383838" points="407.3243,122.4136,400.5766,115.2394,402.7147,120.4767,397.4775,122.6148,407.3243,122.4136" style="stroke: #383838; stroke-width: 0.6;"/><!--link _types to _schema--><path d="M536,196.0859 C536,200.715 536,205.7956 536,210.6671 " fill="none" id="_types-_schema" style="stroke: #383838; stroke-width: 0.6;"/><polygon fill="#383838" points="536,215.8399,540,206.8399,536,210.8399,532,206.8399,536,215.8399" style="stroke: #383838; stroke-width: 0.6;"/><!--link utils to logger--><path d="M432.5093,140.5967 C437.9383,147.2174 444.8274,155.6188 450.7769,162.8743 " fill="none" id="utils-logger" style="stroke: #383838; stroke-width: 0.6;"/><polygon fill="#383838" points="453.9703,166.7686,451.3567,157.2729,450.7999,162.9022,445.1705,162.3454,453.9703,166.7686" style="stroke: #383838; stroke-width: 0.6;"/><!--link utils to nanomatch--><path d="M422.5189,142.1969 C421.3364,174.63 418.2779,258.5196 416.8098,298.7886 " fill="none" id="utils-nanomatch" style="stroke: #383838; stroke-width: 0.6;"/><polygon fill="#383838" points="416.622,303.9402,420.9475,295.092,416.8043,298.9435,412.9528,294.8004,416.622,303.9402" style="stroke: #383838; stroke-width: 0.6;"/><!--link utils to _types--><path d="M438.9403,135.4602 C454.7789,141.9457 479.7124,152.3349 501,162 C502.6992,162.7715 504.4392,163.5744 506.1915,164.393 " fill="none" id="utils-_types" style="stroke: #383838; stroke-width: 0.6;"/><polygon fill="#383838" points="510.8388,166.5858,504.4064,159.1276,506.3169,164.4521,500.9925,166.3626,510.8388,166.5858" style="stroke: #383838; stroke-width: 0.6;"/><script type="text/plantuml"><![CDATA[
@startuml

scale max 1920 width
top to bottom direction

skinparam monochrome true
skinparam shadowing false
skinparam nodesep 20
skinparam ranksep 20
skinparam defaultFontName Tahoma
skinparam defaultFontSize 12
skinparam roundCorner 4
skinparam dpi 150
skinparam arrowThickness 0.6
skinparam packageTitleAlignment left

skinparam usecase {
  borderThickness 0.6
}

skinparam rectangle {
  borderThickness 0.6
}

skinparam component {
  borderThickness 1
}


(<b>arkit</b>)
rectangle "config" as _config
rectangle "generator" as _generator
rectangle "generator.base" as _generator_base
(<b>index</b>)
(logger)
rectangle "parser" as _parser
rectangle "schema" as _schema
rectangle "types" as _types
(utils)

package "Dependencies" {
  [nanomatch]
  [pino]
  [resolve]
  [ts-morph]
  [tsconfig-paths]
  [yargs]
}

(<b>arkit</b>) -[thickness=1]> _config
(<b>arkit</b>) -[thickness=1]> _generator
(<b>arkit</b>) -[thickness=1]> _parser
(<b>arkit</b>) -[thickness=1]> _types
(<b>arkit</b>) -[thickness=1]> (utils)
(<b>arkit</b>) ----[thickness=1]> [yargs]
_config --> _types
_config --> (utils)
_generator --> _generator_base
_generator --> _types
_generator --> (utils)
_generator_base --> _types
_generator_base --> (utils)
(logger) ----> [pino]
_parser ----> [resolve]
_parser ----> [ts-morph]
_parser ----> [tsconfig-paths]
_parser --> _types
_parser --> (utils)
_types --> _schema
(utils) --> (logger)
(utils) ----> [nanomatch]
(utils) --> _types

@enduml


' View and edit on https://arkit.herokuapp.com
]]></script></g></svg>