<?xml version="1.0" encoding="UTF-8" standalone="no"?><svg xmlns="http://www.w3.org/2000/svg" xmlns:xlink="http://www.w3.org/1999/xlink" contentScriptType="application/ecmascript" contentStyleType="text/css" height="413px" preserveAspectRatio="none" style="width:823px;height:413px;" version="1.1" viewBox="0 0 823 413" width="823px" zoomAndPan="magnify"><defs/><g><!--cluster Dependencies--><path d="M185,318 L281,318 A3,3 0 0 1 283,320 L290,338.4844 L809,338.4844 A2,2 0 0 1 811,340.4844 L811,399 A2,2 0 0 1 809,401 L185,401 A2,2 0 0 1 183,399 L183,320 A2,2 0 0 1 185,318 " fill="#FFFFFF" style="stroke: #000000; stroke-width: 1.5;"/><line style="stroke: #000000; stroke-width: 1.5;" x1="183" x2="290" y1="338.4844" y2="338.4844"/><text fill="#000000" font-family="Tahoma, sans-serif" font-size="12" font-weight="bold" lengthAdjust="spacingAndGlyphs" textLength="94" x="187" y="332.0059">Dependencies</text><!--entity nanomatch--><rect fill="#F8F8F8" height="34.4844" rx="2" ry="2" style="stroke: #383838; stroke-width: 1.0;" width="85" x="267.5" y="351"/><rect fill="#F8F8F8" height="5" style="stroke: #383838; stroke-width: 1.0;" width="10" x="262.5" y="356"/><rect fill="#F8F8F8" height="5" style="stroke: #383838; stroke-width: 1.0;" width="10" x="262.5" y="375.4844"/><text fill="#000000" font-family="Tahoma, sans-serif" font-size="12" lengthAdjust="spacingAndGlyphs" textLength="65" x="277.5" y="373.0059">nanomatch</text><!--entity pino--><rect fill="#F8F8F8" height="34.4844" rx="2" ry="2" style="stroke: #383838; stroke-width: 1.0;" width="45" x="369.5" y="351"/><rect fill="#F8F8F8" height="5" style="stroke: #383838; stroke-width: 1.0;" width="10" x="364.5" y="356"/><rect fill="#F8F8F8" height="5" style="stroke: #383838; stroke-width: 1.0;" width="10" x="364.5" y="375.4844"/><text fill="#000000" font-family="Tahoma, sans-serif" font-size="12" lengthAdjust="spacingAndGlyphs" textLength="25" x="379.5" y="373.0059">pino</text><!--entity progress--><rect fill="#F8F8F8" height="34.4844" rx="2" ry="2" style="stroke: #383838; stroke-width: 1.0;" width="71" x="723.5" y="351"/><rect fill="#F8F8F8" height="5" style="stroke: #383838; stroke-width: 1.0;" width="10" x="718.5" y="356"/><rect fill="#F8F8F8" height="5" style="stroke: #383838; stroke-width: 1.0;" width="10" x="718.5" y="375.4844"/><text fill="#000000" font-family="Tahoma, sans-serif" font-size="12" lengthAdjust="spacingAndGlyphs" textLength="51" x="733.5" y="373.0059">progress</text><!--entity resolve--><rect fill="#F8F8F8" height="34.4844" rx="2" ry="2" style="stroke: #383838; stroke-width: 1.0;" width="62" x="432" y="351"/><rect fill="#F8F8F8" height="5" style="stroke: #383838; stroke-width: 1.0;" width="10" x="427" y="356"/><rect fill="#F8F8F8" height="5" style="stroke: #383838; stroke-width: 1.0;" width="10" x="427" y="375.4844"/><text fill="#000000" font-family="Tahoma, sans-serif" font-size="12" lengthAdjust="spacingAndGlyphs" textLength="42" x="442" y="373.0059">resolve</text><!--entity ts-morph--><rect fill="#F8F8F8" height="34.4844" rx="2" ry="2" style="stroke: #383838; stroke-width: 1.0;" width="73" x="511.5" y="351"/><rect fill="#F8F8F8" height="5" style="stroke: #383838; stroke-width: 1.0;" width="10" x="506.5" y="356"/><rect fill="#F8F8F8" height="5" style="stroke: #383838; stroke-width: 1.0;" width="10" x="506.5" y="375.4844"/><text fill="#000000" font-family="Tahoma, sans-serif" font-size="12" lengthAdjust="spacingAndGlyphs" textLength="53" x="521.5" y="373.0059">ts-morph</text><!--entity tsconfig-paths--><rect fill="#F8F8F8" height="34.4844" rx="2" ry="2" style="stroke: #383838; stroke-width: 1.0;" width="104" x="602" y="351"/><rect fill="#F8F8F8" height="5" style="stroke: #383838; stroke-width: 1.0;" width="10" x="597" y="356"/><rect fill="#F8F8F8" height="5" style="stroke: #383838; stroke-width: 1.0;" width="10" x="597" y="375.4844"/><text fill="#000000" font-family="Tahoma, sans-serif" font-size="12" lengthAdjust="spacingAndGlyphs" textLength="84" x="612" y="373.0059">tsconfig-paths</text><!--entity yargs--><rect fill="#F8F8F8" height="34.4844" rx="2" ry="2" style="stroke: #383838; stroke-width: 1.0;" width="51" x="199.5" y="351"/><rect fill="#F8F8F8" height="5" style="stroke: #383838; stroke-width: 1.0;" width="10" x="194.5" y="356"/><rect fill="#F8F8F8" height="5" style="stroke: #383838; stroke-width: 1.0;" width="10" x="194.5" y="375.4844"/><text fill="#000000" font-family="Tahoma, sans-serif" font-size="12" lengthAdjust="spacingAndGlyphs" textLength="31" x="209.5" y="373.0059">yargs</text><ellipse cx="239.0061" cy="25.242" fill="#F8F8F8" rx="23.5061" ry="13.242" style="stroke: #383838; stroke-width: 0.5;"/><text fill="#000000" font-family="Tahoma, sans-serif" font-size="12" font-weight="bold" lengthAdjust="spacingAndGlyphs" textLength="29" x="224.5061" y="28.9842">arkit</text><ellipse cx="20.1446" cy="217.9157" fill="#F8F8F8" rx="14.1446" ry="11.9157" style="stroke: #383838; stroke-width: 0.5;"/><text fill="#000000" font-family="Tahoma, sans-serif" font-size="12" lengthAdjust="spacingAndGlyphs" textLength="13" x="13.6446" y="221.6579">cli</text><!--entity _config--><rect fill="#F8F8F8" height="34.4844" rx="2" ry="2" style="stroke: #000000; stroke-width: 0.5;" width="56" x="211" y="75"/><text fill="#000000" font-family="Tahoma, sans-serif" font-size="12" lengthAdjust="spacingAndGlyphs" textLength="36" x="221" y="97.0059">config</text><!--entity _converter--><rect fill="#F8F8F8" height="34.4844" rx="2" ry="2" style="stroke: #000000; stroke-width: 0.5;" width="74" x="319" y="75"/><text fill="#000000" font-family="Tahoma, sans-serif" font-size="12" lengthAdjust="spacingAndGlyphs" textLength="54" x="329" y="97.0059">converter</text><!--entity _filesystem--><rect fill="#F8F8F8" height="34.4844" rx="2" ry="2" style="stroke: #000000; stroke-width: 0.5;" width="79" x="480.5" y="75"/><text fill="#000000" font-family="Tahoma, sans-serif" font-size="12" lengthAdjust="spacingAndGlyphs" textLength="59" x="490.5" y="97.0059">filesystem</text><!--entity _generator--><rect fill="#F8F8F8" height="34.4844" rx="2" ry="2" style="stroke: #000000; stroke-width: 0.5;" width="75" x="118.5" y="75"/><text fill="#000000" font-family="Tahoma, sans-serif" font-size="12" lengthAdjust="spacingAndGlyphs" textLength="55" x="128.5" y="97.0059">generator</text><ellipse cx="238.2487" cy="285.242" fill="#F8F8F8" rx="27.7487" ry="13.242" style="stroke: #383838; stroke-width: 0.5;"/><text fill="#000000" font-family="Tahoma, sans-serif" font-size="12" font-weight="bold" lengthAdjust="spacingAndGlyphs" textLength="35" x="220.7487" y="288.9842">index</text><ellipse cx="406.9558" cy="218.242" fill="#F8F8F8" rx="28.4558" ry="13.242" style="stroke: #383838; stroke-width: 0.5;"/><text fill="#000000" font-family="Tahoma, sans-serif" font-size="12" lengthAdjust="spacingAndGlyphs" textLength="36" x="388.9558" y="221.9842">logger</text><!--entity _parser--><rect fill="#F8F8F8" height="34.4844" rx="2" ry="2" style="stroke: #000000; stroke-width: 0.5;" width="56" x="459" y="8"/><text fill="#000000" font-family="Tahoma, sans-serif" font-size="12" lengthAdjust="spacingAndGlyphs" textLength="36" x="469" y="30.0059">parser</text><!--entity _puml--><rect fill="#F8F8F8" height="34.4844" rx="2" ry="2" style="stroke: #000000; stroke-width: 0.5;" width="48" x="53" y="75"/><text fill="#000000" font-family="Tahoma, sans-serif" font-size="12" lengthAdjust="spacingAndGlyphs" textLength="28" x="63" y="97.0059">puml</text><!--entity _schema--><rect fill="#F8F8F8" height="34.4844" rx="2" ry="2" style="stroke: #000000; stroke-width: 0.5;" width="66" x="127" y="268"/><text fill="#000000" font-family="Tahoma, sans-serif" font-size="12" lengthAdjust="spacingAndGlyphs" textLength="46" x="137" y="290.0059">schema</text><!--entity _types--><rect fill="#F8F8F8" height="34.4844" rx="2" ry="2" style="stroke: #000000; stroke-width: 0.5;" width="51" x="185.5" y="201"/><text fill="#000000" font-family="Tahoma, sans-serif" font-size="12" lengthAdjust="spacingAndGlyphs" textLength="31" x="195.5" y="223.0059">types</text><ellipse cx="326.9706" cy="155.242" fill="#F8F8F8" rx="19.9706" ry="13.242" style="stroke: #383838; stroke-width: 0.5;"/><text fill="#000000" font-family="Tahoma, sans-serif" font-size="12" lengthAdjust="spacingAndGlyphs" textLength="24" x="314.9706" y="158.9842">utils</text><!--link <b>arkit</b> to cli--><path d="M216.106,28.007 C166.997,32.819 54.042,46.767 30,75 C-0.6209,110.958 8.9028,172.363 15.699,201.184 " fill="none" id="&lt;b&gt;arkit&lt;/b&gt;-cli" style="stroke: #000000; stroke-width: 1.0;"/><polygon fill="#000000" points="16.9259,206.172,18.6604,196.4771,15.7316,201.3167,10.892,198.3879,16.9259,206.172" style="stroke: #000000; stroke-width: 1.0;"/><!--link <b>arkit</b> to _config--><path d="M239,38.226 C239,46.995 239,59.042 239,69.412 " fill="none" id="&lt;b&gt;arkit&lt;/b&gt;-_config" style="stroke: #000000; stroke-width: 1.0;"/><polygon fill="#000000" points="239,74.655,243,65.655,239,69.655,235,65.655,239,74.655" style="stroke: #000000; stroke-width: 1.0;"/><!--link <b>arkit</b> to _converter--><path d="M254.779,34.766 C272.016,44.342 300.133,59.963 322.364,72.314 " fill="none" id="&lt;b&gt;arkit&lt;/b&gt;-_converter" style="stroke: #000000; stroke-width: 1.0;"/><polygon fill="#000000" points="327.013,74.896,321.0882,67.0286,322.6422,72.4678,317.203,74.0218,327.013,74.896" style="stroke: #000000; stroke-width: 1.0;"/><!--link <b>arkit</b> to _generator--><path d="M226.031,36.156 C213.945,45.621 195.603,59.986 180.721,71.64 " fill="none" id="&lt;b&gt;arkit&lt;/b&gt;-_generator" style="stroke: #000000; stroke-width: 1.0;"/><polygon fill="#000000" points="176.623,74.849,186.1752,72.4498,180.5597,71.7665,181.2431,66.151,176.623,74.849" style="stroke: #000000; stroke-width: 1.0;"/><!--link <b>arkit</b> to _parser--><path d="M262.734,25 C326.357,25 389.979,25 453.601,25 " fill="none" id="&lt;b&gt;arkit&lt;/b&gt;-_parser" style="stroke: #000000; stroke-width: 1.0;"/><polygon fill="#000000" points="458.967,25,449.967,21,453.967,25,449.967,29,458.967,25" style="stroke: #000000; stroke-width: 1.0;"/><!--link <b>arkit</b> to progress--><path d="M262.579,27.033 C329.16,30.331 517.062,42.373 568,75 C621.816,109.471 716.675,285.49 748.359,346.3022 " fill="none" id="&lt;b&gt;arkit&lt;/b&gt;-progress" style="stroke: #000000; stroke-width: 1.0;"/><polygon fill="#000000" points="750.705,350.816,750.1032,340.9855,748.3989,346.3796,743.0049,344.6753,750.705,350.816" style="stroke: #000000; stroke-width: 1.0;"/><!--link <b>arkit</b> to _puml--><path d="M219.554,32.78 C194.116,41.786 148.276,58.49 110,75 C108.63,75.591 107.234,76.208 105.8284,76.841 " fill="none" id="&lt;b&gt;arkit&lt;/b&gt;-_puml" style="stroke: #000000; stroke-width: 1.0;"/><polygon fill="#000000" points="101.0367,79.042,110.8848,78.9192,105.5801,76.9545,107.5448,71.6498,101.0367,79.042" style="stroke: #000000; stroke-width: 1.0;"/><!--link <b>arkit</b> to _types--><path d="M216.071,28.288 C169.221,33.486 65.1434,47.886 44,75 C-1.8672,133.819 120.379,185.805 180.211,206.946 " fill="none" id="&lt;b&gt;arkit&lt;/b&gt;-_types" style="stroke: #000000; stroke-width: 1.0;"/><polygon fill="#000000" points="185.104,208.655,177.9263,201.9111,180.3836,207.0063,175.2884,209.4636,185.104,208.655" style="stroke: #000000; stroke-width: 1.0;"/><!--link <b>arkit</b> to utils--><path d="M262.588,25.146 C299.184,25.267 368.776,31.587 401,75 C410.007,87.134 408.406,95.828 401,109 C395.03,119.617 366.979,134.819 347.186,144.55 " fill="none" id="&lt;b&gt;arkit&lt;/b&gt;-utils" style="stroke: #000000; stroke-width: 1.0;"/><polygon fill="#000000" points="342.6,146.78,352.4431,146.4422,347.0967,144.5938,348.9451,139.2475,342.6,146.78" style="stroke: #000000; stroke-width: 1.0;"/><!--link cli to yargs--><path d="M29.0628,227.521 C45.9016,243.157 83.4475,277.107 118,302 C142.861,319.9107 172.788,337.8062 194.663,350.272 " fill="none" id="cli-yargs" style="stroke: #000000; stroke-width: 0.55;"/><polygon fill="#000000" points="199.204,352.8477,193.3495,344.9278,194.855,350.3806,189.4022,351.8862,199.204,352.8477" style="stroke: #000000; stroke-width: 0.55;"/><!--link _config to _types--><path d="M235.339,109.211 C230.33,131.397 221.329,171.258 215.788,195.794 " fill="none" id="_config-_types" style="stroke: #000000; stroke-width: 0.55;"/><polygon fill="#000000" points="214.661,200.785,220.5453,192.8872,215.7624,195.9078,212.7418,191.1249,214.661,200.785" style="stroke: #000000; stroke-width: 0.55;"/><!--link _config to utils--><path d="M262.121,109.027 C276.945,119.302 295.884,132.431 309.468,141.847 " fill="none" id="_config-utils" style="stroke: #000000; stroke-width: 0.55;"/><polygon fill="#000000" points="313.855,144.888,308.7379,136.4728,309.746,142.0391,304.1797,143.0472,313.855,144.888" style="stroke: #000000; stroke-width: 0.55;"/><!--link _converter to logger--><path d="M362.667,109.211 C372.347,132.746 390.206,176.169 400.045,200.09 " fill="none" id="_converter-logger" style="stroke: #000000; stroke-width: 0.55;"/><polygon fill="#000000" points="402.017,204.885,402.2939,195.04,400.1156,200.2607,394.8949,198.0824,402.017,204.885" style="stroke: #000000; stroke-width: 0.55;"/><!--link _converter to _types--><path d="M336.89,109.063 C325.561,118.605 310.935,130.961 298,142 C276,160.775 251.004,182.348 233.468,197.523 " fill="none" id="_converter-_types" style="stroke: #000000; stroke-width: 0.55;"/><polygon fill="#000000" points="229.622,200.853,239.0448,197.9876,233.4026,197.5808,233.8094,191.9386,229.622,200.853" style="stroke: #000000; stroke-width: 0.55;"/><!--link _converter to utils--><path d="M348.381,109.027 C344.189,117.843 339,128.759 334.783,137.629 " fill="none" id="_converter-utils" style="stroke: #000000; stroke-width: 0.55;"/><polygon fill="#000000" points="332.553,142.32,340.0285,135.9077,334.6989,137.8039,332.8027,132.4743,332.553,142.32" style="stroke: #000000; stroke-width: 0.55;"/><!--link _filesystem to logger--><path d="M500.099,109.178 C489.273,118.354 475.904,130.311 465,142 C447.143,161.144 429.087,185.449 417.972,201.113 " fill="none" id="_filesystem-logger" style="stroke: #000000; stroke-width: 0.55;"/><polygon fill="#000000" points="415.027,205.291,423.4829,200.2414,417.9087,201.2049,416.9452,195.6307,415.027,205.291" style="stroke: #000000; stroke-width: 0.55;"/><!--link _filesystem to resolve--><path d="M516.605,109.319 C506.804,156.435 478.461,292.681 467.449,345.6142 " fill="none" id="_filesystem-resolve" style="stroke: #000000; stroke-width: 0.55;"/><polygon fill="#000000" points="466.377,350.7661,472.1261,342.7694,467.3953,345.8709,464.2938,341.1401,466.377,350.7661" style="stroke: #000000; stroke-width: 0.55;"/><!--link _filesystem to _schema--><path d="M513.565,109.131 C499.763,142.895 466.73,219.2 444,235 C354.868,296.958 307.183,241.17 202,268 C200.743,268.321 199.472,268.667 198.195,269.035 " fill="none" id="_filesystem-_schema" style="stroke: #000000; stroke-width: 0.55;"/><polygon fill="#000000" points="193.248,270.547,203.0241,271.7416,198.0296,269.0855,200.6858,264.091,193.248,270.547" style="stroke: #000000; stroke-width: 0.55;"/><!--link _filesystem to ts-morph--><path d="M522.1,109.322 C523.299,118.846 524.799,131.096 526,142 C534.242,216.86 542.488,305.908 546.102,345.8166 " fill="none" id="_filesystem-ts-morph" style="stroke: #000000; stroke-width: 0.55;"/><polygon fill="#000000" points="546.561,350.8891,549.7346,341.5656,546.1109,345.9094,541.7671,342.2857,546.561,350.8891" style="stroke: #000000; stroke-width: 0.55;"/><!--link _filesystem to tsconfig-paths--><path d="M527.981,109.319 C551.116,156.625 618.193,293.783 643.853,346.2517 " fill="none" id="_filesystem-tsconfig-paths" style="stroke: #000000; stroke-width: 0.55;"/><polygon fill="#000000" points="646.061,350.7661,645.7,340.9239,643.8642,346.2745,638.5135,344.4387,646.061,350.7661" style="stroke: #000000; stroke-width: 0.55;"/><!--link _filesystem to _types--><path d="M487.229,109.055 C454.227,124.946 401.658,149.51 355,168 C316.359,183.313 270.8,198.319 241.436,207.607 " fill="none" id="_filesystem-_types" style="stroke: #000000; stroke-width: 0.55;"/><polygon fill="#000000" points="236.507,209.16,246.2931,210.2698,241.2758,207.6571,243.8885,202.6397,236.507,209.16" style="stroke: #000000; stroke-width: 0.55;"/><!--link _filesystem to utils--><path d="M480.381,105.017 C436.861,118.235 371.571,138.127 360,142 C356.26,143.252 352.304,144.637 348.478,146.008 " fill="none" id="_filesystem-utils" style="stroke: #000000; stroke-width: 0.55;"/><polygon fill="#000000" points="343.729,147.727,353.5531,148.4256,348.4306,146.0255,350.8307,140.9031,343.729,147.727" style="stroke: #000000; stroke-width: 0.55;"/><!--link _generator to _types--><path d="M163.19,109.211 C173.072,131.49 190.859,171.592 201.73,196.101 " fill="none" id="_generator-_types" style="stroke: #000000; stroke-width: 0.55;"/><polygon fill="#000000" points="203.808,200.785,203.8151,190.9361,201.7806,196.2145,196.5023,194.1799,203.808,200.785" style="stroke: #000000; stroke-width: 0.55;"/><!--link _generator to utils--><path d="M193.527,106.387 C227.586,118.537 276.663,136.043 304.841,146.095 " fill="none" id="_generator-utils" style="stroke: #000000; stroke-width: 0.55;"/><polygon fill="#000000" points="309.851,147.882,302.7179,141.0909,305.1416,146.2022,300.0303,148.6259,309.851,147.882" style="stroke: #000000; stroke-width: 0.55;"/><!--link <b>index</b> to yargs--><path d="M236.026,298.302 C234.014,310.837 230.854,330.5245 228.432,345.6166 " fill="none" id="&lt;b&gt;index&lt;/b&gt;-yargs" style="stroke: #000000; stroke-width: 1.0;"/><polygon fill="#000000" points="227.576,350.9471,232.9517,342.6947,228.3684,346.0103,225.0528,341.4269,227.576,350.9471" style="stroke: #000000; stroke-width: 1.0;"/><!--link logger to pino--><path d="M405.772,231.111 C403.233,256.172 397.371,314.003 394.175,345.5401 " fill="none" id="logger-pino" style="stroke: #000000; stroke-width: 0.55;"/><polygon fill="#000000" points="393.648,350.738,398.5351,342.1872,394.1522,345.7635,390.5759,341.3805,393.648,350.738" style="stroke: #000000; stroke-width: 0.55;"/><!--link _parser to _filesystem--><path d="M495.157,42.067 C499.409,50.442 504.663,60.791 509.243,69.812 " fill="none" id="_parser-_filesystem" style="stroke: #000000; stroke-width: 0.55;"/><polygon fill="#000000" points="511.707,74.666,511.1982,64.8303,509.443,70.208,504.0653,68.4527,511.707,74.666" style="stroke: #000000; stroke-width: 0.55;"/><!--link _parser to progress--><path d="M515.467,28.262 C578.236,34.963 723,60.546 723,154 C723,154 723,154 723,219 C723,265.303 739.842,317.5053 750.487,345.874 " fill="none" id="_parser-progress" style="stroke: #000000; stroke-width: 0.55;"/><polygon fill="#000000" points="752.397,350.887,752.9307,341.0526,750.6169,346.2146,745.4549,343.9008,752.397,350.887" style="stroke: #000000; stroke-width: 0.55;"/><!--link _parser to ts-morph--><path d="M515.261,34.879 C533.864,42.364 556.78,55.1 568,75 C618.546,164.652 576.59,295.226 556.864,345.8484 " fill="none" id="_parser-ts-morph" style="stroke: #000000; stroke-width: 0.55;"/><polygon fill="#000000" points="554.915,350.7762,561.9448,343.8782,556.754,346.1267,554.5055,340.9359,554.915,350.7762" style="stroke: #000000; stroke-width: 0.55;"/><!--link _parser to _types--><path d="M458.732,27.929 C421.532,31.7 355.542,42.76 310,75 C286.819,91.41 243.9,160.998 223.026,196.291 " fill="none" id="_parser-_types" style="stroke: #000000; stroke-width: 0.55;"/><polygon fill="#000000" points="220.352,200.83,228.3664,195.1055,222.8897,196.5219,221.4734,191.0452,220.352,200.83" style="stroke: #000000; stroke-width: 0.55;"/><!--link _parser to utils--><path d="M476.686,42.089 C464.442,60.197 442.563,89.61 418,109 C396.702,125.812 368.11,138.678 348.699,146.264 " fill="none" id="_parser-utils" style="stroke: #000000; stroke-width: 0.55;"/><polygon fill="#000000" points="343.972,148.078,353.8076,148.5882,348.6401,146.2867,350.9416,141.1192,343.972,148.078" style="stroke: #000000; stroke-width: 0.55;"/><!--link _puml to _schema--><path d="M84.0765,109.285 C99.0838,143.819 134.093,224.383 150.805,262.839 " fill="none" id="_puml-_schema" style="stroke: #000000; stroke-width: 0.55;"/><polygon fill="#000000" points="152.941,267.757,153.0224,257.9085,150.9482,263.1713,145.6853,261.097,152.941,267.757" style="stroke: #000000; stroke-width: 0.55;"/><!--link _puml to _types--><path d="M94.5182,109.211 C118.995,131.861 163.38,172.934 189.726,197.314 " fill="none" id="_puml-_types" style="stroke: #000000; stroke-width: 0.55;"/><polygon fill="#000000" points="193.478,200.785,189.5886,191.7367,189.808,197.3893,184.1554,197.6087,193.478,200.785" style="stroke: #000000; stroke-width: 0.55;"/><!--link _puml to utils--><path d="M101.2245,105.574 C104.1382,106.838 107.107,108.016 110,109 C177.627,132.01 261.3,145.314 302.174,150.887 " fill="none" id="_puml-utils" style="stroke: #000000; stroke-width: 0.55;"/><polygon fill="#000000" points="307.415,151.591,299.0279,146.4281,302.4595,150.9251,297.9625,154.3568,307.415,151.591" style="stroke: #000000; stroke-width: 0.55;"/><!--link _types to _schema--><path d="M198.393,235.067 C191.701,243.597 183.401,254.175 176.232,263.312 " fill="none" id="_types-_schema" style="stroke: #000000; stroke-width: 0.55;"/><polygon fill="#000000" points="172.816,267.666,181.5185,263.0544,175.9024,263.7323,175.2245,258.1162,172.816,267.666" style="stroke: #000000; stroke-width: 0.55;"/><!--link utils to logger--><path d="M339.5,165.531 C352.836,175.7 374.076,191.896 389.166,203.402 " fill="none" id="utils-logger" style="stroke: #000000; stroke-width: 0.55;"/><polygon fill="#000000" points="393.248,206.514,388.5169,197.8759,389.2721,203.4821,383.6659,204.2373,393.248,206.514" style="stroke: #000000; stroke-width: 0.55;"/><!--link utils to nanomatch--><path d="M326.013,168.256 C323.221,202.909 315.244,301.913 311.715,345.7133 " fill="none" id="utils-nanomatch" style="stroke: #000000; stroke-width: 0.55;"/><polygon fill="#000000" points="311.307,350.7731,316.017,342.1235,311.7087,345.7893,308.0429,341.4809,311.307,350.7731" style="stroke: #000000; stroke-width: 0.55;"/><!--link utils to ts-morph--><path d="M331.119,168.009 C337.344,184.721 350.526,215.167 370,235 C417.275,283.145 450.577,266.313 502,310 C514.515,320.6325 526.11,335.0429 534.527,346.7138 " fill="none" id="utils-ts-morph" style="stroke: #000000; stroke-width: 0.55;"/><polygon fill="#000000" points="537.481,350.8777,535.5355,341.2229,534.5878,346.7998,529.0109,345.8521,537.481,350.8777" style="stroke: #000000; stroke-width: 0.55;"/><!--link utils to _types--><path d="M311.835,163.975 C293.987,173.36 263.912,189.176 241.241,201.097 " fill="none" id="utils-_types" style="stroke: #000000; stroke-width: 0.55;"/><polygon fill="#000000" points="236.812,203.427,246.6394,202.7774,241.2372,201.0994,242.9152,195.6972,236.812,203.427" style="stroke: #000000; stroke-width: 0.55;"/><script type="text/plantuml"><![CDATA[
@startuml

scale max 1920 width
top to bottom direction

skinparam nodesep 17
skinparam ranksep 33
skinparam monochrome true
skinparam shadowing false
skinparam defaultFontName Tahoma
skinparam defaultFontSize 12
skinparam roundCorner 4
skinparam dpi 150
skinparam arrowColor black
skinparam arrowThickness 0.55
skinparam packageTitleAlignment left

skinparam usecase {
  borderThickness 0.5
}

skinparam rectangle {
  borderThickness 0.5
}

skinparam component {
  borderThickness 1
}


(<b>arkit</b>)
(cli)
rectangle "config" as _config
rectangle "converter" as _converter
rectangle "filesystem" as _filesystem
rectangle "generator" as _generator
(<b>index</b>)
(logger)
rectangle "parser" as _parser
rectangle "puml" as _puml
rectangle "schema" as _schema
rectangle "types" as _types
(utils)

package "Dependencies" {
  [nanomatch]
  [pino]
  [progress]
  [resolve]
  [ts-morph]
  [tsconfig-paths]
  [yargs]
}

(<b>arkit</b>) -[thickness=1]> (cli)
(<b>arkit</b>) -[thickness=1]> _config
(<b>arkit</b>) -[thickness=1]> _converter
(<b>arkit</b>) -[thickness=1]> _generator
(<b>arkit</b>) -[thickness=1]> _parser
(<b>arkit</b>) ---[thickness=1]> [progress]
(<b>arkit</b>) -[thickness=1]> _puml
(<b>arkit</b>) -[thickness=1]> _types
(<b>arkit</b>) -[thickness=1]> (utils)
(cli) ---> [yargs]
_config --> _types
_config --> (utils)
_converter --> (logger)
_converter --> _types
_converter --> (utils)
_filesystem --> (logger)
_filesystem ---> [resolve]
_filesystem --> _schema
_filesystem ---> [ts-morph]
_filesystem ---> [tsconfig-paths]
_filesystem --> _types
_filesystem --> (utils)
_generator --> _types
_generator --> (utils)
(<b>index</b>) --[thickness=1]> [yargs]
(logger) ---> [pino]
_parser --> _filesystem
_parser ---> [progress]
_parser ---> [ts-morph]
_parser --> _types
_parser --> (utils)
_puml --> _schema
_puml --> _types
_puml --> (utils)
_types --> _schema
(utils) --> (logger)
(utils) ---> [nanomatch]
(utils) ---> [ts-morph]
(utils) --> _types

@enduml


' View and edit on https://arkit.pro
]]></script></g></svg>