<?xml version="1.0" encoding="UTF-8" standalone="no"?><svg xmlns="http://www.w3.org/2000/svg" xmlns:xlink="http://www.w3.org/1999/xlink" contentScriptType="application/ecmascript" contentStyleType="text/css" height="385px" preserveAspectRatio="none" style="width:778px;height:385px;" version="1.1" viewBox="0 0 778 385" width="778px" zoomAndPan="magnify"><defs/><g><!--cluster Dependencies--><path d="M24,290 L120,290 A3,3 0 0 1 122,292 L129,310.4844 L654,310.4844 A2,2 0 0 1 656,312.4844 L656,371 A2,2 0 0 1 654,373 L24,373 A2,2 0 0 1 22,371 L22,292 A2,2 0 0 1 24,290 " fill="#FFFFFF" style="stroke: #000000; stroke-width: 1.5;"/><line style="stroke: #000000; stroke-width: 1.5;" x1="22" x2="129" y1="310.4844" y2="310.4844"/><text fill="#000000" font-family="Tahoma, sans-serif" font-size="12" font-weight="bold" lengthAdjust="spacingAndGlyphs" textLength="94" x="26" y="304.0059">Dependencies</text><!--entity nanomatch--><rect fill="#F8F8F8" height="34.4844" rx="2" ry="2" style="stroke: #383838; stroke-width: 1.0;" width="85" x="491.5" y="323"/><rect fill="#F8F8F8" height="5" style="stroke: #383838; stroke-width: 1.0;" width="10" x="486.5" y="328"/><rect fill="#F8F8F8" height="5" style="stroke: #383838; stroke-width: 1.0;" width="10" x="486.5" y="347.4844"/><text fill="#000000" font-family="Tahoma, sans-serif" font-size="12" lengthAdjust="spacingAndGlyphs" textLength="65" x="501.5" y="345.0059">nanomatch</text><!--entity pino--><rect fill="#F8F8F8" height="34.4844" rx="2" ry="2" style="stroke: #383838; stroke-width: 1.0;" width="45" x="594.5" y="323"/><rect fill="#F8F8F8" height="5" style="stroke: #383838; stroke-width: 1.0;" width="10" x="589.5" y="328"/><rect fill="#F8F8F8" height="5" style="stroke: #383838; stroke-width: 1.0;" width="10" x="589.5" y="347.4844"/><text fill="#000000" font-family="Tahoma, sans-serif" font-size="12" lengthAdjust="spacingAndGlyphs" textLength="25" x="604.5" y="345.0059">pino</text><!--entity progress--><rect fill="#F8F8F8" height="34.4844" rx="2" ry="2" style="stroke: #383838; stroke-width: 1.0;" width="71" x="188.5" y="323"/><rect fill="#F8F8F8" height="5" style="stroke: #383838; stroke-width: 1.0;" width="10" x="183.5" y="328"/><rect fill="#F8F8F8" height="5" style="stroke: #383838; stroke-width: 1.0;" width="10" x="183.5" y="347.4844"/><text fill="#000000" font-family="Tahoma, sans-serif" font-size="12" lengthAdjust="spacingAndGlyphs" textLength="51" x="198.5" y="345.0059">progress</text><!--entity resolve--><rect fill="#F8F8F8" height="34.4844" rx="2" ry="2" style="stroke: #383838; stroke-width: 1.0;" width="62" x="108" y="323"/><rect fill="#F8F8F8" height="5" style="stroke: #383838; stroke-width: 1.0;" width="10" x="103" y="328"/><rect fill="#F8F8F8" height="5" style="stroke: #383838; stroke-width: 1.0;" width="10" x="103" y="347.4844"/><text fill="#000000" font-family="Tahoma, sans-serif" font-size="12" lengthAdjust="spacingAndGlyphs" textLength="42" x="118" y="345.0059">resolve</text><!--entity ts-morph--><rect fill="#F8F8F8" height="34.4844" rx="2" ry="2" style="stroke: #383838; stroke-width: 1.0;" width="73" x="277.5" y="323"/><rect fill="#F8F8F8" height="5" style="stroke: #383838; stroke-width: 1.0;" width="10" x="272.5" y="328"/><rect fill="#F8F8F8" height="5" style="stroke: #383838; stroke-width: 1.0;" width="10" x="272.5" y="347.4844"/><text fill="#000000" font-family="Tahoma, sans-serif" font-size="12" lengthAdjust="spacingAndGlyphs" textLength="53" x="287.5" y="345.0059">ts-morph</text><!--entity tsconfig-paths--><rect fill="#F8F8F8" height="34.4844" rx="2" ry="2" style="stroke: #383838; stroke-width: 1.0;" width="104" x="369" y="323"/><rect fill="#F8F8F8" height="5" style="stroke: #383838; stroke-width: 1.0;" width="10" x="364" y="328"/><rect fill="#F8F8F8" height="5" style="stroke: #383838; stroke-width: 1.0;" width="10" x="364" y="347.4844"/><text fill="#000000" font-family="Tahoma, sans-serif" font-size="12" lengthAdjust="spacingAndGlyphs" textLength="84" x="379" y="345.0059">tsconfig-paths</text><!--entity yargs--><rect fill="#F8F8F8" height="34.4844" rx="2" ry="2" style="stroke: #383838; stroke-width: 1.0;" width="51" x="38.5" y="323"/><rect fill="#F8F8F8" height="5" style="stroke: #383838; stroke-width: 1.0;" width="10" x="33.5" y="328"/><rect fill="#F8F8F8" height="5" style="stroke: #383838; stroke-width: 1.0;" width="10" x="33.5" y="347.4844"/><text fill="#000000" font-family="Tahoma, sans-serif" font-size="12" lengthAdjust="spacingAndGlyphs" textLength="31" x="48.5" y="345.0059">yargs</text><ellipse cx="270.0061" cy="58.242" fill="#F8F8F8" rx="23.5061" ry="13.242" style="stroke: #383838; stroke-width: 0.5;"/><text fill="#000000" font-family="Tahoma, sans-serif" font-size="12" font-weight="bold" lengthAdjust="spacingAndGlyphs" textLength="29" x="255.5061" y="61.9842">arkit</text><ellipse cx="163.1446" cy="187.9157" fill="#F8F8F8" rx="14.1446" ry="11.9157" style="stroke: #383838; stroke-width: 0.5;"/><text fill="#000000" font-family="Tahoma, sans-serif" font-size="12" lengthAdjust="spacingAndGlyphs" textLength="13" x="156.6446" y="191.6579">cli</text><!--entity _config--><rect fill="#F8F8F8" height="34.4844" rx="2" ry="2" style="stroke: #000000; stroke-width: 0.5;" width="56" x="386" y="41"/><text fill="#000000" font-family="Tahoma, sans-serif" font-size="12" lengthAdjust="spacingAndGlyphs" textLength="36" x="396" y="63.0059">config</text><!--entity _converter--><rect fill="#F8F8F8" height="34.4844" rx="2" ry="2" style="stroke: #000000; stroke-width: 0.5;" width="74" x="620" y="41"/><text fill="#000000" font-family="Tahoma, sans-serif" font-size="12" lengthAdjust="spacingAndGlyphs" textLength="54" x="630" y="63.0059">converter</text><!--entity _generator--><rect fill="#F8F8F8" height="34.4844" rx="2" ry="2" style="stroke: #000000; stroke-width: 0.5;" width="75" x="460.5" y="41"/><text fill="#000000" font-family="Tahoma, sans-serif" font-size="12" lengthAdjust="spacingAndGlyphs" textLength="55" x="470.5" y="63.0059">generator</text><ellipse cx="740.2487" cy="58.242" fill="#F8F8F8" rx="27.7487" ry="13.242" style="stroke: #383838; stroke-width: 0.5;"/><text fill="#000000" font-family="Tahoma, sans-serif" font-size="12" font-weight="bold" lengthAdjust="spacingAndGlyphs" textLength="35" x="722.7487" y="61.9842">index</text><ellipse cx="694.9558" cy="188.242" fill="#F8F8F8" rx="28.4558" ry="13.242" style="stroke: #383838; stroke-width: 0.5;"/><text fill="#000000" font-family="Tahoma, sans-serif" font-size="12" lengthAdjust="spacingAndGlyphs" textLength="36" x="676.9558" y="191.9842">logger</text><!--entity _parser--><rect fill="#F8F8F8" height="34.4844" rx="2" ry="2" style="stroke: #000000; stroke-width: 0.5;" width="56" x="312" y="41"/><text fill="#000000" font-family="Tahoma, sans-serif" font-size="12" lengthAdjust="spacingAndGlyphs" textLength="36" x="322" y="63.0059">parser</text><!--entity _puml--><rect fill="#F8F8F8" height="34.4844" rx="2" ry="2" style="stroke: #000000; stroke-width: 0.5;" width="48" x="554" y="41"/><text fill="#000000" font-family="Tahoma, sans-serif" font-size="12" lengthAdjust="spacingAndGlyphs" textLength="28" x="564" y="63.0059">puml</text><!--entity _schema--><rect fill="#F8F8F8" height="34.4844" rx="2" ry="2" style="stroke: #000000; stroke-width: 0.5;" width="66" x="543" y="240"/><text fill="#000000" font-family="Tahoma, sans-serif" font-size="12" lengthAdjust="spacingAndGlyphs" textLength="46" x="553" y="262.0059">schema</text><!--entity _types--><rect fill="#F8F8F8" height="34.4844" rx="2" ry="2" style="stroke: #000000; stroke-width: 0.5;" width="51" x="506.5" y="171"/><text fill="#000000" font-family="Tahoma, sans-serif" font-size="12" lengthAdjust="spacingAndGlyphs" textLength="31" x="516.5" y="193.0059">types</text><ellipse cx="480.9706" cy="123.242" fill="#F8F8F8" rx="19.9706" ry="13.242" style="stroke: #383838; stroke-width: 0.5;"/><text fill="#000000" font-family="Tahoma, sans-serif" font-size="12" lengthAdjust="spacingAndGlyphs" textLength="24" x="468.9706" y="126.9842">utils</text><!--link <b>arkit</b> to cli--><path d="M251.874,66.521 C234.073,74.762 207.285,89.578 191,110 C176.658,127.986 169.263,153.975 165.76,170.679 " fill="none" id="&lt;b&gt;arkit&lt;/b&gt;-cli" style="stroke: #000000; stroke-width: 1.0;"/><polygon fill="#000000" points="164.717,175.963,170.3845,167.9082,165.6855,171.0577,162.536,166.3587,164.717,175.963" style="stroke: #000000; stroke-width: 1.0;"/><!--link <b>arkit</b> to _config--><path d="M280.394,45.912 C288.167,37.854 299.562,27.953 312,23.5 C335.432,15.11 344.388,15.629 368,23.5 C376.949,26.483 385.56,31.965 392.862,37.694 " fill="none" id="&lt;b&gt;arkit&lt;/b&gt;-_config" style="stroke: #000000; stroke-width: 1.0;"/><polygon fill="#000000" points="396.778,40.889,392.3338,32.0998,392.9041,37.7279,387.276,38.2981,396.778,40.889" style="stroke: #000000; stroke-width: 1.0;"/><!--link <b>arkit</b> to _converter--><path d="M280.394,45.912 C288.167,37.854 299.562,27.953 312,23.5 C372.672,1.776 540.067,5.683 602,23.5 C612.426,26.499 622.787,32.12 631.658,37.967 " fill="none" id="&lt;b&gt;arkit&lt;/b&gt;-_converter" style="stroke: #000000; stroke-width: 1.0;"/><polygon fill="#000000" points="635.887,40.845,630.696,32.4752,631.7531,38.0324,626.1959,39.0894,635.887,40.845" style="stroke: #000000; stroke-width: 1.0;"/><!--link <b>arkit</b> to _generator--><path d="M280.394,45.912 C288.167,37.854 299.562,27.953 312,23.5 C366.396,4.023 386.41,7.751 442,23.5 C452.575,26.496 463.114,32.116 472.149,37.963 " fill="none" id="&lt;b&gt;arkit&lt;/b&gt;-_generator" style="stroke: #000000; stroke-width: 1.0;"/><polygon fill="#000000" points="476.458,40.842,471.1963,32.5165,472.3004,38.0645,466.7523,39.1687,476.458,40.842" style="stroke: #000000; stroke-width: 1.0;"/><!--link <b>arkit</b> to _parser--><path d="M293.516,58 C297.866,58 302.216,58 306.567,58 " fill="none" id="&lt;b&gt;arkit&lt;/b&gt;-_parser" style="stroke: #000000; stroke-width: 1.0;"/><polygon fill="#000000" points="311.674,58,302.674,54,306.674,58,302.674,62,311.674,58" style="stroke: #000000; stroke-width: 1.0;"/><!--link <b>arkit</b> to progress--><path d="M250.408,65.387 C229.17,73.126 195.329,87.934 173,110 C151.075,131.666 147.565,141.119 140,171 C136.292,185.649 135.824,190.477 140,205 C146.942,229.145 186.883,287.244 209.098,318.4159 " fill="none" id="&lt;b&gt;arkit&lt;/b&gt;-progress" style="stroke: #000000; stroke-width: 1.0;"/><polygon fill="#000000" points="212.241,322.8123,210.2621,313.1643,209.3337,318.7445,203.7535,317.816,212.241,322.8123" style="stroke: #000000; stroke-width: 1.0;"/><!--link <b>arkit</b> to _puml--><path d="M280.394,45.912 C288.167,37.854 299.562,27.953 312,23.5 C358.864,6.72 489.136,6.72 536,23.5 C544.24,26.45 552.022,31.791 558.597,37.404 " fill="none" id="&lt;b&gt;arkit&lt;/b&gt;-_puml" style="stroke: #000000; stroke-width: 1.0;"/><polygon fill="#000000" points="562.528,40.914,558.4781,31.9363,558.7981,37.5841,553.1503,37.9041,562.528,40.914" style="stroke: #000000; stroke-width: 1.0;"/><!--link <b>arkit</b> to _types--><path d="M283.477,68.752 C305.549,84.415 351.144,115.497 393,136 C429.115,153.691 473.002,168.806 501.673,177.887 " fill="none" id="&lt;b&gt;arkit&lt;/b&gt;-_types" style="stroke: #000000; stroke-width: 1.0;"/><polygon fill="#000000" points="506.492,179.402,499.1064,172.8864,501.7223,177.9021,496.7066,180.5179,506.492,179.402" style="stroke: #000000; stroke-width: 1.0;"/><!--link <b>arkit</b> to utils--><path d="M286.177,67.615 C291.448,70.211 297.388,72.921 303,75 C356.627,94.868 422.245,109.923 456.895,117.187 " fill="none" id="&lt;b&gt;arkit&lt;/b&gt;-utils" style="stroke: #000000; stroke-width: 1.0;"/><polygon fill="#000000" points="462.184,118.286,454.1858,112.5389,457.2885,117.2689,452.5585,120.3716,462.184,118.286" style="stroke: #000000; stroke-width: 1.0;"/><!--link cli to yargs--><path d="M156.105,198.661 C144.189,215.435 119.092,251.112 99,282 C91.2434,293.9245 82.8959,307.4886 76.2991,318.3927 " fill="none" id="cli-yargs" style="stroke: #000000; stroke-width: 0.55;"/><polygon fill="#000000" points="73.5859,322.8905,81.6596,317.25,76.1685,318.6091,74.8094,313.1179,73.5859,322.8905" style="stroke: #000000; stroke-width: 0.55;"/><!--link _config to _types--><path d="M419.087,75.248 C424.945,91.96 435.88,118.018 452,136 C465.869,151.471 485.493,164.078 501.834,172.887 " fill="none" id="_config-_types" style="stroke: #000000; stroke-width: 0.55;"/><polygon fill="#000000" points="506.349,175.27,500.2576,167.5308,501.9274,172.9356,496.5226,174.6054,506.349,175.27" style="stroke: #000000; stroke-width: 0.55;"/><!--link _config to utils--><path d="M431.254,75.224 C442.071,85.395 455.868,98.369 466.187,108.072 " fill="none" id="_config-utils" style="stroke: #000000; stroke-width: 0.55;"/><polygon fill="#000000" points="470.098,111.749,466.2837,102.6688,466.4562,108.323,460.802,108.4956,470.098,111.749" style="stroke: #000000; stroke-width: 0.55;"/><!--link _converter to logger--><path d="M661.813,75.211 C669.047,99.579 682.657,145.422 689.999,170.156 " fill="none" id="_converter-logger" style="stroke: #000000; stroke-width: 0.55;"/><polygon fill="#000000" points="691.467,175.098,692.7402,165.3318,690.044,170.3048,685.0711,167.6085,691.467,175.098" style="stroke: #000000; stroke-width: 0.55;"/><!--link _converter to _types--><path d="M641.169,75.211 C618.251,98.679 575.885,142.062 551.21,167.328 " fill="none" id="_converter-_types" style="stroke: #000000; stroke-width: 0.55;"/><polygon fill="#000000" points="547.703,170.92,556.8533,167.277,551.1969,167.3433,551.1306,161.6868,547.703,170.92" style="stroke: #000000; stroke-width: 0.55;"/><!--link _converter to utils--><path d="M619.675,72.361 C584.191,85.062 532.032,103.733 502.843,114.181 " fill="none" id="_converter-utils" style="stroke: #000000; stroke-width: 0.55;"/><polygon fill="#000000" points="498.016,115.909,507.8376,116.6414,502.7234,114.2237,505.1411,109.1095,498.016,115.909" style="stroke: #000000; stroke-width: 0.55;"/><!--link _generator to _types--><path d="M502.306,75.211 C508.437,98.294 519.687,140.645 526.441,166.071 " fill="none" id="_generator-_types" style="stroke: #000000; stroke-width: 0.55;"/><polygon fill="#000000" points="527.729,170.92,529.2861,161.195,526.4462,166.0874,521.5538,163.2475,527.729,170.92" style="stroke: #000000; stroke-width: 0.55;"/><!--link _generator to utils--><path d="M493.622,75.224 C491.165,84.329 488.102,95.682 485.608,104.922 " fill="none" id="_generator-utils" style="stroke: #000000; stroke-width: 0.55;"/><polygon fill="#000000" points="484.289,109.811,490.496,102.1642,485.5919,104.9837,482.7724,100.0796,484.289,109.811" style="stroke: #000000; stroke-width: 0.55;"/><!--link logger to pino--><path d="M688.879,200.77 C675.667,226.18 644.328,286.446 627.735,318.3548 " fill="none" id="logger-pino" style="stroke: #000000; stroke-width: 0.55;"/><polygon fill="#000000" points="625.398,322.8494,633.0984,316.709,627.7043,318.4131,626.0003,313.019,625.398,322.8494" style="stroke: #000000; stroke-width: 0.55;"/><!--link _parser to progress--><path d="M343.417,75.244 C346.098,91.051 348.538,115.601 343,136 C332.393,175.069 266.884,275.317 237.84,318.5985 " fill="none" id="_parser-progress" style="stroke: #000000; stroke-width: 0.55;"/><polygon fill="#000000" points="234.981,322.8515,243.3219,317.6142,237.7706,318.702,236.6828,313.1508,234.981,322.8515" style="stroke: #000000; stroke-width: 0.55;"/><!--link _parser to resolve--><path d="M325.258,75.15 C316.479,84.994 305.278,97.957 296,110 C238.807,184.239 177.934,277.793 151.956,318.5079 " fill="none" id="_parser-resolve" style="stroke: #000000; stroke-width: 0.55;"/><polygon fill="#000000" points="149.257,322.7445,157.4661,317.3029,151.9434,318.5275,150.7188,313.0047,149.257,322.7445" style="stroke: #000000; stroke-width: 0.55;"/><!--link _parser to ts-morph--><path d="M325.191,75.1 C317.549,84.52 309.008,97.077 305,110 C282.169,183.616 299.044,276.945 308.607,318.0021 " fill="none" id="_parser-ts-morph" style="stroke: #000000; stroke-width: 0.55;"/><polygon fill="#000000" points="309.79,322.9776,311.5991,313.2963,308.6331,318.1133,303.8162,315.1473,309.79,322.9776" style="stroke: #000000; stroke-width: 0.55;"/><!--link _parser to tsconfig-paths--><path d="M339.11,75.11 C338.596,90.818 338.741,115.296 343,136 C357.307,205.545 392.686,282.46 410.457,318.3886 " fill="none" id="_parser-tsconfig-paths" style="stroke: #000000; stroke-width: 0.55;"/><polygon fill="#000000" points="412.741,322.9758,412.3104,313.1364,410.5125,318.4999,405.1489,316.702,412.741,322.9758" style="stroke: #000000; stroke-width: 0.55;"/><!--link _parser to _types--><path d="M356.263,75.073 C373.573,91.642 402.24,117.586 430,136 C452.855,151.16 480.841,164.846 501.714,174.215 " fill="none" id="_parser-_types" style="stroke: #000000; stroke-width: 0.55;"/><polygon fill="#000000" points="506.322,176.265,499.7254,168.9516,501.7538,174.2323,496.4731,176.2607,506.322,176.265" style="stroke: #000000; stroke-width: 0.55;"/><!--link _parser to utils--><path d="M368.195,71.598 C395.469,83.784 436.148,101.96 460.478,112.831 " fill="none" id="_parser-utils" style="stroke: #000000; stroke-width: 0.55;"/><polygon fill="#000000" points="465.118,114.904,458.5327,107.5805,460.553,112.8643,455.2692,114.8846,465.118,114.904" style="stroke: #000000; stroke-width: 0.55;"/><!--link _puml to _schema--><path d="M577.836,75.121 C577.477,110.563 576.617,195.247 576.214,234.876 " fill="none" id="_puml-_schema" style="stroke: #000000; stroke-width: 0.55;"/><polygon fill="#000000" points="576.163,239.932,580.2528,230.9724,576.213,234.9322,572.2532,230.8925,576.163,239.932" style="stroke: #000000; stroke-width: 0.55;"/><!--link _puml to _types--><path d="M572.174,75.211 C563.879,98.294 548.659,140.645 539.521,166.071 " fill="none" id="_puml-_types" style="stroke: #000000; stroke-width: 0.55;"/><polygon fill="#000000" points="537.779,170.92,544.5875,163.8035,539.4703,166.2147,537.0591,161.0975,537.779,170.92" style="stroke: #000000; stroke-width: 0.55;"/><!--link _puml to utils--><path d="M553.523,74.898 C536.535,85.931 514.286,100.381 498.934,110.352 " fill="none" id="_puml-utils" style="stroke: #000000; stroke-width: 0.55;"/><polygon fill="#000000" points="494.405,113.294,504.1316,111.747,498.5984,110.5708,499.7745,105.0376,494.405,113.294" style="stroke: #000000; stroke-width: 0.55;"/><!--link _types to _schema--><path d="M542.651,205.219 C548.65,214.354 556.2,225.85 562.598,235.592 " fill="none" id="_types-_schema" style="stroke: #000000; stroke-width: 0.55;"/><polygon fill="#000000" points="565.447,239.931,563.8514,230.2123,562.7029,235.7513,557.1639,234.6028,565.447,239.931" style="stroke: #000000; stroke-width: 0.55;"/><!--link utils to logger--><path d="M498.877,129.263 C536.117,140.226 622.247,165.582 666.946,178.741 " fill="none" id="utils-logger" style="stroke: #000000; stroke-width: 0.55;"/><polygon fill="#000000" points="671.924,180.207,664.4195,173.8287,667.1274,178.7953,662.1608,181.5032,671.924,180.207" style="stroke: #000000; stroke-width: 0.55;"/><!--link utils to nanomatch--><path d="M483.326,136.123 C486.422,152.002 492.187,180.683 498,205 C507.609,245.195 520.507,291.6975 527.97,318.0012 " fill="none" id="utils-nanomatch" style="stroke: #000000; stroke-width: 0.55;"/><polygon fill="#000000" points="529.388,322.9848,530.7726,313.2338,528.0198,318.1756,523.078,315.4228,529.388,322.9848" style="stroke: #000000; stroke-width: 0.55;"/><!--link utils to _types--><path d="M489.884,134.974 C496.938,143.688 506.997,156.115 515.516,166.638 " fill="none" id="utils-_types" style="stroke: #000000; stroke-width: 0.55;"/><polygon fill="#000000" points="518.816,170.714,516.2637,161.2016,515.6706,166.8273,510.0449,166.2342,518.816,170.714" style="stroke: #000000; stroke-width: 0.55;"/><script type="text/plantuml"><![CDATA[
@startuml

scale max 1920 width
top to bottom direction

skinparam monochrome true
skinparam shadowing false
skinparam nodesep 18
skinparam ranksep 35
skinparam defaultFontName Tahoma
skinparam defaultFontSize 12
skinparam roundCorner 4
skinparam dpi 150
skinparam arrowColor black
skinparam arrowThickness 0.55
skinparam packageTitleAlignment left

skinparam usecase {
  borderThickness 0.5
}

skinparam rectangle {
  borderThickness 0.5
}

skinparam component {
  borderThickness 1
}


(<b>arkit</b>)
(cli)
rectangle "config" as _config
rectangle "converter" as _converter
rectangle "generator" as _generator
(<b>index</b>)
(logger)
rectangle "parser" as _parser
rectangle "puml" as _puml
rectangle "schema" as _schema
rectangle "types" as _types
(utils)

package "Dependencies" {
  [nanomatch]
  [pino]
  [progress]
  [resolve]
  [ts-morph]
  [tsconfig-paths]
  [yargs]
}

(<b>arkit</b>) -[thickness=1]> (cli)
(<b>arkit</b>) -[thickness=1]> _config
(<b>arkit</b>) -[thickness=1]> _converter
(<b>arkit</b>) -[thickness=1]> _generator
(<b>arkit</b>) -[thickness=1]> _parser
(<b>arkit</b>) ---[thickness=1]> [progress]
(<b>arkit</b>) -[thickness=1]> _puml
(<b>arkit</b>) -[thickness=1]> _types
(<b>arkit</b>) -[thickness=1]> (utils)
(cli) ---> [yargs]
_config --> _types
_config --> (utils)
_converter --> (logger)
_converter --> _types
_converter --> (utils)
_generator --> _types
_generator --> (utils)
(logger) ---> [pino]
_parser ---> [progress]
_parser ---> [resolve]
_parser ---> [ts-morph]
_parser ---> [tsconfig-paths]
_parser --> _types
_parser --> (utils)
_puml --> _schema
_puml --> _types
_puml --> (utils)
_types --> _schema
(utils) --> (logger)
(utils) ---> [nanomatch]
(utils) --> _types

@enduml


' View and edit on https://arkit.herokuapp.com
]]></script></g></svg>