<?xml version="1.0" encoding="UTF-8" standalone="no"?><svg xmlns="http://www.w3.org/2000/svg" xmlns:xlink="http://www.w3.org/1999/xlink" contentScriptType="application/ecmascript" contentStyleType="text/css" height="417px" preserveAspectRatio="none" style="width:693px;height:417px;" version="1.1" viewBox="0 0 693 417" width="693px" zoomAndPan="magnify"><defs/><g><!--cluster Dependencies--><path d="M24,322 L120,322 A3,3 0 0 1 122,324 L129,342.4844 L647,342.4844 A2,2 0 0 1 649,344.4844 L649,403 A2,2 0 0 1 647,405 L24,405 A2,2 0 0 1 22,403 L22,324 A2,2 0 0 1 24,322 " fill="#FFFFFF" style="stroke: #000000; stroke-width: 1.5;"/><line style="stroke: #000000; stroke-width: 1.5;" x1="22" x2="129" y1="342.4844" y2="342.4844"/><text fill="#000000" font-family="Tahoma, sans-serif" font-size="12" font-weight="bold" lengthAdjust="spacingAndGlyphs" textLength="94" x="26" y="336.0059">Dependencies</text><!--entity nanomatch--><rect fill="#F8F8F8" height="34.4844" rx="2" ry="2" style="stroke: #383838; stroke-width: 1.0;" width="85" x="391.5" y="355"/><rect fill="#F8F8F8" height="5" style="stroke: #383838; stroke-width: 1.0;" width="10" x="386.5" y="360"/><rect fill="#F8F8F8" height="5" style="stroke: #383838; stroke-width: 1.0;" width="10" x="386.5" y="379.4844"/><text fill="#000000" font-family="Tahoma, sans-serif" font-size="12" lengthAdjust="spacingAndGlyphs" textLength="65" x="401.5" y="377.0059">nanomatch</text><!--entity pino--><rect fill="#F8F8F8" height="34.4844" rx="2" ry="2" style="stroke: #383838; stroke-width: 1.0;" width="45" x="329.5" y="355"/><rect fill="#F8F8F8" height="5" style="stroke: #383838; stroke-width: 1.0;" width="10" x="324.5" y="360"/><rect fill="#F8F8F8" height="5" style="stroke: #383838; stroke-width: 1.0;" width="10" x="324.5" y="379.4844"/><text fill="#000000" font-family="Tahoma, sans-serif" font-size="12" lengthAdjust="spacingAndGlyphs" textLength="25" x="339.5" y="377.0059">pino</text><!--entity progress--><rect fill="#F8F8F8" height="34.4844" rx="2" ry="2" style="stroke: #383838; stroke-width: 1.0;" width="71" x="493.5" y="355"/><rect fill="#F8F8F8" height="5" style="stroke: #383838; stroke-width: 1.0;" width="10" x="488.5" y="360"/><rect fill="#F8F8F8" height="5" style="stroke: #383838; stroke-width: 1.0;" width="10" x="488.5" y="379.4844"/><text fill="#000000" font-family="Tahoma, sans-serif" font-size="12" lengthAdjust="spacingAndGlyphs" textLength="51" x="503.5" y="377.0059">progress</text><!--entity resolve--><rect fill="#F8F8F8" height="34.4844" rx="2" ry="2" style="stroke: #383838; stroke-width: 1.0;" width="62" x="38" y="355"/><rect fill="#F8F8F8" height="5" style="stroke: #383838; stroke-width: 1.0;" width="10" x="33" y="360"/><rect fill="#F8F8F8" height="5" style="stroke: #383838; stroke-width: 1.0;" width="10" x="33" y="379.4844"/><text fill="#000000" font-family="Tahoma, sans-serif" font-size="12" lengthAdjust="spacingAndGlyphs" textLength="42" x="48" y="377.0059">resolve</text><!--entity ts-morph--><rect fill="#F8F8F8" height="34.4844" rx="2" ry="2" style="stroke: #383838; stroke-width: 1.0;" width="73" x="117.5" y="355"/><rect fill="#F8F8F8" height="5" style="stroke: #383838; stroke-width: 1.0;" width="10" x="112.5" y="360"/><rect fill="#F8F8F8" height="5" style="stroke: #383838; stroke-width: 1.0;" width="10" x="112.5" y="379.4844"/><text fill="#000000" font-family="Tahoma, sans-serif" font-size="12" lengthAdjust="spacingAndGlyphs" textLength="53" x="127.5" y="377.0059">ts-morph</text><!--entity tsconfig-paths--><rect fill="#F8F8F8" height="34.4844" rx="2" ry="2" style="stroke: #383838; stroke-width: 1.0;" width="104" x="208" y="355"/><rect fill="#F8F8F8" height="5" style="stroke: #383838; stroke-width: 1.0;" width="10" x="203" y="360"/><rect fill="#F8F8F8" height="5" style="stroke: #383838; stroke-width: 1.0;" width="10" x="203" y="379.4844"/><text fill="#000000" font-family="Tahoma, sans-serif" font-size="12" lengthAdjust="spacingAndGlyphs" textLength="84" x="218" y="377.0059">tsconfig-paths</text><!--entity yargs--><rect fill="#F8F8F8" height="34.4844" rx="2" ry="2" style="stroke: #383838; stroke-width: 1.0;" width="51" x="581.5" y="355"/><rect fill="#F8F8F8" height="5" style="stroke: #383838; stroke-width: 1.0;" width="10" x="576.5" y="360"/><rect fill="#F8F8F8" height="5" style="stroke: #383838; stroke-width: 1.0;" width="10" x="576.5" y="379.4844"/><text fill="#000000" font-family="Tahoma, sans-serif" font-size="12" lengthAdjust="spacingAndGlyphs" textLength="31" x="591.5" y="377.0059">yargs</text><ellipse cx="426.0061" cy="25.242" fill="#F8F8F8" rx="23.5061" ry="13.242" style="stroke: #383838; stroke-width: 0.5;"/><text fill="#000000" font-family="Tahoma, sans-serif" font-size="12" font-weight="bold" lengthAdjust="spacingAndGlyphs" textLength="29" x="411.5061" y="28.9842">arkit</text><!--entity _config--><rect fill="#F8F8F8" height="34.4844" rx="2" ry="2" style="stroke: #000000; stroke-width: 0.5;" width="56" x="371" y="76"/><text fill="#000000" font-family="Tahoma, sans-serif" font-size="12" lengthAdjust="spacingAndGlyphs" textLength="36" x="381" y="98.0059">config</text><!--entity _generator--><rect fill="#F8F8F8" height="34.4844" rx="2" ry="2" style="stroke: #000000; stroke-width: 0.5;" width="75" x="494.5" y="8"/><text fill="#000000" font-family="Tahoma, sans-serif" font-size="12" lengthAdjust="spacingAndGlyphs" textLength="55" x="504.5" y="30.0059">generator</text><!--entity _generator_base--><rect fill="#F8F8F8" height="34.4844" rx="2" ry="2" style="stroke: #000000; stroke-width: 0.5;" width="106" x="479" y="76"/><text fill="#000000" font-family="Tahoma, sans-serif" font-size="12" lengthAdjust="spacingAndGlyphs" textLength="86" x="489" y="98.0059">generator.base</text><ellipse cx="614.2487" cy="25.242" fill="#F8F8F8" rx="27.7487" ry="13.242" style="stroke: #383838; stroke-width: 0.5;"/><text fill="#000000" font-family="Tahoma, sans-serif" font-size="12" font-weight="bold" lengthAdjust="spacingAndGlyphs" textLength="35" x="596.7487" y="28.9842">index</text><ellipse cx="346.9558" cy="221.242" fill="#F8F8F8" rx="28.4558" ry="13.242" style="stroke: #383838; stroke-width: 0.5;"/><text fill="#000000" font-family="Tahoma, sans-serif" font-size="12" lengthAdjust="spacingAndGlyphs" textLength="36" x="328.9558" y="224.9842">logger</text><!--entity _parser--><rect fill="#F8F8F8" height="34.4844" rx="2" ry="2" style="stroke: #000000; stroke-width: 0.5;" width="56" x="228" y="76"/><text fill="#000000" font-family="Tahoma, sans-serif" font-size="12" lengthAdjust="spacingAndGlyphs" textLength="36" x="238" y="98.0059">parser</text><!--entity _schema--><rect fill="#F8F8F8" height="34.4844" rx="2" ry="2" style="stroke: #000000; stroke-width: 0.5;" width="66" x="428" y="272"/><text fill="#000000" font-family="Tahoma, sans-serif" font-size="12" lengthAdjust="spacingAndGlyphs" textLength="46" x="438" y="294.0059">schema</text><!--entity _types--><rect fill="#F8F8F8" height="34.4844" rx="2" ry="2" style="stroke: #000000; stroke-width: 0.5;" width="51" x="428.5" y="204"/><text fill="#000000" font-family="Tahoma, sans-serif" font-size="12" lengthAdjust="spacingAndGlyphs" textLength="31" x="438.5" y="226.0059">types</text><ellipse cx="371.9706" cy="157.242" fill="#F8F8F8" rx="19.9706" ry="13.242" style="stroke: #383838; stroke-width: 0.5;"/><text fill="#000000" font-family="Tahoma, sans-serif" font-size="12" lengthAdjust="spacingAndGlyphs" textLength="24" x="359.9706" y="160.9842">utils</text><!--link <b>arkit</b> to _config--><path d="M421.173,37.799 C417.437,46.931 412.165,59.819 407.699,70.736 " fill="none" id="&lt;b&gt;arkit&lt;/b&gt;-_config" style="stroke: #000000; stroke-width: 1.0;"/><polygon fill="#000000" points="405.712,75.593,412.8236,68.7794,407.6063,70.9657,405.42,65.7485,405.712,75.593" style="stroke: #000000; stroke-width: 1.0;"/><!--link <b>arkit</b> to _generator--><path d="M449.602,25 C462.767,25 475.933,25 489.098,25 " fill="none" id="&lt;b&gt;arkit&lt;/b&gt;-_generator" style="stroke: #000000; stroke-width: 1.0;"/><polygon fill="#000000" points="494.341,25,485.341,21,489.341,25,485.341,29,494.341,25" style="stroke: #000000; stroke-width: 1.0;"/><!--link <b>arkit</b> to _parser--><path d="M407.623,33.107 C382.597,42.79 336.399,60.677 297,76 C294.419,77.004 291.746,78.044 289.06,79.091 " fill="none" id="&lt;b&gt;arkit&lt;/b&gt;-_parser" style="stroke: #000000; stroke-width: 1.0;"/><polygon fill="#000000" points="284.228,80.975,294.0662,81.4336,288.8867,79.1593,291.161,73.9797,284.228,80.975" style="stroke: #000000; stroke-width: 1.0;"/><!--link <b>arkit</b> to _types--><path d="M428.38,38.302 C430.296,48.406 432.989,63.102 435,76 C441.773,119.447 448.134,170.517 451.503,198.668 " fill="none" id="&lt;b&gt;arkit&lt;/b&gt;-_types" style="stroke: #000000; stroke-width: 1.0;"/><polygon fill="#000000" points="452.136,203.983,455.0435,194.5731,451.5447,199.0181,447.0997,195.5192,452.136,203.983" style="stroke: #000000; stroke-width: 1.0;"/><!--link <b>arkit</b> to utils--><path d="M404.354,30.663 C381.798,36.803 347.611,50.014 332,76 C324.218,88.953 326.707,95.846 332,110 C336.866,123.01 347.256,134.771 356.228,143.144 " fill="none" id="&lt;b&gt;arkit&lt;/b&gt;-utils" style="stroke: #000000; stroke-width: 1.0;"/><polygon fill="#000000" points="359.966,146.519,355.9652,137.5194,356.2544,143.1688,350.6049,143.458,359.966,146.519" style="stroke: #000000; stroke-width: 1.0;"/><!--link <b>arkit</b> to yargs--><path d="M446.514,31.505 C490.197,43.31 588.865,70.438 594,76 C618.656,102.709 611,119.651 611,156 C611,156 611,156 611,222 C611,267.555 609.108,320.917 607.927,349.8061 " fill="none" id="&lt;b&gt;arkit&lt;/b&gt;-yargs" style="stroke: #000000; stroke-width: 1.0;"/><polygon fill="#000000" points="607.715,354.9081,612.0849,346.0818,607.9224,349.9124,604.0918,345.7499,607.715,354.9081" style="stroke: #000000; stroke-width: 1.0;"/><!--link _config to _types--><path d="M406.078,110.214 C415.978,132.896 433.97,174.113 444.869,199.081 " fill="none" id="_config-_types" style="stroke: #000000; stroke-width: 0.55;"/><polygon fill="#000000" points="446.949,203.848,447.0127,193.9993,444.9479,199.2659,439.6813,197.2011,446.949,203.848" style="stroke: #000000; stroke-width: 0.55;"/><!--link _config to utils--><path d="M391.906,110.29 C388.004,119.25 383.172,130.345 379.246,139.361 " fill="none" id="_config-utils" style="stroke: #000000; stroke-width: 0.55;"/><polygon fill="#000000" points="377.17,144.128,384.4317,137.4746,379.167,139.5441,377.0974,134.2794,377.17,144.128" style="stroke: #000000; stroke-width: 0.55;"/><!--link _generator to _generator_base--><path d="M532,42.315 C532,50.867 532,61.447 532,70.644 " fill="none" id="_generator-_generator_base" style="stroke: #000000; stroke-width: 0.55;"/><polygon fill="#000000" points="532,75.873,536,66.873,532,70.873,528,66.873,532,75.873" style="stroke: #000000; stroke-width: 0.55;"/><!--link _generator to progress--><path d="M569.599,39.732 C613.739,58.566 681,96.953 681,156 C681,156 681,156 681,222 C681,285.055 616.5,268.353 573,314 C562.189,325.3451 551.415,339.2472 543.234,350.4817 " fill="none" id="_generator-progress" style="stroke: #000000; stroke-width: 0.55;"/><polygon fill="#000000" points="540.12,354.8024,548.628,349.8412,543.0441,350.7466,542.1387,345.1626,540.12,354.8024" style="stroke: #000000; stroke-width: 0.55;"/><!--link _generator to _types--><path d="M562.114,42.179 C574.389,50.509 587.259,61.903 594,76 C600.519,89.633 600.606,96.409 594,110 C571.333,156.636 518.259,189.385 484.36,206.423 " fill="none" id="_generator-_types" style="stroke: #000000; stroke-width: 0.55;"/><polygon fill="#000000" points="479.503,208.822,489.3438,208.4226,483.9859,206.6077,485.8008,201.2499,479.503,208.822" style="stroke: #000000; stroke-width: 0.55;"/><!--link _generator to utils--><path d="M494.134,34.613 C446.544,45.815 370.063,65.224 362,76 C348.203,94.439 356.271,122.222 363.798,139.721 " fill="none" id="_generator-utils" style="stroke: #000000; stroke-width: 0.55;"/><polygon fill="#000000" points="365.888,144.368,365.8434,134.5192,363.8367,139.8082,358.5477,137.8014,365.888,144.368" style="stroke: #000000; stroke-width: 0.55;"/><!--link _generator_base to _types--><path d="M521.963,110.214 C507.863,132.99 482.194,174.456 466.757,199.392 " fill="none" id="_generator_base-_types" style="stroke: #000000; stroke-width: 0.55;"/><polygon fill="#000000" points="463.999,203.848,472.1382,198.3024,466.6315,199.5971,465.3368,194.0904,463.999,203.848" style="stroke: #000000; stroke-width: 0.55;"/><!--link _generator_base to utils--><path d="M490.38,110.128 C459.303,122.17 418.101,138.136 393.402,147.707 " fill="none" id="_generator_base-utils" style="stroke: #000000; stroke-width: 0.55;"/><polygon fill="#000000" points="388.69,149.533,398.5273,150.0104,393.3521,147.7261,395.6363,142.551,388.69,149.533" style="stroke: #000000; stroke-width: 0.55;"/><!--link logger to pino--><path d="M347.409,234.193 C348.256,259.423 350.21,317.645 351.275,349.3951 " fill="none" id="logger-pino" style="stroke: #000000; stroke-width: 0.55;"/><polygon fill="#000000" points="351.451,354.6282,355.1469,345.4991,351.2833,349.631,347.1514,345.7674,351.451,354.6282" style="stroke: #000000; stroke-width: 0.55;"/><!--link _parser to progress--><path d="M260.628,110.177 C270.344,143.345 293.343,217.648 310,238 C346.164,282.186 365.155,287.001 419,306 C446.864,315.832 459.314,299.395 485,314 C499.615,322.3101 511.017,337.6194 518.549,350.2809 " fill="none" id="_parser-progress" style="stroke: #000000; stroke-width: 0.55;"/><polygon fill="#000000" points="521.148,354.808,520.136,345.0113,518.6586,350.4718,513.1981,348.9944,521.148,354.808" style="stroke: #000000; stroke-width: 0.55;"/><!--link _parser to resolve--><path d="M245.138,110.09 C212.991,157.709 118.353,297.894 82.752,350.6294 " fill="none" id="_parser-resolve" style="stroke: #000000; stroke-width: 0.55;"/><polygon fill="#000000" points="79.8922,354.8656,88.2432,349.6444,82.6899,350.7216,81.6127,345.1682,79.8922,354.8656" style="stroke: #000000; stroke-width: 0.55;"/><!--link _parser to ts-morph--><path d="M250.075,110.09 C232.611,157.518 181.334,296.769 161.737,349.9898 " fill="none" id="_parser-ts-morph" style="stroke: #000000; stroke-width: 0.55;"/><polygon fill="#000000" points="159.941,354.8656,166.8048,347.8024,161.6689,350.1737,159.2977,345.0378,159.941,354.8656" style="stroke: #000000; stroke-width: 0.55;"/><!--link _parser to tsconfig-paths--><path d="M256.232,110.09 C256.916,157.422 258.92,296.208 259.692,349.6668 " fill="none" id="_parser-tsconfig-paths" style="stroke: #000000; stroke-width: 0.55;"/><polygon fill="#000000" points="259.767,354.8656,263.6365,345.8087,259.6947,349.8661,255.6373,345.9244,259.767,354.8656" style="stroke: #000000; stroke-width: 0.55;"/><!--link _parser to _types--><path d="M271.516,110.117 C288.081,126.678 315.657,152.45 343,170 C368.573,186.414 400.432,200.162 423.451,209.061 " fill="none" id="_parser-_types" style="stroke: #000000; stroke-width: 0.55;"/><polygon fill="#000000" points="428.223,210.886,421.2445,203.9361,423.5526,209.1007,418.388,211.4087,428.223,210.886" style="stroke: #000000; stroke-width: 0.55;"/><!--link _parser to utils--><path d="M284.08,109.008 C305.344,120.374 333.996,135.688 352.727,145.699 " fill="none" id="_parser-utils" style="stroke: #000000; stroke-width: 0.55;"/><polygon fill="#000000" points="357.264,148.124,351.2122,140.3538,352.8544,145.7671,347.4411,147.4092,357.264,148.124" style="stroke: #000000; stroke-width: 0.55;"/><!--link _types to _schema--><path d="M455.73,238.315 C456.637,246.867 457.76,257.447 458.735,266.644 " fill="none" id="_types-_schema" style="stroke: #000000; stroke-width: 0.55;"/><polygon fill="#000000" points="459.29,271.873,462.316,262.5005,458.7614,266.901,454.3609,263.3463,459.29,271.873" style="stroke: #000000; stroke-width: 0.55;"/><!--link utils to logger--><path d="M367.298,169.662 C363.471,179.152 358.02,192.67 353.731,203.307 " fill="none" id="utils-logger" style="stroke: #000000; stroke-width: 0.55;"/><polygon fill="#000000" points="351.852,207.968,358.9277,201.1171,353.722,203.3309,351.5083,198.1251,351.852,207.968" style="stroke: #000000; stroke-width: 0.55;"/><!--link utils to nanomatch--><path d="M375.511,170.062 C385.649,204.89 415.059,305.927 427.891,350.0134 " fill="none" id="utils-nanomatch" style="stroke: #000000; stroke-width: 0.55;"/><polygon fill="#000000" points="429.299,354.8498,430.6246,345.0906,427.9018,350.049,422.9433,347.3262,429.299,354.8498" style="stroke: #000000; stroke-width: 0.55;"/><!--link utils to _types--><path d="M384.454,167.416 C396.167,176.272 414.049,189.793 428.748,200.907 " fill="none" id="utils-_types" style="stroke: #000000; stroke-width: 0.55;"/><polygon fill="#000000" points="432.801,203.972,428.0325,195.3545,428.812,200.9574,423.2091,201.7369,432.801,203.972" style="stroke: #000000; stroke-width: 0.55;"/><script type="text/plantuml"><![CDATA[
@startuml

scale max 1920 width
top to bottom direction

skinparam monochrome true
skinparam shadowing false
skinparam nodesep 17
skinparam ranksep 34
skinparam defaultFontName Tahoma
skinparam defaultFontSize 12
skinparam roundCorner 4
skinparam dpi 150
skinparam arrowColor black
skinparam arrowThickness 0.55
skinparam packageTitleAlignment left

skinparam usecase {
  borderThickness 0.5
}

skinparam rectangle {
  borderThickness 0.5
}

skinparam component {
  borderThickness 1
}


(<b>arkit</b>)
rectangle "config" as _config
rectangle "generator" as _generator
rectangle "generator.base" as _generator_base
(<b>index</b>)
(logger)
rectangle "parser" as _parser
rectangle "schema" as _schema
rectangle "types" as _types
(utils)

package "Dependencies" {
  [nanomatch]
  [pino]
  [progress]
  [resolve]
  [ts-morph]
  [tsconfig-paths]
  [yargs]
}

(<b>arkit</b>) -[thickness=1]> _config
(<b>arkit</b>) -[thickness=1]> _generator
(<b>arkit</b>) -[thickness=1]> _parser
(<b>arkit</b>) -[thickness=1]> _types
(<b>arkit</b>) -[thickness=1]> (utils)
(<b>arkit</b>) ---[thickness=1]> [yargs]
_config --> _types
_config --> (utils)
_generator --> _generator_base
_generator ---> [progress]
_generator --> _types
_generator --> (utils)
_generator_base --> _types
_generator_base --> (utils)
(logger) ---> [pino]
_parser ---> [progress]
_parser ---> [resolve]
_parser ---> [ts-morph]
_parser ---> [tsconfig-paths]
_parser --> _types
_parser --> (utils)
_types --> _schema
(utils) --> (logger)
(utils) ---> [nanomatch]
(utils) --> _types

@enduml


' View and edit on https://arkit.herokuapp.com
]]></script></g></svg>