<?xml version="1.0" encoding="UTF-8" standalone="no"?><svg xmlns="http://www.w3.org/2000/svg" xmlns:xlink="http://www.w3.org/1999/xlink" contentScriptType="application/ecmascript" contentStyleType="text/css" height="394px" preserveAspectRatio="none" style="width:647px;height:394px;" version="1.1" viewBox="0 0 647 394" width="647px" zoomAndPan="magnify"><defs/><g><!--cluster Dependencies--><path d="M16,315 L102,315 A3,3 0 0 1 104,317 L111,335.4844 L593,335.4844 A2,2 0 0 1 595,337.4844 L595,380 A2,2 0 0 1 593,382 L16,382 A2,2 0 0 1 14,380 L14,317 A2,2 0 0 1 16,315 " fill="#FFFFFF" style="stroke: #000000; stroke-width: 1.5;"/><line style="stroke: #000000; stroke-width: 1.5;" x1="14" x2="111" y1="335.4844" y2="335.4844"/><text fill="#000000" font-family="Tahoma, sans-serif" font-size="12" font-weight="bold" lengthAdjust="spacingAndGlyphs" textLength="84" x="18" y="329.0059">Dependencies</text><!--entity nanomatch--><rect fill="#F8F8F8" height="34.4844" rx="2" ry="2" style="stroke: #383838; stroke-width: 1.0;" width="81" x="357.5" y="340"/><rect fill="#F8F8F8" height="5" style="stroke: #383838; stroke-width: 1.0;" width="10" x="352.5" y="345"/><rect fill="#F8F8F8" height="5" style="stroke: #383838; stroke-width: 1.0;" width="10" x="352.5" y="364.4844"/><text fill="#000000" font-family="Tahoma, sans-serif" font-size="12" lengthAdjust="spacingAndGlyphs" textLength="61" x="367.5" y="362.0059">nanomatch</text><!--entity pino--><rect fill="#F8F8F8" height="34.4844" rx="2" ry="2" style="stroke: #383838; stroke-width: 1.0;" width="43" x="297.5" y="340"/><rect fill="#F8F8F8" height="5" style="stroke: #383838; stroke-width: 1.0;" width="10" x="292.5" y="345"/><rect fill="#F8F8F8" height="5" style="stroke: #383838; stroke-width: 1.0;" width="10" x="292.5" y="364.4844"/><text fill="#000000" font-family="Tahoma, sans-serif" font-size="12" lengthAdjust="spacingAndGlyphs" textLength="23" x="307.5" y="362.0059">pino</text><!--entity progress--><rect fill="#F8F8F8" height="34.4844" rx="2" ry="2" style="stroke: #383838; stroke-width: 1.0;" width="66" x="456" y="340"/><rect fill="#F8F8F8" height="5" style="stroke: #383838; stroke-width: 1.0;" width="10" x="451" y="345"/><rect fill="#F8F8F8" height="5" style="stroke: #383838; stroke-width: 1.0;" width="10" x="451" y="364.4844"/><text fill="#000000" font-family="Tahoma, sans-serif" font-size="12" lengthAdjust="spacingAndGlyphs" textLength="46" x="466" y="362.0059">progress</text><!--entity resolve--><rect fill="#F8F8F8" height="34.4844" rx="2" ry="2" style="stroke: #383838; stroke-width: 1.0;" width="58" x="22" y="340"/><rect fill="#F8F8F8" height="5" style="stroke: #383838; stroke-width: 1.0;" width="10" x="17" y="345"/><rect fill="#F8F8F8" height="5" style="stroke: #383838; stroke-width: 1.0;" width="10" x="17" y="364.4844"/><text fill="#000000" font-family="Tahoma, sans-serif" font-size="12" lengthAdjust="spacingAndGlyphs" textLength="38" x="32" y="362.0059">resolve</text><!--entity ts-morph--><rect fill="#F8F8F8" height="34.4844" rx="2" ry="2" style="stroke: #383838; stroke-width: 1.0;" width="69" x="97.5" y="340"/><rect fill="#F8F8F8" height="5" style="stroke: #383838; stroke-width: 1.0;" width="10" x="92.5" y="345"/><rect fill="#F8F8F8" height="5" style="stroke: #383838; stroke-width: 1.0;" width="10" x="92.5" y="364.4844"/><text fill="#000000" font-family="Tahoma, sans-serif" font-size="12" lengthAdjust="spacingAndGlyphs" textLength="49" x="107.5" y="362.0059">ts-morph</text><!--entity tsconfig-paths--><rect fill="#F8F8F8" height="34.4844" rx="2" ry="2" style="stroke: #383838; stroke-width: 1.0;" width="97" x="183.5" y="340"/><rect fill="#F8F8F8" height="5" style="stroke: #383838; stroke-width: 1.0;" width="10" x="178.5" y="345"/><rect fill="#F8F8F8" height="5" style="stroke: #383838; stroke-width: 1.0;" width="10" x="178.5" y="364.4844"/><text fill="#000000" font-family="Tahoma, sans-serif" font-size="12" lengthAdjust="spacingAndGlyphs" textLength="77" x="193.5" y="362.0059">tsconfig-paths</text><!--entity yargs--><rect fill="#F8F8F8" height="34.4844" rx="2" ry="2" style="stroke: #383838; stroke-width: 1.0;" width="48" x="539" y="340"/><rect fill="#F8F8F8" height="5" style="stroke: #383838; stroke-width: 1.0;" width="10" x="534" y="345"/><rect fill="#F8F8F8" height="5" style="stroke: #383838; stroke-width: 1.0;" width="10" x="534" y="364.4844"/><text fill="#000000" font-family="Tahoma, sans-serif" font-size="12" lengthAdjust="spacingAndGlyphs" textLength="28" x="549" y="362.0059">yargs</text><ellipse cx="382.799" cy="25.242" fill="#F8F8F8" rx="22.799" ry="13.242" style="stroke: #383838; stroke-width: 0.5;"/><text fill="#000000" font-family="Tahoma, sans-serif" font-size="12" font-weight="bold" lengthAdjust="spacingAndGlyphs" textLength="28" x="368.799" y="28.9842">arkit</text><!--entity _config--><rect fill="#F8F8F8" height="34.4844" rx="2" ry="2" style="stroke: #000000; stroke-width: 0.5;" width="53" x="329.5" y="76"/><text fill="#000000" font-family="Tahoma, sans-serif" font-size="12" lengthAdjust="spacingAndGlyphs" textLength="33" x="339.5" y="98.0059">config</text><!--entity _generator--><rect fill="#F8F8F8" height="34.4844" rx="2" ry="2" style="stroke: #000000; stroke-width: 0.5;" width="74" x="450" y="8"/><text fill="#000000" font-family="Tahoma, sans-serif" font-size="12" lengthAdjust="spacingAndGlyphs" textLength="54" x="460" y="30.0059">generator</text><!--entity _generator_base--><rect fill="#F8F8F8" height="34.4844" rx="2" ry="2" style="stroke: #000000; stroke-width: 0.5;" width="103" x="435.5" y="76"/><text fill="#000000" font-family="Tahoma, sans-serif" font-size="12" lengthAdjust="spacingAndGlyphs" textLength="83" x="445.5" y="98.0059">generator.base</text><ellipse cx="567.8345" cy="25.242" fill="#F8F8F8" rx="26.3345" ry="13.242" style="stroke: #383838; stroke-width: 0.5;"/><text fill="#000000" font-family="Tahoma, sans-serif" font-size="12" font-weight="bold" lengthAdjust="spacingAndGlyphs" textLength="33" x="551.3345" y="28.9842">index</text><ellipse cx="313.0416" cy="221.242" fill="#F8F8F8" rx="27.0416" ry="13.242" style="stroke: #383838; stroke-width: 0.5;"/><text fill="#000000" font-family="Tahoma, sans-serif" font-size="12" lengthAdjust="spacingAndGlyphs" textLength="34" x="296.0416" y="224.9842">logger</text><!--entity _parser--><rect fill="#F8F8F8" height="34.4844" rx="2" ry="2" style="stroke: #000000; stroke-width: 0.5;" width="53" x="188.5" y="76"/><text fill="#000000" font-family="Tahoma, sans-serif" font-size="12" lengthAdjust="spacingAndGlyphs" textLength="33" x="198.5" y="98.0059">parser</text><!--entity _schema--><rect fill="#F8F8F8" height="34.4844" rx="2" ry="2" style="stroke: #000000; stroke-width: 0.5;" width="61" x="392.5" y="272"/><text fill="#000000" font-family="Tahoma, sans-serif" font-size="12" lengthAdjust="spacingAndGlyphs" textLength="41" x="402.5" y="294.0059">schema</text><!--entity _types--><rect fill="#F8F8F8" height="34.4844" rx="2" ry="2" style="stroke: #000000; stroke-width: 0.5;" width="50" x="392" y="204"/><text fill="#000000" font-family="Tahoma, sans-serif" font-size="12" lengthAdjust="spacingAndGlyphs" textLength="30" x="402" y="226.0059">types</text><ellipse cx="329.8492" cy="157.242" fill="#F8F8F8" rx="17.8492" ry="13.242" style="stroke: #383838; stroke-width: 0.5;"/><text fill="#000000" font-family="Tahoma, sans-serif" font-size="12" lengthAdjust="spacingAndGlyphs" textLength="21" x="319.3492" y="160.9842">utils</text><!--link <b>arkit</b> to _config--><path d="M377.9215,37.7903 C374.2123,47.1319 369.091,60.0301 364.7311,71.0106 " fill="none" id="&lt;b&gt;arkit&lt;/b&gt;-_config" style="stroke: #000000; stroke-width: 1.0;"/><polygon fill="#000000" points="362.7893,75.9011,369.8282,69.0124,364.6344,71.254,362.3928,66.0602,362.7893,75.9011" style="stroke: #000000; stroke-width: 1.0;"/><!--link <b>arkit</b> to _generator--><path d="M406.1563,25 C418.9805,25 431.8048,25 444.6291,25 " fill="none" id="&lt;b&gt;arkit&lt;/b&gt;-_generator" style="stroke: #000000; stroke-width: 1.0;"/><polygon fill="#000000" points="449.7361,25,440.7361,21,444.7361,25,440.7361,29,449.7361,25" style="stroke: #000000; stroke-width: 1.0;"/><!--link <b>arkit</b> to _parser--><path d="M363.8618,32.4688 C338.79,42.289 293.4892,60.1557 255,76 C252.161,77.1687 249.2141,78.3953 246.2651,79.6319 " fill="none" id="&lt;b&gt;arkit&lt;/b&gt;-_parser" style="stroke: #000000; stroke-width: 1.0;"/><polygon fill="#000000" points="241.6448,81.5765,251.4917,81.772,246.2533,79.6369,248.3884,74.3985,241.6448,81.5765" style="stroke: #000000; stroke-width: 1.0;"/><!--link <b>arkit</b> to _types--><path d="M385.2836,38.1645 C391.0093,71.1711 406.0259,157.7378 413.1471,198.7891 " fill="none" id="&lt;b&gt;arkit&lt;/b&gt;-_types" style="stroke: #000000; stroke-width: 1.0;"/><polygon fill="#000000" points="414.0161,203.7988,416.419,194.2476,413.1615,198.8724,408.5367,195.6149,414.0161,203.7988" style="stroke: #000000; stroke-width: 1.0;"/><!--link <b>arkit</b> to utils--><path d="M361.5614,29.9576 C339.2262,36.3923 305.3864,50.0142 290,76 C282.301,89.0027 284.7822,95.8183 290,110 C294.856,123.1982 305.2469,135.2173 314.2209,143.7972 " fill="none" id="&lt;b&gt;arkit&lt;/b&gt;-utils" style="stroke: #000000; stroke-width: 1.0;"/><polygon fill="#000000" points="317.9599,147.2571,314.0708,138.2086,314.29,143.8612,308.6374,144.0804,317.9599,147.2571" style="stroke: #000000; stroke-width: 1.0;"/><!--link <b>arkit</b> to yargs--><path d="M403.3972,31.0534 C446.7824,43.9675 544.4885,73.2714 547,76 C571.9748,103.1341 565,120.1218 565,157 C565,157 565,157 565,221 C565,261.0694 564.1213,307.7723 563.5287,334.7099 " fill="none" id="&lt;b&gt;arkit&lt;/b&gt;-yargs" style="stroke: #000000; stroke-width: 1.0;"/><polygon fill="#000000" points="563.4144,339.8261,567.6147,330.9178,563.5263,334.8274,559.6167,330.7389,563.4144,339.8261" style="stroke: #000000; stroke-width: 1.0;"/><!--link _config to _types--><path d="M364.2267,110.2626 C375.1414,133.1655 394.4234,173.6261 406.4128,198.7842 " fill="none" id="_config-_types" style="stroke: #000000; stroke-width: 0.55;"/><polygon fill="#000000" points="408.7088,203.6021,408.4477,193.7567,406.5577,199.0885,401.2259,197.1985,408.7088,203.6021" style="stroke: #000000; stroke-width: 0.55;"/><!--link _config to utils--><path d="M349.0325,110.1508 C345.3265,119.2732 340.7801,130.4644 337.0603,139.6209 " fill="none" id="_config-utils" style="stroke: #000000; stroke-width: 0.55;"/><polygon fill="#000000" points="335.0893,144.4725,342.1827,137.6399,336.9713,139.8402,334.771,134.6288,335.0893,144.4725" style="stroke: #000000; stroke-width: 0.55;"/><!--link _generator to _generator_base--><path d="M487,42.1593 C487,50.7106 487,61.1633 487,70.3622 " fill="none" id="_generator-_generator_base" style="stroke: #000000; stroke-width: 0.55;"/><polygon fill="#000000" points="487,75.6097,491,66.6097,487,70.6097,483,66.6097,487,75.6097" style="stroke: #000000; stroke-width: 0.55;"/><!--link _generator to progress--><path d="M524.3466,39.1817 C568.1904,58.551 635,97.7816 635,157 C635,157 635,157 635,221 C635,283.3047 576.1535,272.0694 531,315 C523.9377,321.7146 516.3663,329.195 509.6239,335.961 " fill="none" id="_generator-progress" style="stroke: #000000; stroke-width: 0.55;"/><polygon fill="#000000" points="505.9719,339.6369,515.1527,336.0713,509.4958,336.0898,509.4773,330.433,505.9719,339.6369" style="stroke: #000000; stroke-width: 0.55;"/><!--link _generator to _types--><path d="M516.4952,42.0644 C528.2854,50.6033 540.5731,62.1023 547,76 C553.3426,89.7156 553.3273,96.2774 547,110 C526.4506,154.5672 478.2043,187.8738 446.6183,205.8711 " fill="none" id="_generator-_types" style="stroke: #000000; stroke-width: 0.55;"/><polygon fill="#000000" points="442.0842,208.4148,451.8905,207.4997,446.4448,205.9684,447.9761,200.5227,442.0842,208.4148" style="stroke: #000000; stroke-width: 0.55;"/><!--link _generator to utils--><path d="M449.6154,33.9994 C403.1059,45.5684 328.8161,65.4219 321,76 C307.3193,94.5149 314.6638,122.2139 321.8341,139.9442 " fill="none" id="_generator-utils" style="stroke: #000000; stroke-width: 0.55;"/><polygon fill="#000000" points="323.8343,144.6647,324.0061,134.8173,321.8836,140.0609,316.64,137.9384,323.8343,144.6647" style="stroke: #000000; stroke-width: 0.55;"/><!--link _generator_base to _types--><path d="M477.5595,110.2626 C464.9823,133.2609 442.7231,173.9636 428.9777,199.0979 " fill="none" id="_generator_base-_types" style="stroke: #000000; stroke-width: 0.55;"/><polygon fill="#000000" points="426.5145,203.6021,434.3424,197.6251,428.9136,199.2153,427.3235,193.7865,426.5145,203.6021" style="stroke: #000000; stroke-width: 0.55;"/><!--link _generator_base to utils--><path d="M444.9269,110.1508 C414.3993,122.5952 374.4278,138.8893 350.5655,148.6166 " fill="none" id="_generator_base-utils" style="stroke: #000000; stroke-width: 0.55;"/><polygon fill="#000000" points="345.7273,150.5889,355.5714,150.8953,350.3573,148.7013,352.5513,143.4872,345.7273,150.5889" style="stroke: #000000; stroke-width: 0.55;"/><!--link logger to pino--><path d="M313.5753,234.0403 C314.6025,257.3231 316.7624,306.2813 318.0249,334.8988 " fill="none" id="logger-pino" style="stroke: #000000; stroke-width: 0.55;"/><polygon fill="#000000" points="318.2498,339.9948,321.8491,330.8272,318.0294,334.9997,313.8569,331.1799,318.2498,339.9948" style="stroke: #000000; stroke-width: 0.55;"/><!--link _parser to progress--><path d="M220.8479,110.0504 C232.6508,143.7977 259.6701,217.6065 277,238 C313.4871,280.9372 331.1477,286.4668 384,306 C410.5304,315.8051 421.7018,302.3509 447,315 C456.8286,319.9143 465.7521,328.0148 472.821,335.7974 " fill="none" id="_parser-progress" style="stroke: #000000; stroke-width: 0.55;"/><polygon fill="#000000" points="476.1381,339.577,473.2079,330.1741,472.84,335.819,467.1951,335.4511,476.1381,339.577" style="stroke: #000000; stroke-width: 0.55;"/><!--link _parser to resolve--><path d="M204.2395,110.3218 C175.3251,156.8669 95.9992,284.5623 64.3222,335.5546 " fill="none" id="_parser-resolve" style="stroke: #000000; stroke-width: 0.55;"/><polygon fill="#000000" points="61.5869,339.9576,69.7338,334.4233,64.2253,335.7104,62.9382,330.2019,61.5869,339.9576" style="stroke: #000000; stroke-width: 0.55;"/><!--link _parser to ts-morph--><path d="M209.5541,110.3218 C194.9795,156.6796 155.0967,283.5358 138.937,334.9353 " fill="none" id="_parser-ts-morph" style="stroke: #000000; stroke-width: 0.55;"/><polygon fill="#000000" points="137.358,339.9576,143.8733,332.5717,138.8577,335.1878,136.2416,330.1722,137.358,339.9576" style="stroke: #000000; stroke-width: 0.55;"/><!--link _parser to tsconfig-paths--><path d="M216.1154,110.3218 C219.1006,156.6796 227.2694,283.5358 230.5792,334.9353 " fill="none" id="_parser-tsconfig-paths" style="stroke: #000000; stroke-width: 0.55;"/><polygon fill="#000000" points="230.9026,339.9576,234.3158,330.7191,230.5812,334.9679,226.3323,331.2334,230.9026,339.9576" style="stroke: #000000; stroke-width: 0.55;"/><!--link _parser to _types--><path d="M231.6218,110.2879 C248.4565,127.1021 275.8207,152.5886 303,170 C329.7601,187.1428 363.2483,201.374 386.9878,210.408 " fill="none" id="_parser-_types" style="stroke: #000000; stroke-width: 0.55;"/><polygon fill="#000000" points="391.8996,212.256,384.8848,205.3427,387.2199,210.4952,382.0675,212.8302,391.8996,212.256" style="stroke: #000000; stroke-width: 0.55;"/><!--link _parser to utils--><path d="M241.6724,107.8437 C262.9589,119.6902 292.2481,135.9903 311.1539,146.5118 " fill="none" id="_parser-utils" style="stroke: #000000; stroke-width: 0.55;"/><polygon fill="#000000" points="315.7256,149.056,309.8065,141.1842,311.3566,146.6246,305.9163,148.1746,315.7256,149.056" style="stroke: #000000; stroke-width: 0.55;"/><!--link _types to _schema--><path d="M418.5141,238.1593 C419.2756,246.7905 420.2081,257.3589 421.0253,266.6198 " fill="none" id="_types-_schema" style="stroke: #000000; stroke-width: 0.55;"/><polygon fill="#000000" points="421.4656,271.6097,424.6589,262.2929,421.026,266.6291,416.6898,262.9962,421.4656,271.6097" style="stroke: #000000; stroke-width: 0.55;"/><!--link utils to logger--><path d="M326.5598,169.9514 C324.0251,179.4936 320.5467,192.5889 317.7475,203.1269 " fill="none" id="utils-logger" style="stroke: #000000; stroke-width: 0.55;"/><polygon fill="#000000" points="316.4351,208.0679,322.6117,200.3965,317.7188,203.2355,314.8799,198.3426,316.4351,208.0679" style="stroke: #000000; stroke-width: 0.55;"/><!--link utils to nanomatch--><path d="M335.4187,169.6682 C339.3682,179.0719 344.7491,192.2474 349,204 C365.6803,250.1172 382.5625,305.0604 391.5007,334.9507 " fill="none" id="utils-nanomatch" style="stroke: #000000; stroke-width: 0.55;"/><polygon fill="#000000" points="392.9706,339.8801,394.2319,330.1123,391.5418,335.0886,386.5655,332.3985,392.9706,339.8801" style="stroke: #000000; stroke-width: 0.55;"/><!--link utils to _types--><path d="M342.8371,166.4434 C355.0209,175.4061 373.7342,189.1723 389.3144,200.6336 " fill="none" id="utils-_types" style="stroke: #000000; stroke-width: 0.55;"/><polygon fill="#000000" points="393.6177,203.7992,388.7383,195.244,389.5901,200.8363,383.9978,201.6881,393.6177,203.7992" style="stroke: #000000; stroke-width: 0.55;"/><script type="text/plantuml"><![CDATA[
@startuml

scale max 1920 width
top to bottom direction

skinparam monochrome true
skinparam shadowing false
skinparam nodesep 17
skinparam ranksep 34
skinparam defaultFontName Tahoma
skinparam defaultFontSize 12
skinparam roundCorner 4
skinparam dpi 150
skinparam arrowColor black
skinparam arrowThickness 0.55
skinparam packageTitleAlignment left

skinparam usecase {
  borderThickness 0.5
}

skinparam rectangle {
  borderThickness 0.5
}

skinparam component {
  borderThickness 1
}


(<b>arkit</b>)
rectangle "config" as _config
rectangle "generator" as _generator
rectangle "generator.base" as _generator_base
(<b>index</b>)
(logger)
rectangle "parser" as _parser
rectangle "schema" as _schema
rectangle "types" as _types
(utils)

package "Dependencies" {
  [nanomatch]
  [pino]
  [progress]
  [resolve]
  [ts-morph]
  [tsconfig-paths]
  [yargs]
}

(<b>arkit</b>) -[thickness=1]> _config
(<b>arkit</b>) -[thickness=1]> _generator
(<b>arkit</b>) -[thickness=1]> _parser
(<b>arkit</b>) -[thickness=1]> _types
(<b>arkit</b>) -[thickness=1]> (utils)
(<b>arkit</b>) ---[thickness=1]> [yargs]
_config --> _types
_config --> (utils)
_generator --> _generator_base
_generator ---> [progress]
_generator --> _types
_generator --> (utils)
_generator_base --> _types
_generator_base --> (utils)
(logger) ---> [pino]
_parser ---> [progress]
_parser ---> [resolve]
_parser ---> [ts-morph]
_parser ---> [tsconfig-paths]
_parser --> _types
_parser --> (utils)
_types --> _schema
(utils) --> (logger)
(utils) ---> [nanomatch]
(utils) --> _types

@enduml


' View and edit on https://arkit.herokuapp.com
]]></script></g></svg>